<svg width="73" height="73" viewBox="0 0 73 73" version="1.1" xmlns="http://www.w3.org/2000/svg" xmlns:xlink="http://www.w3.org/1999/xlink" xmlns:figma="http://www.figma.com/figma/ns">
<title>results_locaiton</title>
<desc>Created using Figma</desc>
<g id="Canvas" transform="translate(-3077 -172)" figma:type="canvas">
<g id="results_locaiton" figma:type="frame">
<g id="Ellipse" figma:type="ellipse">
<use xlink:href="#path0_fill" transform="translate(3077 172)" fill="#FFFFFF" fill-opacity="0.32"/>
</g>
<g id="Group" figma:type="frame">
<g id="Vector" figma:type="vector">
<use xlink:href="#path1_fill" transform="translate(3108.22 193.422)" fill="#FFFFFF"/>
</g>
<g id="Vector" figma:type="vector">
<use xlink:href="#path2_fill" transform="translate(3099.51 184.963)" fill="#FFFFFF"/>
</g>
<g id="Vector" figma:type="vector">
<use xlink:href="#path3_fill" transform="translate(3092.01 215.276)" fill="#FFFFFF"/>
</g>
</g>
</g>
</g>
<defs>
<path id="path0_fill" d="M 73 36.5C 73 56.6584 56.6584 73 36.5 73C 16.3416 73 0 56.6584 0 36.5C 0 16.3416 16.3416 0 36.5 0C 56.6584 0 73 16.3416 73 36.5Z"/>
<path id="path1_fill" d="M 4.93489 9.86978C 7.65613 9.86978 9.86978 7.65543 9.86978 4.93489C 9.86978 2.21436 7.65613 1.2523e-15 4.93489 1.2523e-15C 2.21365 1.2523e-15 0 2.21436 0 4.93489C 0 7.65543 2.21365 9.86978 4.93489 9.86978ZM 4.93489 1.40997C 6.87853 1.40997 8.45981 2.99125 8.45981 4.93489C 8.45981 6.87853 6.87853 8.45981 4.93489 8.45981C 2.99125 8.45981 1.40997 6.87853 1.40997 4.93489C 1.40997 2.99125 2.99125 1.40997 4.93489 1.40997Z"/>
<path id="path2_fill" d="M 13.5195 38.6028L 24.3347 22.9825C 28.3912 17.5746 27.8046 8.68541 23.0791 3.9606C 20.5256 1.40644 17.1304 0 13.5195 0C 9.90858 0 6.51338 1.40644 3.95992 3.9599C -0.765586 8.6847 -1.35213 17.5739 2.68813 22.9606L 13.5195 38.6028ZM 4.95677 4.95675C 7.24445 2.66978 10.285 1.40997 13.5195 1.40997C 16.754 1.40997 19.7946 2.66978 22.0823 4.95675C 26.3474 9.2212 26.8726 17.2496 23.1912 22.1577L 13.5195 36.1255L 3.83232 22.1365C 0.166404 17.2496 0.692321 9.2212 4.95677 4.95675Z"/>
<path id="path3_fill" d="M 29.6918 0.00550694C 29.3041 -0.041727 28.9544 0.236036 28.9093 0.623073C 28.8642 1.01011 29.1405 1.36049 29.5269 1.40561C 36.9405 2.27838 40.8891 4.6302 40.8891 5.99294C 40.8891 7.90627 33.3796 10.5753 21.1495 10.5753C 8.91946 10.5753 1.40997 7.90627 1.40997 5.99294C 1.40997 4.6302 5.35859 2.27838 12.7722 1.40561C 13.1585 1.36049 13.4349 1.0094 13.3898 0.623073C 13.3439 0.236036 12.9943 -0.043137 12.6072 0.00550694C 5.18445 0.879688 0 3.34149 0 5.99294C 0 8.97079 7.26486 11.9853 21.1495 11.9853C 35.0342 11.9853 42.2991 8.97079 42.2991 5.99294C 42.2991 3.34149 37.1146 0.879688 29.6918 0.00550694Z"/>
</defs>
</svg>
