<svg width="80" height="80" viewBox="0 0 80 80" version="1.1" xmlns="http://www.w3.org/2000/svg" xmlns:xlink="http://www.w3.org/1999/xlink" xmlns:figma="http://www.figma.com/figma/ns">
<title>clock</title>
<desc>Created using Figma</desc>
<g id="Canvas" transform="translate(-2369 -574)" figma:type="canvas">
<g id="clock" figma:type="frame">
<g id="Group" figma:type="frame">
<g id="Group" figma:type="frame">
<g id="Group" figma:type="frame">
<g id="Vector" figma:type="vector">
<mask id="mask0_outline_ins">
<use xlink:href="#path0_fill" fill="white" transform="translate(2407.26 582.696)"/>
</mask>
<g mask="url(#mask0_outline_ins)">
<use xlink:href="#path1_stroke_2x" transform="translate(2407.26 582.696)" fill="#FFFFFF"/>
</g>
</g>
<g id="Vector" figma:type="vector">
<mask id="mask1_outline_ins">
<use xlink:href="#path2_fill" fill="white" transform="translate(2407.26 640.957)"/>
</mask>
<g mask="url(#mask1_outline_ins)">
<use xlink:href="#path3_stroke_2x" transform="translate(2407.26 640.957)" fill="#FFFFFF"/>
</g>
</g>
<g id="Vector" figma:type="vector">
<mask id="mask2_outline_ins">
<use xlink:href="#path4_fill" fill="white" transform="translate(2377.7 612.261)"/>
</mask>
<g mask="url(#mask2_outline_ins)">
<use xlink:href="#path5_stroke_2x" transform="translate(2377.7 612.261)" fill="#FFFFFF"/>
</g>
</g>
<g id="Vector" figma:type="vector">
<mask id="mask3_outline_ins">
<use xlink:href="#path4_fill" fill="white" transform="translate(2435.96 612.261)"/>
</mask>
<g mask="url(#mask3_outline_ins)">
<use xlink:href="#path5_stroke_2x" transform="translate(2435.96 612.261)" fill="#FFFFFF"/>
</g>
</g>
<g id="Vector" figma:type="vector">
<mask id="mask4_outline_ins">
<use xlink:href="#path6_fill" fill="white" transform="translate(2386.39 591.391)"/>
</mask>
<g mask="url(#mask4_outline_ins)">
<use xlink:href="#path7_stroke_2x" transform="translate(2386.39 591.391)" fill="#FFFFFF"/>
</g>
</g>
<g id="Vector" figma:type="vector">
<mask id="mask5_outline_ins">
<use xlink:href="#path8_fill" fill="white" transform="translate(2386.39 632.522)"/>
</mask>
<g mask="url(#mask5_outline_ins)">
<use xlink:href="#path9_stroke_2x" transform="translate(2386.39 632.522)" fill="#FFFFFF"/>
</g>
</g>
<g id="Vector" figma:type="vector">
<mask id="mask6_outline_ins">
<use xlink:href="#path10_fill" fill="white" transform="translate(2427.52 591.391)"/>
</mask>
<g mask="url(#mask6_outline_ins)">
<use xlink:href="#path11_stroke_2x" transform="translate(2427.52 591.391)" fill="#FFFFFF"/>
</g>
</g>
<g id="Vector" figma:type="vector">
<mask id="mask7_outline_ins">
<use xlink:href="#path12_fill" fill="white" transform="translate(2407.26 595.739)"/>
</mask>
<g mask="url(#mask7_outline_ins)">
<use xlink:href="#path13_stroke_2x" transform="translate(2407.26 595.739)" fill="#FFFFFF"/>
</g>
</g>
<g id="Vector" figma:type="vector">
<mask id="mask8_outline_ins">
<use xlink:href="#path14_fill" fill="white" transform="translate(2369 574)"/>
</mask>
<g mask="url(#mask8_outline_ins)">
<use xlink:href="#path15_stroke_2x" transform="translate(2369 574)" fill="#FFFFFF"/>
</g>
</g>
</g>
</g>
</g>
</g>
</g>
<defs>
<path id="path0_fill" d="M 1.73913 4.34783C 2.69565 4.34783 3.47826 3.56522 3.47826 2.6087L 3.47826 1.73913C 3.47826 0.782609 2.69565 0 1.73913 0C 0.782609 0 0 0.782609 0 1.73913L 0 2.6087C 0 3.56522 0.782609 4.34783 1.73913 4.34783Z"/>
<path id="path1_stroke_2x" d="M 1.73913 6.34783C 3.80022 6.34783 5.47826 4.66979 5.47826 2.6087L 1.47826 2.6087C 1.47826 2.46065 1.59108 2.34783 1.73913 2.34783L 1.73913 6.34783ZM 5.47826 2.6087L 5.47826 1.73913L 1.47826 1.73913L 1.47826 2.6087L 5.47826 2.6087ZM 5.47826 1.73913C 5.47826 -0.321961 3.80022 -2 1.73913 -2L 1.73913 2C 1.59108 2 1.47826 1.88718 1.47826 1.73913L 5.47826 1.73913ZM 1.73913 -2C -0.321961 -2 -2 -0.321961 -2 1.73913L 2 1.73913C 2 1.88718 1.88718 2 1.73913 2L 1.73913 -2ZM -2 1.73913L -2 2.6087L 2 2.6087L 2 1.73913L -2 1.73913ZM -2 2.6087C -2 4.66979 -0.321961 6.34783 1.73913 6.34783L 1.73913 2.34783C 1.88718 2.34783 2 2.46065 2 2.6087L -2 2.6087Z"/>
<path id="path2_fill" d="M 1.73913 0C 0.782609 0 0 0.782609 0 1.73913L 0 2.6087C 0 3.56522 0.782609 4.34783 1.73913 4.34783C 2.69565 4.34783 3.47826 3.56522 3.47826 2.6087L 3.47826 1.73913C 3.47826 0.782609 2.69565 0 1.73913 0Z"/>
<path id="path3_stroke_2x" d="M 1.73913 -2C -0.321961 -2 -2 -0.321961 -2 1.73913L 2 1.73913C 2 1.88718 1.88718 2 1.73913 2L 1.73913 -2ZM -2 1.73913L -2 2.6087L 2 2.6087L 2 1.73913L -2 1.73913ZM -2 2.6087C -2 4.66979 -0.321961 6.34783 1.73913 6.34783L 1.73913 2.34783C 1.88718 2.34783 2 2.46065 2 2.6087L -2 2.6087ZM 1.73913 6.34783C 3.80022 6.34783 5.47826 4.66979 5.47826 2.6087L 1.47826 2.6087C 1.47826 2.46065 1.59108 2.34783 1.73913 2.34783L 1.73913 6.34783ZM 5.47826 2.6087L 5.47826 1.73913L 1.47826 1.73913L 1.47826 2.6087L 5.47826 2.6087ZM 5.47826 1.73913C 5.47826 -0.321961 3.80022 -2 1.73913 -2L 1.73913 2C 1.59108 2 1.47826 1.88718 1.47826 1.73913L 5.47826 1.73913Z"/>
<path id="path4_fill" d="M 2.6087 0L 1.73913 0C 0.782609 0 0 0.782609 0 1.73913C 0 2.69565 0.782609 3.47826 1.73913 3.47826L 2.6087 3.47826C 3.56522 3.47826 4.34783 2.69565 4.34783 1.73913C 4.34783 0.782609 3.56522 0 2.6087 0Z"/>
<path id="path5_stroke_2x" d="M 2.6087 -2L 1.73913 -2L 1.73913 2L 2.6087 2L 2.6087 -2ZM 1.73913 -2C -0.321961 -2 -2 -0.321961 -2 1.73913L 2 1.73913C 2 1.88718 1.88718 2 1.73913 2L 1.73913 -2ZM -2 1.73913C -2 3.80022 -0.321961 5.47826 1.73913 5.47826L 1.73913 1.47826C 1.88718 1.47826 2 1.59108 2 1.73913L -2 1.73913ZM 1.73913 5.47826L 2.6087 5.47826L 2.6087 1.47826L 1.73913 1.47826L 1.73913 5.47826ZM 2.6087 5.47826C 4.66979 5.47826 6.34783 3.80022 6.34783 1.73913L 2.34783 1.73913C 2.34783 1.59108 2.46065 1.47826 2.6087 1.47826L 2.6087 5.47826ZM 6.34783 1.73913C 6.34783 -0.321961 4.66979 -2 2.6087 -2L 2.6087 2C 2.46065 2 2.34783 1.88718 2.34783 1.73913L 6.34783 1.73913Z"/>
<path id="path6_fill" d="M 2.95652 0.521739C 2.26087 -0.173913 1.21739 -0.173913 0.521739 0.521739C -0.173913 1.21739 -0.173913 2.26087 0.521739 2.95652L 1.13043 3.56522C 1.47826 3.91304 1.91304 4.08696 2.34783 4.08696C 2.78261 4.08696 3.21739 3.91304 3.56522 3.56522C 4.26087 2.86957 4.26087 1.82609 3.56522 1.13043L 2.95652 0.521739Z"/>
<path id="path7_stroke_2x" d="M 2.95652 0.521739L 1.54231 1.93595L 1.54231 1.93595L 2.95652 0.521739ZM 0.521739 2.95652L 1.93595 1.54231L 1.93595 1.54231L 0.521739 2.95652ZM 1.13043 3.56522L -0.283781 4.97943L -0.283779 4.97943L 1.13043 3.56522ZM 3.56522 1.13043L 4.97943 -0.283779L 4.97943 -0.283781L 3.56522 1.13043ZM 4.37074 -0.892474C 2.89403 -2.36917 0.584227 -2.36917 -0.892474 -0.892474L 1.93595 1.93595C 1.92068 1.95123 1.85147 2 1.73913 2C 1.62679 2 1.55759 1.95123 1.54231 1.93595L 4.37074 -0.892474ZM -0.892474 -0.892474C -2.36917 0.584227 -2.36917 2.89403 -0.892474 4.37074L 1.93595 1.54231C 1.95123 1.55759 2 1.62679 2 1.73913C 2 1.85147 1.95123 1.92068 1.93595 1.93595L -0.892474 -0.892474ZM -0.892476 4.37073L -0.283781 4.97943L 2.54465 2.15101L 1.93595 1.54231L -0.892476 4.37073ZM -0.283779 4.97943C 0.427151 5.69036 1.36592 6.08696 2.34783 6.08696L 2.34783 2.08696C 2.39854 2.08696 2.44491 2.09737 2.48264 2.11325C 2.52082 2.12933 2.54048 2.14683 2.54465 2.151L -0.283779 4.97943ZM 2.34783 6.08696C 3.32973 6.08696 4.2685 5.69036 4.97943 4.97943L 2.151 2.151C 2.15517 2.14683 2.17483 2.12933 2.21302 2.11325C 2.25074 2.09737 2.29711 2.08696 2.34783 2.08696L 2.34783 6.08696ZM 4.97943 4.97943C 6.45613 3.50273 6.45613 1.19292 4.97943 -0.283779L 2.151 2.54465C 2.13573 2.52937 2.08696 2.46017 2.08696 2.34783C 2.08696 2.23549 2.13573 2.16628 2.151 2.151L 4.97943 4.97943ZM 4.97943 -0.283781L 4.37073 -0.892476L 1.54231 1.93595L 2.15101 2.54465L 4.97943 -0.283781Z"/>
<path id="path8_fill" d="M 1.13043 0.52174L 0.521739 1.13043C -0.173913 1.82609 -0.173913 2.86957 0.521739 3.56522C 0.869566 3.91304 1.30435 4.08696 1.73913 4.08696C 2.17391 4.08696 2.6087 3.91304 2.95652 3.56522L 3.56522 2.95652C 4.26087 2.26087 4.26087 1.21739 3.56522 0.52174C 2.86957 -0.173912 1.82609 -0.173912 1.13043 0.52174Z"/>
<path id="path9_stroke_2x" d="M 1.13043 0.52174L 2.54465 1.93596L 2.54465 1.93595L 1.13043 0.52174ZM 0.521739 1.13043L -0.892472 -0.283782L -0.892474 -0.28378L 0.521739 1.13043ZM 2.95652 3.56522L 4.37074 4.97943L 4.37074 4.97943L 2.95652 3.56522ZM 3.56522 2.95652L 2.151 1.54231L 2.151 1.54231L 3.56522 2.95652ZM -0.283778 -0.892475L -0.892472 -0.283782L 1.93595 2.54465L 2.54465 1.93596L -0.283778 -0.892475ZM -0.892474 -0.28378C -2.36917 1.19292 -2.36917 3.50273 -0.892474 4.97943L 1.93595 2.15101C 1.95123 2.16628 2 2.23549 2 2.34783C 2 2.46016 1.95123 2.52937 1.93595 2.54465L -0.892474 -0.28378ZM -0.892474 4.97943C -0.181542 5.69036 0.757228 6.08696 1.73913 6.08696L 1.73913 2.08696C 1.78984 2.08696 1.83621 2.09736 1.87394 2.11325C 1.91212 2.12933 1.93178 2.14683 1.93595 2.15101L -0.892474 4.97943ZM 1.73913 6.08696C 2.72103 6.08696 3.6598 5.69036 4.37074 4.97943L 1.54231 2.15101C 1.54648 2.14683 1.56614 2.12933 1.60432 2.11325C 1.64205 2.09736 1.68842 2.08696 1.73913 2.08696L 1.73913 6.08696ZM 4.37074 4.97943L 4.97944 4.37073L 2.151 1.54231L 1.5423 2.15101L 4.37074 4.97943ZM 4.97943 4.37073C 6.45613 2.89403 6.45613 0.584228 4.97943 -0.892473L 2.151 1.93595C 2.13573 1.92068 2.08696 1.85147 2.08696 1.73913C 2.08696 1.62679 2.13573 1.55758 2.151 1.54231L 4.97943 4.37073ZM 4.97943 -0.892473C 3.50273 -2.36917 1.19292 -2.36917 -0.283779 -0.892473L 2.54465 1.93595C 2.52937 1.95123 2.46017 2 2.34783 2C 2.23549 2 2.16628 1.95123 2.151 1.93595L 4.97943 -0.892473Z"/>
<path id="path10_fill" d="M 1.13043 0.521739L 0.52174 1.13043C -0.173912 1.82609 -0.173912 2.86957 0.52174 3.56522C 0.869567 3.91304 1.30435 4.08696 1.73913 4.08696C 2.17392 4.08696 2.60869 3.91304 2.95652 3.56522L 3.56522 2.95652C 4.26087 2.26087 4.26087 1.21739 3.56522 0.521739C 2.86957 -0.173913 1.82609 -0.173913 1.13043 0.521739Z"/>
<path id="path11_stroke_2x" d="M 1.13043 0.521739L -0.28378 -0.892474L -0.283782 -0.892472L 1.13043 0.521739ZM 0.52174 1.13043L 1.93595 2.54465L 1.93596 2.54465L 0.52174 1.13043ZM 2.95652 3.56522L 1.54231 2.151L 1.54231 2.151L 2.95652 3.56522ZM 3.56522 2.95652L 4.97943 4.37074L 4.97943 4.37074L 3.56522 2.95652ZM 3.56522 0.521739L 2.15101 1.93595L 3.56522 0.521739ZM -0.283782 -0.892472L -0.892475 -0.283778L 1.93596 2.54465L 2.54465 1.93595L -0.283782 -0.892472ZM -0.892473 -0.283779C -2.36917 1.19292 -2.36917 3.50273 -0.892473 4.97943L 1.93595 2.151C 1.95123 2.16628 2 2.23549 2 2.34783C 2 2.46017 1.95123 2.52937 1.93595 2.54465L -0.892473 -0.283779ZM -0.892473 4.97943C -0.181543 5.69036 0.757228 6.08696 1.73913 6.08696L 1.73913 2.08696C 1.78985 2.08696 1.83621 2.09737 1.87394 2.11325C 1.91213 2.12933 1.93178 2.14683 1.93595 2.151L -0.892473 4.97943ZM 1.73913 6.08696C 2.72105 6.08696 3.65981 5.69036 4.37073 4.97943L 1.54231 2.151C 1.54647 2.14684 1.56613 2.12933 1.60432 2.11325C 1.64205 2.09737 1.68842 2.08696 1.73913 2.08696L 1.73913 6.08696ZM 4.37073 4.97944L 4.97943 4.37074L 2.15101 1.5423L 1.54231 2.151L 4.37073 4.97944ZM 4.97943 4.37074C 6.45613 2.89403 6.45613 0.584227 4.97943 -0.892474L 2.15101 1.93595C 2.13573 1.92068 2.08696 1.85147 2.08696 1.73913C 2.08696 1.62679 2.13573 1.55759 2.15101 1.54231L 4.97943 4.37074ZM 4.97943 -0.892474C 3.50273 -2.36917 1.19292 -2.36917 -0.28378 -0.892474L 2.54465 1.93595C 2.52937 1.95123 2.46016 2 2.34783 2C 2.23549 2 2.16628 1.95123 2.15101 1.93595L 4.97943 -0.892474Z"/>
<path id="path12_fill" d="M 3.47826 17.5652L 3.47826 1.73913C 3.47826 0.782609 2.69565 0 1.73913 0C 0.782609 0 0 0.782609 0 1.73913L 0 18.2609C 0 18.6957 0.173912 19.1304 0.521738 19.4783L 19.5652 38.5217C 19.913 38.8696 20.3478 39.0435 20.7826 39.0435C 21.2174 39.0435 21.6522 38.8696 22 38.5217C 22.6957 37.8261 22.6957 36.7826 22 36.087L 3.47826 17.5652Z"/>
<path id="path13_stroke_2x" d="M 3.47826 17.5652L 1.47826 17.5652L 1.47826 18.3936L 2.06405 18.9794L 3.47826 17.5652ZM 0.521738 19.4783L -0.892476 20.8925L 0.521738 19.4783ZM 19.5652 38.5217L 20.9794 37.1075L 19.5652 38.5217ZM 22 36.087L 23.4142 34.6727L 23.4142 34.6727L 22 36.087ZM 5.47826 17.5652L 5.47826 1.73913L 1.47826 1.73913L 1.47826 17.5652L 5.47826 17.5652ZM 5.47826 1.73913C 5.47826 -0.321961 3.80022 -2 1.73913 -2L 1.73913 2C 1.59108 2 1.47826 1.88718 1.47826 1.73913L 5.47826 1.73913ZM 1.73913 -2C -0.321961 -2 -2 -0.321961 -2 1.73913L 2 1.73913C 2 1.88718 1.88718 2 1.73913 2L 1.73913 -2ZM -2 1.73913L -2 18.2609L 2 18.2609L 2 1.73913L -2 1.73913ZM -2 18.2609C -2 19.2428 -1.60341 20.1815 -0.892476 20.8925L 1.93595 18.064C 1.94012 18.0682 1.95763 18.0879 1.97371 18.1261C 1.98959 18.1638 2 18.2102 2 18.2609L -2 18.2609ZM -0.892476 20.8925L 18.151 39.936L 20.9794 37.1075L 1.93595 18.064L -0.892476 20.8925ZM 18.151 39.936C 18.8619 40.6469 19.8007 41.0435 20.7826 41.0435L 20.7826 37.0435C 20.8333 37.0435 20.8797 37.0539 20.9174 37.0698C 20.9556 37.0859 20.9753 37.1034 20.9794 37.1075L 18.151 39.936ZM 20.7826 41.0435C 21.7645 41.0435 22.7033 40.6469 23.4142 39.936L 20.5858 37.1075C 20.59 37.1034 20.6096 37.0859 20.6478 37.0698C 20.6855 37.0539 20.7319 37.0435 20.7826 37.0435L 20.7826 41.0435ZM 23.4142 39.936C 24.8909 38.4593 24.8909 36.1494 23.4142 34.6727L 20.5858 37.5012C 20.5705 37.4859 20.5217 37.4167 20.5217 37.3043C 20.5217 37.192 20.5705 37.1228 20.5858 37.1075L 23.4142 39.936ZM 23.4142 34.6727L 4.89247 16.151L 2.06405 18.9794L 20.5858 37.5012L 23.4142 34.6727Z"/>
<path id="path14_fill" d="M 40 0C 17.913 0 0 17.913 0 40C 0 62.087 17.913 80 40 80C 62.087 80 80 62.087 80 40C 80 17.913 62.087 0 40 0ZM 40 76.5217C 19.8261 76.5217 3.47826 60.1739 3.47826 40C 3.47826 19.8261 19.8261 3.47826 40 3.47826C 60.1739 3.47826 76.5217 19.8261 76.5217 40C 76.5217 60.1739 60.1739 76.5217 40 76.5217Z"/>
<path id="path15_stroke_2x" d="M 40 -2C 16.8085 -2 -2 16.8085 -2 40L 2 40C 2 19.0176 19.0176 2 40 2L 40 -2ZM -2 40C -2 63.1915 16.8085 82 40 82L 40 78C 19.0176 78 2 60.9824 2 40L -2 40ZM 40 82C 63.1915 82 82 63.1915 82 40L 78 40C 78 60.9824 60.9824 78 40 78L 40 82ZM 82 40C 82 16.8085 63.1915 -2 40 -2L 40 2C 60.9824 2 78 19.0176 78 40L 82 40ZM 40 74.5217C 20.9307 74.5217 5.47826 59.0693 5.47826 40L 1.47826 40C 1.47826 61.2785 18.7215 78.5217 40 78.5217L 40 74.5217ZM 5.47826 40C 5.47826 20.9307 20.9307 5.47826 40 5.47826L 40 1.47826C 18.7215 1.47826 1.47826 18.7215 1.47826 40L 5.47826 40ZM 40 5.47826C 59.0693 5.47826 74.5217 20.9307 74.5217 40L 78.5217 40C 78.5217 18.7215 61.2785 1.47826 40 1.47826L 40 5.47826ZM 74.5217 40C 74.5217 59.0693 59.0693 74.5217 40 74.5217L 40 78.5217C 61.2785 78.5217 78.5217 61.2785 78.5217 40L 74.5217 40Z"/>
</defs>
</svg>
