<svg width="80" height="80" viewBox="0 0 80 80" version="1.1" xmlns="http://www.w3.org/2000/svg" xmlns:xlink="http://www.w3.org/1999/xlink" xmlns:figma="http://www.figma.com/figma/ns">
<title>closed</title>
<desc>Created using Figma</desc>
<g id="Canvas" transform="translate(-2478 -666)" figma:type="canvas">
<g id="closed" figma:type="frame">
<g id="Group" figma:type="frame">
<g id="Union" figma:type="vector-operation">
<mask id="mask0_outline_ins">
<use xlink:href="#path0_fill" fill="white" transform="translate(2478 666)"/>
</mask>
<g mask="url(#mask0_outline_ins)">
<use xlink:href="#path1_stroke_2x" transform="translate(2478 666)" fill="#FFFFFF"/>
</g>
</g>
<g id="Vector" figma:type="vector">
<mask id="mask1_outline_ins">
<use xlink:href="#path2_fill" fill="white" transform="translate(2502.93 676)"/>
</mask>
<g mask="url(#mask1_outline_ins)">
<use xlink:href="#path3_stroke_2x" transform="translate(2502.93 676)" fill="#FFFFFF"/>
</g>
</g>
<g id="Union" figma:type="vector-operation">
<mask id="mask2_outline_ins">
<use xlink:href="#path4_fill" fill="white" transform="translate(2483.91 693.522)"/>
</mask>
<g mask="url(#mask2_outline_ins)">
<use xlink:href="#path5_stroke_2x" transform="translate(2483.91 693.522)" fill="#FFFFFF"/>
</g>
</g>
<g id="Vector" figma:type="vector">
<use xlink:href="#path6_fill" transform="translate(2487.49 702.58)" fill="#FFFFFF"/>
</g>
<g id="Vector" figma:type="vector">
<use xlink:href="#path7_fill" transform="translate(2499.05 702.642)" fill="#FFFFFF"/>
</g>
<g id="Vector" figma:type="vector">
<use xlink:href="#path8_fill" transform="translate(2506.97 702.564)" fill="#FFFFFF"/>
</g>
<g id="Vector" figma:type="vector">
<use xlink:href="#path9_fill" transform="translate(2518.82 702.564)" fill="#FFFFFF"/>
</g>
<g id="Vector" figma:type="vector">
<use xlink:href="#path10_fill" transform="translate(2529.39 702.642)" fill="#FFFFFF"/>
</g>
<g id="Vector" figma:type="vector">
<use xlink:href="#path11_fill" transform="translate(2538.95 702.642)" fill="#FFFFFF"/>
</g>
</g>
</g>
</g>
<defs>
<path id="path0_fill" fill-rule="evenodd" d="M 0 40C 0 17.9087 17.9084 0 40 0C 59.1865 0 75.218 13.5085 79.1023 31.5334L 79.0994 31.5341C 79.6875 34.2633 80 37.095 80 40C 80 62.0913 62.0916 80 40 80C 37.095 80 34.2634 79.6875 31.5342 79.0993L 31.5334 79.1023C 13.5085 75.2179 0 59.1865 0 40Z"/>
<path id="path1_stroke_2x" d="M 79.1023 31.5334L 79.549 33.4829L 81.4733 33.0419L 81.0574 31.1121L 79.1023 31.5334ZM 79.0994 31.5341L 78.6526 29.5846L 76.7284 30.0256L 77.1442 31.9554L 79.0994 31.5341ZM 31.5342 79.0993L 31.9555 77.1442L 30.0542 76.7344L 29.5916 78.6236L 31.5342 79.0993ZM 31.5334 79.1023L 31.1121 81.0574L 33.0134 81.4671L 33.476 79.578L 31.5334 79.1023ZM 40 -2C 16.8039 -2 -2 16.8041 -2 40L 2 40C 2 19.0133 19.013 2 40 2L 40 -2ZM 81.0574 31.1121C 76.9788 12.1854 60.1483 -2 40 -2L 40 2C 58.2248 2 73.4572 14.8317 77.1472 31.9547L 81.0574 31.1121ZM 79.5461 33.4835L 79.549 33.4829L 78.6555 29.5839L 78.6526 29.5846L 79.5461 33.4835ZM 82 40C 81.997 36.9851 81.6616 33.9425 81.0545 31.1127L 77.1442 31.9554C 77.7134 34.5841 78.003 37.2048 78 40L 82 40ZM 40 82C 63.1961 82 82 63.1959 82 40L 78 40C 78 60.9867 60.987 78 40 78L 40 82ZM 31.1128 81.0544C 33.9426 81.6616 36.9851 81.997 40 82L 40 78C 37.2048 78.003 34.5842 77.7134 31.9555 77.1442L 31.1128 81.0544ZM 33.476 79.578L 33.4768 79.575L 29.5916 78.6236L 29.5909 78.6266L 33.476 79.578ZM -2 40C -2 60.1482 12.1854 76.9787 31.1121 81.0574L 31.9548 77.1472C 14.8317 73.4571 2 58.2247 2 40L -2 40Z"/>
<path id="path2_fill" d="M 27.6885 17.6023L 15.0052 4.91896L 2.45965 17.4647L 8.91644e-07 15.0052L 15.0052 -1.27378e-07L 30.1482 15.1428L 27.6885 17.6023Z"/>
<path id="path3_stroke_2x" d="M 27.6885 17.6023L 26.9814 18.3094L 27.6885 19.0165L 28.3956 18.3094L 27.6885 17.6023ZM 15.0052 4.91896L 15.7123 4.21185L 15.0052 3.50474L 14.2981 4.21186L 15.0052 4.91896ZM 2.45965 17.4647L 1.75257 18.1718L 2.45968 18.8789L 3.16676 18.1718L 2.45965 17.4647ZM 8.91644e-07 15.0052L -0.707106 14.2981L -1.41424 15.0052L -0.707081 15.7124L 8.91644e-07 15.0052ZM 15.0052 -1.27378e-07L 15.7123 -0.707111L 15.0052 -1.41421L 14.2981 -0.707107L 15.0052 -1.27378e-07ZM 30.1482 15.1428L 30.8553 15.8499L 31.5624 15.1428L 30.8553 14.4357L 30.1482 15.1428ZM 28.3956 16.8952L 15.7123 4.21185L 14.2981 5.62606L 26.9814 18.3094L 28.3956 16.8952ZM 14.2981 4.21186L 1.75254 16.7576L 3.16676 18.1718L 15.7123 5.62606L 14.2981 4.21186ZM 3.16673 16.7576L 0.707083 14.2981L -0.707081 15.7124L 1.75257 18.1718L 3.16673 16.7576ZM 0.707108 15.7123L 15.7123 0.707107L 14.2981 -0.707107L -0.707106 14.2981L 0.707108 15.7123ZM 14.2981 0.707111L 29.4411 15.8499L 30.8553 14.4357L 15.7123 -0.707111L 14.2981 0.707111ZM 29.4411 14.4357L 26.9814 16.8951L 28.3956 18.3094L 30.8553 15.8499L 29.4411 14.4357Z"/>
<path id="path4_fill" fill-rule="evenodd" d="M 34.0173 0L 0 0L 0 5.21741L 0 26.9566L 34.0173 26.9566L 68.1738 26.9566L 68.1741 5.21741L 68.1741 0L 34.0173 0Z"/>
<path id="path5_stroke_2x" d="M 0 0L 0 -1L -1 -1L -1 0L 0 0ZM 0 26.9566L -1 26.9566L -1 27.9566L 0 27.9566L 0 26.9566ZM 68.1738 26.9566L 68.1738 27.9566L 69.1738 27.9566L 69.1738 26.9566L 68.1738 26.9566ZM 68.1741 5.21741L 69.1741 5.21742L 69.1741 5.21741L 68.1741 5.21741ZM 68.1741 0L 69.1741 0L 69.1741 -1L 68.1741 -1L 68.1741 0ZM 0 1L 34.0173 1L 34.0173 -1L 0 -1L 0 1ZM 1 5.21741L 1 0L -1 0L -1 5.21741L 1 5.21741ZM -1 5.21741L -1 26.9566L 1 26.9566L 1 5.21741L -1 5.21741ZM 0 27.9566L 34.0173 27.9566L 34.0173 25.9566L 0 25.9566L 0 27.9566ZM 68.1738 25.9566L 34.0173 25.9566L 34.0173 27.9566L 68.1738 27.9566L 68.1738 25.9566ZM 67.1741 5.2174L 67.1738 26.9566L 69.1738 26.9566L 69.1741 5.21742L 67.1741 5.2174ZM 67.1741 0L 67.1741 5.21741L 69.1741 5.21741L 69.1741 0L 67.1741 0ZM 34.0173 1L 68.1741 1L 68.1741 -1L 34.0173 -1L 34.0173 1Z"/>
<path id="path6_fill" d="M 2.49448e-07 5.54087C 2.49448e-07 4.86278 0.122609 4.19235 0.367826 3.52957C 0.612869 2.86696 0.970435 2.27496 1.44 1.75304C 1.90957 1.23131 2.4833 0.808869 3.16174 0.485216C 3.83983 0.161912 4.612 1.27378e-07 5.47826 1.27378e-07C 6.5007 1.27378e-07 7.38504 0.224521 8.1313 0.673043C 8.87722 1.12191 9.43287 1.70609 9.79826 2.42609L 8.13913 3.5687C 7.99287 3.25565 7.81565 2.99235 7.60696 2.77826C 7.39809 2.56452 7.17391 2.39478 6.93391 2.26957C 6.69374 2.14435 6.4433 2.05305 6.18261 1.99565C 5.92174 1.93844 5.66609 1.90956 5.41565 1.90956C 4.87287 1.90956 4.4007 2.01913 3.99913 2.23826C 3.59722 2.45739 3.26348 2.74191 2.99739 3.0913C 2.7313 3.44104 2.53026 3.83757 2.39478 4.28087C 2.25896 4.72452 2.19131 5.16522 2.19131 5.60348C 2.19131 6.09409 2.26957 6.56609 2.42609 7.02C 2.58261 7.47392 2.80417 7.87304 3.0913 8.21739C 3.37809 8.56174 3.72244 8.83826 4.12435 9.04696C 4.52591 9.25583 4.96696 9.36 5.44696 9.36C 5.69739 9.36 5.95809 9.3287 6.22956 9.26609C 6.50087 9.20348 6.75896 9.10435 7.00435 8.9687C 7.24939 8.83322 7.47635 8.65826 7.68522 8.44435C 7.89391 8.23061 8.06087 7.97235 8.18609 7.66957L 9.95478 8.68696C 9.77722 9.10435 9.52435 9.47235 9.19565 9.79044C 8.86696 10.1089 8.49635 10.3774 8.08435 10.5965C 7.672 10.8157 7.2313 10.9828 6.76174 11.0974C 6.29217 11.2122 5.83287 11.2696 5.38435 11.2696C 4.59113 11.2696 3.86609 11.1028 3.2087 10.7687C 2.5513 10.4348 1.98504 9.99931 1.51043 9.46174C 1.03548 8.92452 0.665217 8.31391 0.39913 7.63044C 0.133217 6.94713 2.49448e-07 6.25061 2.49448e-07 5.54087Z"/>
<path id="path7_fill" d="M -4.24592e-08 11.113L -4.24592e-08 2.33526e-07L 2.16 2.33526e-07L 2.16 9.21913L 7.82609 9.21913L 7.82609 11.113L -4.24592e-08 11.113Z"/>
<path id="path8_fill" d="M 5.41565 11.2696C 4.60174 11.2696 3.86331 11.1106 3.20087 10.7922C 2.53809 10.4739 1.96956 10.0513 1.49478 9.52435C 1.02 8.99756 0.651999 8.39496 0.391303 7.71652C 0.130434 7.03844 -1.21009e-06 6.34452 -1.21009e-06 5.63478C -1.21009e-06 4.89409 0.138087 4.18452 0.414783 3.50609C 0.691131 2.828 1.07217 2.228 1.55739 1.70609C 2.04261 1.18435 2.61896 0.76974 3.28696 0.46174C 3.95461 0.154088 4.68 7.64266e-07 5.46261 7.64266e-07C 6.26591 7.64266e-07 6.99896 0.164347 7.66174 0.493043C 8.32417 0.821739 8.89043 1.25217 9.36 1.78435C 9.82957 2.31652 10.1948 2.92191 10.4557 3.6C 10.7163 4.27844 10.847 4.96713 10.847 5.66609C 10.847 6.40713 10.7111 7.11391 10.44 7.78696C 10.1685 8.46 9.79287 9.05479 9.31304 9.57131C 8.83304 10.0878 8.25896 10.5002 7.5913 10.8078C 6.9233 11.1157 6.19826 11.2696 5.41565 11.2696ZM 2.1913 5.63478C 2.1913 6.11496 2.26417 6.5793 2.41043 7.02783C 2.55652 7.4767 2.76783 7.87305 3.04435 8.21739C 3.3207 8.56174 3.66 8.83843 4.06174 9.04696C 4.4633 9.25583 4.92 9.36 5.4313 9.36C 5.95304 9.36 6.41461 9.25305 6.81652 9.03913C 7.21809 8.82539 7.55739 8.54087 7.83391 8.18609C 8.11026 7.83148 8.31913 7.43235 8.46 6.9887C 8.60087 6.54539 8.6713 6.09409 8.6713 5.63478C 8.6713 5.15496 8.59548 4.69061 8.44435 4.24174C 8.29287 3.79322 8.07896 3.39652 7.80261 3.05218C 7.52609 2.70783 7.18678 2.43391 6.78522 2.23044C 6.3833 2.02696 5.93217 1.92522 5.4313 1.92522C 4.90939 1.92522 4.44522 2.03235 4.03826 2.24609C 3.6313 2.46 3.29217 2.74191 3.02087 3.0913C 2.74939 3.44104 2.54348 3.83756 2.40261 4.28087C 2.26174 4.72452 2.1913 5.17565 2.1913 5.63478Z"/>
<path id="path9_fill" d="M 7.4353 2.98957C 7.36209 2.9167 7.22904 2.81739 7.036 2.69217C 6.84296 2.56696 6.608 2.44452 6.33165 2.32435C 6.05513 2.20452 5.75513 2.10278 5.43165 2.01913C 5.10817 1.93583 4.77948 1.89391 4.44557 1.89391C 3.85078 1.89391 3.40713 2.00348 3.11513 2.22261C 2.82296 2.44174 2.67687 2.74957 2.67687 3.14609C 2.67687 3.37565 2.73148 3.56626 2.84122 3.71739C 2.95078 3.86887 3.10974 4.00191 3.31843 4.11652C 3.52713 4.23148 3.79061 4.33565 4.10905 4.42957C 4.42713 4.52348 4.79496 4.62278 5.21252 4.72696C 5.75496 4.87322 6.248 5.02974 6.69165 5.19652C 7.13513 5.36348 7.51061 5.57217 7.81843 5.82261C 8.12626 6.07304 8.36365 6.37322 8.53078 6.72261C 8.69757 7.07235 8.78104 7.50278 8.78104 8.01391C 8.78104 8.6087 8.6687 9.11739 8.44452 9.54C 8.22 9.96261 7.91757 10.3045 7.5367 10.5652C 7.15565 10.8261 6.71739 11.0167 6.22174 11.1365C 5.72591 11.2564 5.20678 11.3165 4.66435 11.3165C 3.82939 11.3165 3.00522 11.1913 2.19131 10.9409C 1.37739 10.6904 0.646782 10.3358 -1.69837e-07 9.87653L 0.954608 8.01391C 1.04852 8.10783 1.21809 8.23061 1.4633 8.38174C 1.70835 8.53305 1.99791 8.68452 2.332 8.83565C 2.66591 8.98713 3.03652 9.11496 3.44348 9.21913C 3.85044 9.32348 4.26765 9.37566 4.69565 9.37566C 5.88522 9.37566 6.48 8.99496 6.48 8.23304C 6.48 7.99304 6.41183 7.78957 6.27652 7.62261C 6.1407 7.45583 5.94765 7.30957 5.69739 7.18435C 5.44696 7.05913 5.144 6.94452 4.78939 6.84C 4.43461 6.73583 4.03826 6.62087 3.59983 6.49565C 3.06765 6.34974 2.60591 6.19044 2.21461 6.01826C 1.8233 5.84609 1.49704 5.64261 1.23635 5.40783C 0.975477 5.17305 0.779825 4.90174 0.64939 4.59391C 0.518781 4.28626 0.453738 3.91843 0.453738 3.49043C 0.453738 2.92696 0.558086 2.42609 0.766782 1.98783C 0.975478 1.54957 1.26504 1.18435 1.63548 0.892173C 2.00574 0.600173 2.43617 0.378434 2.92678 0.226956C 3.41722 0.0758256 3.94435 7.64266e-07 4.50783 7.64266e-07C 5.29044 7.64266e-07 6.01043 0.122782 6.66783 0.367825C 7.32504 0.613043 7.89896 0.90261 8.38939 1.23652L 7.4353 2.98957Z"/>
<path id="path10_fill" d="M 7.71652 9.21913L 7.71652 11.113L 1.06148e-06 11.113L 1.06148e-06 2.33526e-07L 7.57565 2.33526e-07L 7.57565 1.89391L 2.16 1.89391L 2.16 4.57044L 6.84 4.57044L 6.84 6.32348L 2.16 6.32348L 2.16 9.21913L 7.71652 9.21913Z"/>
<path id="path11_fill" d="M -6.36889e-07 11.113L -6.36889e-07 2.33526e-07L 4.03826 2.33526e-07C 4.94609 2.33526e-07 5.74174 0.146262 6.42539 0.438262C 7.1087 0.730436 7.68 1.12696 8.13913 1.62783C 8.59826 2.1287 8.94243 2.71565 9.17217 3.3887C 9.40139 4.06174 9.51635 4.77931 9.51635 5.54087C 9.51635 6.38609 9.38852 7.15061 9.13287 7.83391C 8.87704 8.51757 8.50922 9.10174 8.02939 9.58696C 7.54922 10.0722 6.97287 10.4478 6.29983 10.7139C 5.62678 10.98 4.87287 11.113 4.03809 11.113L -6.36889e-07 11.113ZM 7.34087 5.54087C 7.34087 5.0087 7.26765 4.51843 7.12174 4.06957C 6.97548 3.62104 6.76174 3.23496 6.48 2.91131C 6.19826 2.588 5.8513 2.33757 5.43913 2.16C 5.02696 1.98261 4.56 1.89391 4.03826 1.89391L 2.16 1.89391L 2.16 9.21913L 4.03826 9.21913C 4.57061 9.21913 5.04243 9.12522 5.45496 8.93739C 5.86696 8.74957 6.21148 8.49131 6.48782 8.16261C 6.76417 7.83392 6.97565 7.44522 7.12191 6.99652C 7.26765 6.548 7.34087 6.06278 7.34087 5.54087Z"/>
</defs>
</svg>
