<svg width="27" height="27" viewBox="0 0 27 27" version="1.1" xmlns="http://www.w3.org/2000/svg" xmlns:xlink="http://www.w3.org/1999/xlink" xmlns:figma="http://www.figma.com/figma/ns">
<title>placeholder</title>
<desc>Created using Figma</desc>
<g id="Canvas" transform="translate(-1662 -3140)" figma:type="canvas">
<g id="placeholder" figma:type="frame">
<g id="Group" figma:type="frame">
<g id="Vector" figma:type="vector">
<mask id="mask0_outline_ins">
<use xlink:href="#path0_fill" fill="white" transform="translate(1672.96 3145.4)"/>
</mask>
<g mask="url(#mask0_outline_ins)">
<use xlink:href="#path1_stroke_2x" transform="translate(1672.96 3145.4)" fill="#FFFFFF"/>
</g>
</g>
<g id="Vector" figma:type="vector">
<mask id="mask1_outline_ins">
<use xlink:href="#path2_fill" fill="white" transform="translate(1667.4 3140)"/>
</mask>
<g mask="url(#mask1_outline_ins)">
<use xlink:href="#path3_stroke_2x" transform="translate(1667.4 3140)" fill="#FFFFFF"/>
</g>
</g>
<g id="Vector" figma:type="vector">
<mask id="mask2_outline_ins">
<use xlink:href="#path4_fill" fill="white" transform="translate(1662 3165.78)"/>
</mask>
<g mask="url(#mask2_outline_ins)">
<use xlink:href="#path5_stroke_2x" transform="translate(1662 3165.78)" fill="#FFFFFF"/>
</g>
</g>
<g id="Vector" figma:type="vector">
<mask id="mask3_outline_ins">
<use xlink:href="#path6_fill" fill="white" transform="translate(1665.43 3163.4)"/>
</mask>
<g mask="url(#mask3_outline_ins)">
<use xlink:href="#path7_stroke_2x" transform="translate(1665.43 3163.4)" fill="#FFFFFF"/>
</g>
</g>
<g id="Vector" figma:type="vector">
<mask id="mask4_outline_ins">
<use xlink:href="#path8_fill" fill="white" transform="translate(1663.48 3164.04)"/>
</mask>
<g mask="url(#mask4_outline_ins)">
<use xlink:href="#path9_stroke_2x" transform="translate(1663.48 3164.04)" fill="#FFFFFF"/>
</g>
</g>
<g id="Vector" figma:type="vector">
<mask id="mask5_outline_ins">
<use xlink:href="#path10_fill" fill="white" transform="translate(1670.34 3163.4)"/>
</mask>
<g mask="url(#mask5_outline_ins)">
<use xlink:href="#path11_stroke_2x" transform="translate(1670.34 3163.4)" fill="#FFFFFF"/>
</g>
</g>
<g id="Vector" figma:type="vector">
<mask id="mask6_outline_ins">
<use xlink:href="#path12_fill" fill="white" transform="translate(1667.89 3163.4)"/>
</mask>
<g mask="url(#mask6_outline_ins)">
<use xlink:href="#path13_stroke_2x" transform="translate(1667.89 3163.4)" fill="#FFFFFF"/>
</g>
</g>
<g id="Vector" figma:type="vector">
<mask id="mask7_outline_ins">
<use xlink:href="#path14_fill" fill="white" transform="translate(1672.8 3163.4)"/>
</mask>
<g mask="url(#mask7_outline_ins)">
<use xlink:href="#path15_stroke_2x" transform="translate(1672.8 3163.4)" fill="#FFFFFF"/>
</g>
</g>
<g id="Vector" figma:type="vector">
<mask id="mask8_outline_ins">
<use xlink:href="#path16_fill" fill="white" transform="translate(1662 3161.15)"/>
</mask>
<g mask="url(#mask8_outline_ins)">
<use xlink:href="#path17_stroke_2x" transform="translate(1662 3161.15)" fill="#FFFFFF"/>
</g>
</g>
<g id="Vector" figma:type="vector">
<mask id="mask9_outline_ins">
<use xlink:href="#path18_fill" fill="white" transform="translate(1687.78 3160.7)"/>
</mask>
<g mask="url(#mask9_outline_ins)">
<use xlink:href="#path19_stroke_2x" transform="translate(1687.78 3160.7)" fill="#FFFFFF"/>
</g>
</g>
<g id="Vector" figma:type="vector">
<mask id="mask10_outline_ins">
<use xlink:href="#path20_fill" fill="white" transform="translate(1685.74 3162.38)"/>
</mask>
<g mask="url(#mask10_outline_ins)">
<use xlink:href="#path21_stroke_2x" transform="translate(1685.74 3162.38)" fill="#FFFFFF"/>
</g>
</g>
<g id="Vector" figma:type="vector">
<mask id="mask11_outline_ins">
<use xlink:href="#path22_fill" fill="white" transform="translate(1683 3163.4)"/>
</mask>
<g mask="url(#mask11_outline_ins)">
<use xlink:href="#path23_stroke_2x" transform="translate(1683 3163.4)" fill="#FFFFFF"/>
</g>
</g>
<g id="Vector" figma:type="vector">
<mask id="mask12_outline_ins">
<use xlink:href="#path24_fill" fill="white" transform="translate(1680.12 3163.4)"/>
</mask>
<g mask="url(#mask12_outline_ins)">
<use xlink:href="#path25_stroke_2x" transform="translate(1680.12 3163.4)" fill="#FFFFFF"/>
</g>
</g>
<g id="Vector" figma:type="vector">
<mask id="mask13_outline_ins">
<use xlink:href="#path14_fill" fill="white" transform="translate(1677.75 3163.4)"/>
</mask>
<g mask="url(#mask13_outline_ins)">
<use xlink:href="#path15_stroke_2x" transform="translate(1677.75 3163.4)" fill="#FFFFFF"/>
</g>
</g>
<g id="Vector" figma:type="vector">
<mask id="mask14_outline_ins">
<use xlink:href="#path26_fill" fill="white" transform="translate(1664.7 3163.51)"/>
</mask>
<g mask="url(#mask14_outline_ins)">
<use xlink:href="#path27_stroke_2x" transform="translate(1664.7 3163.51)" fill="#FFFFFF"/>
</g>
</g>
<g id="Vector" figma:type="vector">
<mask id="mask15_outline_ins">
<use xlink:href="#path28_fill" fill="white" transform="translate(1679.55 3159.8)"/>
</mask>
<g mask="url(#mask15_outline_ins)">
<use xlink:href="#path29_stroke_2x" transform="translate(1679.55 3159.8)" fill="#FFFFFF"/>
</g>
</g>
</g>
</g>
</g>
<defs>
<path id="path0_fill" d="M 3.14992 6.3C 4.88688 6.3 6.29984 4.88655 6.29984 3.15C 6.29984 1.41345 4.88688 0 3.14992 0C 1.41296 0 4.11977e-08 1.41345 4.11977e-08 3.15C 4.11977e-08 4.88655 1.41296 6.3 3.14992 6.3ZM 3.14992 0.9C 4.39054 0.9 5.39986 1.90935 5.39986 3.15C 5.39986 4.39065 4.39054 5.4 3.14992 5.4C 1.9093 5.4 0.899978 4.39065 0.899978 3.15C 0.899978 1.90935 1.9093 0.9 3.14992 0.9Z"/>
<path id="path1_stroke_2x" d="M 3.14992 6.8C 5.16308 6.8 6.79984 5.16263 6.79984 3.15L 5.79984 3.15C 5.79984 4.61047 4.61068 5.8 3.14992 5.8L 3.14992 6.8ZM 6.79984 3.15C 6.79984 1.13737 5.16308 -0.5 3.14992 -0.5L 3.14992 0.5C 4.61068 0.5 5.79984 1.68953 5.79984 3.15L 6.79984 3.15ZM 3.14992 -0.5C 1.13676 -0.5 -0.5 1.13737 -0.5 3.15L 0.5 3.15C 0.5 1.68953 1.68917 0.5 3.14992 0.5L 3.14992 -0.5ZM -0.5 3.15C -0.5 5.16263 1.13676 6.8 3.14992 6.8L 3.14992 5.8C 1.68917 5.8 0.5 4.61047 0.5 3.15L -0.5 3.15ZM 3.14992 1.4C 4.11439 1.4 4.89986 2.18548 4.89986 3.15L 5.89986 3.15C 5.89986 1.63322 4.66669 0.4 3.14992 0.4L 3.14992 1.4ZM 4.89986 3.15C 4.89986 4.11452 4.11439 4.9 3.14992 4.9L 3.14992 5.9C 4.66669 5.9 5.89986 4.66678 5.89986 3.15L 4.89986 3.15ZM 3.14992 4.9C 2.18546 4.9 1.39998 4.11452 1.39998 3.15L 0.399977 3.15C 0.399977 4.66678 1.63315 5.9 3.14992 5.9L 3.14992 4.9ZM 1.39998 3.15C 1.39998 2.18548 2.18546 1.4 3.14992 1.4L 3.14992 0.4C 1.63315 0.4 0.399977 1.63322 0.399977 3.15L 1.39998 3.15Z"/>
<path id="path2_fill" d="M 8.62964 24.6406L 15.5329 14.67C 18.1221 11.2176 17.7473 5.544 14.7315 2.5281C 13.1016 0.89775 10.9345 0 8.62964 0C 6.32479 0 4.15765 0.89775 2.52779 2.52765C -0.488486 5.54355 -0.863327 11.2181 1.71601 14.656L 8.62964 24.6406ZM 3.16407 3.16395C 4.62384 1.70415 6.56509 0.9 8.62964 0.9C 10.6942 0.9 12.635 1.70415 14.0952 3.16395C 16.8172 5.886 17.1524 11.0106 14.803 14.1435L 8.62964 23.0593L 2.44634 14.13C 0.106399 11.0106 0.44164 5.886 3.16407 3.16395Z"/>
<path id="path3_stroke_2x" d="M 8.62964 24.6406L 8.21856 24.9253L 8.62966 25.519L 9.04072 24.9253L 8.62964 24.6406ZM 15.5329 14.67L 15.1329 14.37L 15.1272 14.3776L 15.1218 14.3854L 15.5329 14.67ZM 14.7315 2.5281L 14.3779 2.8816L 14.3779 2.88165L 14.7315 2.5281ZM 2.52779 2.52765L 2.88132 2.88123L 2.88135 2.8812L 2.52779 2.52765ZM 1.71601 14.656L 2.12708 14.3714L 2.12167 14.3636L 2.11596 14.356L 1.71601 14.656ZM 3.16407 3.16395L 3.5176 3.51753L 3.51763 3.5175L 3.16407 3.16395ZM 14.0952 3.16395L 14.4488 2.8104L 14.4487 2.81035L 14.0952 3.16395ZM 14.803 14.1435L 14.403 13.8435L 14.3973 13.8511L 14.392 13.8589L 14.803 14.1435ZM 8.62964 23.0593L 8.21857 23.344L 8.62965 23.9376L 9.04071 23.344L 8.62964 23.0593ZM 2.44634 14.13L 2.85741 13.8454L 2.85201 13.8376L 2.84632 13.83L 2.44634 14.13ZM 9.04072 24.9253L 15.944 14.9546L 15.1218 14.3854L 8.21855 24.356L 9.04072 24.9253ZM 15.9329 14.97C 18.6688 11.3221 18.2799 5.36952 15.085 2.17455L 14.3779 2.88165C 17.2147 5.71848 17.5755 11.1131 15.1329 14.37L 15.9329 14.97ZM 15.0851 2.1746C 13.3615 0.450449 11.0671 -0.5 8.62964 -0.5L 8.62964 0.5C 10.8018 0.5 12.8418 1.34505 14.3779 2.8816L 15.0851 2.1746ZM 8.62964 -0.5C 6.19217 -0.5 3.89785 0.450441 2.17423 2.1741L 2.88135 2.8812C 4.41745 1.34506 6.45742 0.5 8.62964 0.5L 8.62964 -0.5ZM 2.17426 2.17407C -1.02071 5.36864 -1.41032 11.3221 1.31606 14.9561L 2.11596 14.356C -0.316331 11.114 0.0437377 5.71846 2.88132 2.88123L 2.17426 2.17407ZM 1.30494 14.9407L 8.21856 24.9253L 9.04071 24.356L 2.12708 14.3714L 1.30494 14.9407ZM 3.51763 3.5175C 4.88363 2.15147 6.6977 1.4 8.62964 1.4L 8.62964 0.4C 6.43247 0.4 4.36404 1.25683 2.81051 2.8104L 3.51763 3.5175ZM 8.62964 1.4C 10.5615 1.4 12.3752 2.15144 13.7417 3.51755L 14.4487 2.81035C 12.8948 1.25686 10.8268 0.4 8.62964 0.4L 8.62964 1.4ZM 13.7416 3.5175C 16.2838 6.0597 16.6065 10.9052 14.403 13.8435L 15.203 14.4435C 17.6984 11.116 17.3506 5.7123 14.4488 2.8104L 13.7416 3.5175ZM 14.392 13.8589L 8.21856 22.7747L 9.04071 23.344L 15.2141 14.4281L 14.392 13.8589ZM 9.0407 22.7747L 2.85741 13.8454L 2.03528 14.4146L 8.21857 23.344L 9.0407 22.7747ZM 2.84632 13.83C 0.65273 10.9057 0.974629 6.06014 3.5176 3.51753L 2.81054 2.81037C -0.0913482 5.71186 -0.439932 11.1155 2.04636 14.43L 2.84632 13.83Z"/>
<path id="path4_fill" d="M 0.450101 0.131962L 0.131959 0.450112C -0.0439864 0.626062 -0.0439864 0.910463 0.131959 1.08641C 0.219707 1.17416 0.334904 1.21826 0.450101 1.21826C 0.565298 1.21826 0.680495 1.17416 0.768243 1.08641L 1.08639 0.768263C 1.26233 0.592313 1.26233 0.307912 1.08639 0.131962C 0.91044 -0.0439882 0.626047 -0.0439882 0.450101 0.131962Z"/>
<path id="path5_stroke_2x" d="M 0.450101 0.131962L 0.0965434 -0.221587L 0.0965432 -0.221587L 0.450101 0.131962ZM 0.131959 0.450112L 0.485517 0.803661L 0.485517 0.803661L 0.131959 0.450112ZM 0.131959 1.08641L -0.221599 1.43996L 0.131959 1.08641ZM 0.768243 1.08641L 1.1218 1.43996L 1.1218 1.43996L 0.768243 1.08641ZM 1.08639 0.768263L 0.732827 0.414714L 0.732827 0.414714L 1.08639 0.768263ZM 0.0965432 -0.221587L -0.221599 0.0965634L 0.485517 0.803661L 0.803659 0.485511L 0.0965432 -0.221587ZM -0.221599 0.0965632C -0.5928 0.467774 -0.5928 1.06875 -0.221599 1.43996L 0.485517 0.732864C 0.504828 0.752175 0.504828 0.78435 0.485517 0.803661L -0.221599 0.0965632ZM -0.221599 1.43996C -0.0365357 1.62503 0.207395 1.71826 0.450101 1.71826L 0.450101 0.718263C 0.462413 0.718263 0.47595 0.723296 0.485517 0.732864L -0.221599 1.43996ZM 0.450101 1.71826C 0.692807 1.71826 0.936738 1.62503 1.1218 1.43996L 0.414685 0.732864C 0.424253 0.723296 0.437789 0.718263 0.450101 0.718263L 0.450101 1.71826ZM 1.1218 1.43996L 1.43994 1.12181L 0.732827 0.414714L 0.414685 0.732864L 1.1218 1.43996ZM 1.43994 1.12181C 1.81114 0.7506 1.81114 0.149624 1.43994 -0.221587L 0.732827 0.485511C 0.713517 0.4662 0.713517 0.434025 0.732827 0.414714L 1.43994 1.12181ZM 1.43994 -0.221587C 1.06873 -0.592805 0.467752 -0.592805 0.0965434 -0.221587L 0.803659 0.485511C 0.784341 0.504829 0.752145 0.504829 0.732827 0.485511L 1.43994 -0.221587Z"/>
<path id="path6_fill" d="M 0.449989 0C 0.201595 0 7.89623e-08 0.20115 7.89623e-08 0.45C 7.89623e-08 0.69885 0.201595 0.9 0.449989 0.9L 1.26897 0.9C 1.51736 0.9 1.71896 0.69885 1.71896 0.45C 1.71896 0.20115 1.51736 0 1.26897 0L 0.449989 0Z"/>
<path id="path7_stroke_2x" d="M 0.449989 -0.5C -0.0742335 -0.5 -0.5 -0.0753062 -0.5 0.45L 0.5 0.45C 0.5 0.477606 0.477423 0.5 0.449989 0.5L 0.449989 -0.5ZM -0.5 0.45C -0.5 0.975306 -0.0742335 1.4 0.449989 1.4L 0.449989 0.4C 0.477423 0.4 0.5 0.422394 0.5 0.45L -0.5 0.45ZM 0.449989 1.4L 1.26897 1.4L 1.26897 0.4L 0.449989 0.4L 0.449989 1.4ZM 1.26897 1.4C 1.79319 1.4 2.21896 0.975306 2.21896 0.45L 1.21896 0.45C 1.21896 0.422394 1.24153 0.4 1.26897 0.4L 1.26897 1.4ZM 2.21896 0.45C 2.21896 -0.0753062 1.79319 -0.5 1.26897 -0.5L 1.26897 0.5C 1.24153 0.5 1.21896 0.477606 1.21896 0.45L 2.21896 0.45ZM 1.26897 -0.5L 0.449989 -0.5L 0.449989 0.5L 1.26897 0.5L 1.26897 -0.5Z"/>
<path id="path8_fill" d="M 1.34738 0.131962C 1.17143 -0.0439882 0.88704 -0.0439882 0.711095 0.131962L 0.131959 0.711113C -0.0439865 0.887063 -0.0439865 1.17146 0.131959 1.34741C 0.219707 1.43516 0.334904 1.47926 0.450101 1.47926C 0.565298 1.47926 0.680495 1.43516 0.768243 1.34741L 1.34738 0.768263C 1.52332 0.592312 1.52332 0.307462 1.34738 0.131962Z"/>
<path id="path9_stroke_2x" d="M 1.34738 0.131962L 0.993821 0.485511L 0.994274 0.485963L 1.34738 0.131962ZM 0.711095 0.131962L 0.357537 -0.221587L 0.357537 -0.221587L 0.711095 0.131962ZM 0.131959 0.711113L 0.485517 1.06466L 0.485517 1.06466L 0.131959 0.711113ZM 0.131959 1.34741L -0.221599 1.70096L 0.131959 1.34741ZM 0.768243 1.34741L 0.414686 0.993863L 0.414685 0.993863L 0.768243 1.34741ZM 1.34738 0.768263L 1.70094 1.12181L 1.70094 1.12181L 1.34738 0.768263ZM 1.70094 -0.221587C 1.32973 -0.592805 0.728746 -0.592805 0.357537 -0.221587L 1.06465 0.485511C 1.04533 0.504829 1.01314 0.504829 0.993821 0.485511L 1.70094 -0.221587ZM 0.357537 -0.221587L -0.221599 0.357564L 0.485517 1.06466L 1.06465 0.48551L 0.357537 -0.221587ZM -0.221599 0.357564C -0.5928 0.728775 -0.5928 1.32975 -0.221599 1.70096L 0.485517 0.993863C 0.504828 1.01317 0.504828 1.04535 0.485517 1.06466L -0.221599 0.357564ZM -0.221599 1.70096C -0.0365391 1.88603 0.20739 1.97926 0.450101 1.97926L 0.450101 0.979263C 0.462418 0.979263 0.475953 0.984299 0.485517 0.993863L -0.221599 1.70096ZM 0.450101 1.97926C 0.692813 1.97926 0.936742 1.88602 1.1218 1.70096L 0.414685 0.993863C 0.424249 0.984299 0.437784 0.979263 0.450101 0.979263L 0.450101 1.97926ZM 1.1218 1.70096L 1.70094 1.12181L 0.993821 0.414713L 0.414686 0.993863L 1.1218 1.70096ZM 1.70094 1.12181C 2.07189 0.750851 2.07254 0.149074 1.70048 -0.22204L 0.994274 0.485963C 0.974109 0.465849 0.974761 0.433774 0.993821 0.414714L 1.70094 1.12181Z"/>
<path id="path10_fill" d="M 0.449989 0C 0.201595 0 -1.99122e-07 0.20115 -1.99122e-07 0.45C -1.99122e-07 0.69885 0.201595 0.9 0.449989 0.9L 1.26897 0.9C 1.51736 0.9 1.71896 0.69885 1.71896 0.45C 1.71896 0.20115 1.51736 0 1.26897 0L 0.449989 0Z"/>
<path id="path11_stroke_2x" d="M 0.449989 -0.5C -0.0742337 -0.5 -0.5 -0.0753062 -0.5 0.45L 0.5 0.45C 0.5 0.477606 0.477423 0.5 0.449989 0.5L 0.449989 -0.5ZM -0.5 0.45C -0.5 0.975306 -0.0742337 1.4 0.449989 1.4L 0.449989 0.4C 0.477423 0.4 0.5 0.422394 0.5 0.45L -0.5 0.45ZM 0.449989 1.4L 1.26897 1.4L 1.26897 0.4L 0.449989 0.4L 0.449989 1.4ZM 1.26897 1.4C 1.79319 1.4 2.21896 0.975306 2.21896 0.45L 1.21896 0.45C 1.21896 0.422394 1.24153 0.4 1.26897 0.4L 1.26897 1.4ZM 2.21896 0.45C 2.21896 -0.0753062 1.79319 -0.5 1.26897 -0.5L 1.26897 0.5C 1.24153 0.5 1.21896 0.477606 1.21896 0.45L 2.21896 0.45ZM 1.26897 -0.5L 0.449989 -0.5L 0.449989 0.5L 1.26897 0.5L 1.26897 -0.5Z"/>
<path id="path12_fill" d="M 0.449989 0C 0.201595 0 -1.51058e-07 0.20115 -1.51058e-07 0.45C -1.51058e-07 0.69885 0.201595 0.9 0.449989 0.9L 1.26942 0.9C 1.51781 0.9 1.71941 0.69885 1.71941 0.45C 1.71941 0.20115 1.51781 0 1.26942 0L 0.449989 0Z"/>
<path id="path13_stroke_2x" d="M 0.449989 -0.5C -0.0742337 -0.5 -0.5 -0.0753061 -0.5 0.45L 0.5 0.45C 0.5 0.477606 0.477423 0.5 0.449989 0.5L 0.449989 -0.5ZM -0.5 0.45C -0.5 0.975306 -0.0742337 1.4 0.449989 1.4L 0.449989 0.4C 0.477423 0.4 0.5 0.422394 0.5 0.45L -0.5 0.45ZM 0.449989 1.4L 1.26942 1.4L 1.26942 0.4L 0.449989 0.4L 0.449989 1.4ZM 1.26942 1.4C 1.79364 1.4 2.21941 0.975307 2.21941 0.45L 1.21941 0.45C 1.21941 0.422393 1.24198 0.4 1.26942 0.4L 1.26942 1.4ZM 2.21941 0.45C 2.21941 -0.0753068 1.79364 -0.5 1.26942 -0.5L 1.26942 0.5C 1.24198 0.5 1.21941 0.477607 1.21941 0.45L 2.21941 0.45ZM 1.26942 -0.5L 0.449989 -0.5L 0.449989 0.5L 1.26942 0.5L 1.26942 -0.5Z"/>
<path id="path14_fill" d="M 0.449989 0C 0.201595 0 0 0.20115 0 0.45C 0 0.69885 0.201595 0.9 0.449989 0.9L 0.899977 0.9C 1.14837 0.9 1.34997 0.69885 1.34997 0.45C 1.34997 0.20115 1.14837 0 0.899977 0L 0.449989 0Z"/>
<path id="path15_stroke_2x" d="M 0.449989 -0.5C -0.0742335 -0.5 -0.5 -0.0753062 -0.5 0.45L 0.5 0.45C 0.5 0.477606 0.477423 0.5 0.449989 0.5L 0.449989 -0.5ZM -0.5 0.45C -0.5 0.975306 -0.0742335 1.4 0.449989 1.4L 0.449989 0.4C 0.477423 0.4 0.5 0.422394 0.5 0.45L -0.5 0.45ZM 0.449989 1.4L 0.899977 1.4L 0.899977 0.4L 0.449989 0.4L 0.449989 1.4ZM 0.899977 1.4C 1.4242 1.4 1.84997 0.975306 1.84997 0.45L 0.849966 0.45C 0.849966 0.422394 0.872543 0.4 0.899977 0.4L 0.899977 1.4ZM 1.84997 0.45C 1.84997 -0.0753062 1.4242 -0.5 0.899977 -0.5L 0.899977 0.5C 0.872543 0.5 0.849966 0.477606 0.849966 0.45L 1.84997 0.45ZM 0.899977 -0.5L 0.449989 -0.5L 0.449989 0.5L 0.899977 0.5L 0.899977 -0.5Z"/>
<path id="path16_fill" d="M 0.450551 3.0411C 0.565748 3.0411 0.680945 2.997 0.768693 2.90925L 2.51285 1.16505C 2.5556 1.1223 2.6024 1.08405 2.6699 1.04265L 2.75674 0.995851C 2.77249 0.9864 2.78779 0.976949 2.80444 0.969749L 2.97274 0.918C 3.03169 0.90675 3.09108 0.9 3.15048 0.9L 9.90031 0.9C 10.1487 0.9 10.3503 0.69885 10.3503 0.45C 10.3503 0.20115 10.1487 0 9.90031 0L 3.15048 0C 3.03529 0 2.91694 0.0116994 2.79454 0.0355494C 2.75134 0.0449994 2.70994 0.0576004 2.669 0.0711004L 2.61005 0.0886494C 2.55965 0.102149 2.50925 0.117451 2.46335 0.136351C 2.4098 0.158401 2.3594 0.185401 2.30945 0.214201L 2.26671 0.2376C 2.22846 0.25695 2.19066 0.27675 2.15106 0.3033C 2.05161 0.36945 1.95936 0.4455 1.87612 0.52875L 0.131959 2.27295C -0.0439864 2.4489 -0.0439864 2.7333 0.131959 2.90925C 0.220157 2.997 0.335354 3.0411 0.450551 3.0411Z"/>
<path id="path17_stroke_2x" d="M 0.768693 2.90925L 0.415135 2.5557L 0.768693 2.90925ZM 2.51285 1.16505L 2.86641 1.5186L 2.51285 1.16505ZM 2.6699 1.04265L 2.4327 0.602491L 2.4204 0.609124L 2.40848 0.616435L 2.6699 1.04265ZM 2.75674 0.995851L 2.99393 1.43601L 3.0041 1.43053L 3.014 1.42459L 2.75674 0.995851ZM 2.80444 0.969749L 2.65749 0.491833L 2.63121 0.499912L 2.60598 0.510823L 2.80444 0.969749ZM 2.97274 0.918L 2.87901 0.426864L 2.85203 0.432012L 2.82578 0.440084L 2.97274 0.918ZM 2.79454 0.0355494L 2.69889 -0.455349L 2.68769 -0.4529L 2.79454 0.0355494ZM 2.669 0.0711004L 2.81166 0.550316L 2.81863 0.548239L 2.82555 0.54596L 2.669 0.0711004ZM 2.61005 0.0886494L 2.73947 0.571807L 2.75271 0.567865L 2.61005 0.0886494ZM 2.46335 0.136351L 2.65373 0.598688L 2.46335 0.136351ZM 2.30945 0.214201L 2.54958 0.652905L 2.55921 0.647356L 2.30945 0.214201ZM 2.26671 0.2376L 2.49241 0.683757L 2.49966 0.680093L 2.50678 0.676196L 2.26671 0.2376ZM 2.15106 0.3033L 2.42798 0.719614L 2.4295 0.718594L 2.15106 0.3033ZM 1.87612 0.52875L 2.22967 0.882299L 2.22967 0.882299L 1.87612 0.52875ZM 0.131959 2.27295L -0.221599 1.9194L -0.221599 1.9194L 0.131959 2.27295ZM 0.131959 2.90925L -0.2216 3.2628L -0.220693 3.2637L 0.131959 2.90925ZM 0.450551 3.5411C 0.693257 3.5411 0.937188 3.44787 1.12225 3.2628L 0.415135 2.5557C 0.424703 2.54613 0.438239 2.5411 0.450551 2.5411L 0.450551 3.5411ZM 1.12225 3.2628L 2.86641 1.5186L 2.15929 0.811501L 0.415135 2.5557L 1.12225 3.2628ZM 2.86641 1.5186C 2.89101 1.49311 2.89198 1.49166 2.93131 1.46887L 2.40848 0.616435C 2.31282 0.676443 2.22019 0.75149 2.15929 0.811501L 2.86641 1.5186ZM 2.90709 1.48281L 2.99393 1.43601L 2.51955 0.555691L 2.4327 0.602491L 2.90709 1.48281ZM 3.014 1.42459C 3.01862 1.42182 3.02179 1.4199 3.02428 1.41842C 3.02676 1.41694 3.02633 1.41723 3.02599 1.4174C 3.02467 1.41815 3.01613 1.42296 3.0029 1.42868L 2.60598 0.510823C 2.55657 0.533627 2.51247 0.559329 2.49949 0.567107L 3.014 1.42459ZM 2.9514 1.44767L 3.11969 1.39592L 2.82578 0.440084L 2.65749 0.491833L 2.9514 1.44767ZM 3.06647 1.40914C 3.10683 1.40107 3.11936 1.3992 3.15048 1.4L 3.15048 0.4C 3.06281 0.4008 2.95654 0.41243 2.87901 0.426864L 3.06647 1.40914ZM 3.15048 1.4L 9.90031 1.4L 9.90031 0.4L 3.15048 0.4L 3.15048 1.4ZM 9.90031 1.4C 10.4245 1.4 10.8503 0.975306 10.8503 0.45L 9.8503 0.45C 9.8503 0.422394 9.87288 0.4 9.90031 0.4L 9.90031 1.4ZM 10.8503 0.45C 10.8503 -0.0753062 10.4245 -0.5 9.90031 -0.5L 9.90031 0.5C 9.87288 0.5 9.8503 0.477606 9.8503 0.45L 10.8503 0.45ZM 9.90031 -0.5L 3.15048 -0.5L 3.15048 0.5L 9.90031 0.5L 9.90031 -0.5ZM 3.15048 -0.5C 3.01066 -0.499393 2.84445 -0.483018 2.69891 -0.45522L 2.89017 0.526319C 2.98943 0.506417 3.05991 0.499393 3.15048 0.5L 3.15048 -0.5ZM 2.68769 -0.4529C 2.62502 -0.43878 2.55886 -0.419027 2.51244 -0.403759L 2.82555 0.54596C 2.86103 0.534228 2.87767 0.528778 2.90139 0.523999L 2.68769 -0.4529ZM 2.52633 -0.408115L 2.46738 -0.390566L 2.75271 0.567865L 2.81166 0.550316L 2.52633 -0.408115ZM 2.48068 -0.394324C 2.42232 -0.378621 2.34124 -0.353477 2.27297 -0.325987L 2.65373 0.598688C 2.67726 0.588378 2.69698 0.582919 2.73942 0.571623L 2.48068 -0.394324ZM 2.27297 -0.325987C 2.19628 -0.293715 2.11644 -0.251598 2.0597 -0.218954L 2.55921 0.647356C 2.60237 0.6224 2.62332 0.610517 2.65373 0.598688L 2.27297 -0.325987ZM 2.06938 -0.224395L 2.02664 -0.200996L 2.50678 0.676196L 2.54952 0.652797L 2.06938 -0.224395ZM 2.041 -0.208557C 1.99959 -0.187596 1.93506 -0.152982 1.87262 -0.111995L 2.4295 0.718594C 2.44626 0.706482 2.45732 0.701496 2.49241 0.683757L 2.041 -0.208557ZM 1.87414 -0.113012C 1.75373 -0.0321321 1.62317 0.0754 1.52256 0.175201L 2.22967 0.882299C 2.29556 0.815599 2.34949 0.771032 2.42798 0.719611L 1.87414 -0.113012ZM 1.52256 0.175201L -0.221599 1.9194L 0.485517 2.6265L 2.22967 0.882299L 1.52256 0.175201ZM -0.221599 1.9194C -0.5928 2.29061 -0.5928 2.89159 -0.221599 3.2628L 0.485517 2.5557C 0.504828 2.57501 0.504828 2.60719 0.485517 2.6265L -0.221599 1.9194ZM -0.220693 3.2637C -0.0357093 3.44775 0.207614 3.5411 0.450551 3.5411L 0.450551 2.5411C 0.463095 2.5411 0.476023 2.54625 0.484612 2.5548L -0.220693 3.2637Z"/>
<path id="path18_fill" d="M 0.450101 1.21826C 0.565298 1.21826 0.680495 1.17416 0.768243 1.08641L 1.08639 0.768263C 1.26233 0.592313 1.26233 0.307912 1.08639 0.131962C 0.91044 -0.0439878 0.626046 -0.0439878 0.450101 0.131962L 0.131959 0.450112C -0.0439871 0.626063 -0.0439871 0.910463 0.131959 1.08641C 0.219706 1.17416 0.334904 1.21826 0.450101 1.21826Z"/>
<path id="path19_stroke_2x" d="M 0.768243 1.08641L 1.1218 1.43996L 0.768243 1.08641ZM 0.450101 0.131962L 0.803659 0.485511L 0.803659 0.485511L 0.450101 0.131962ZM 0.131959 0.450112L -0.221599 0.0965635L -0.221599 0.0965635L 0.131959 0.450112ZM 0.131959 1.08641L -0.221599 1.43996L 0.131959 1.08641ZM 0.450101 1.71826C 0.692807 1.71826 0.936738 1.62503 1.1218 1.43996L 0.414685 0.732864C 0.424253 0.723296 0.437789 0.718263 0.450101 0.718263L 0.450101 1.71826ZM 1.1218 1.43996L 1.43994 1.12181L 0.732828 0.414714L 0.414685 0.732864L 1.1218 1.43996ZM 1.43994 1.12181C 1.81115 0.750601 1.81115 0.149624 1.43994 -0.221587L 0.732828 0.485511C 0.713517 0.4662 0.713517 0.434025 0.732828 0.414714L 1.43994 1.12181ZM 1.43994 -0.221587C 1.06873 -0.592805 0.467752 -0.592805 0.0965431 -0.221587L 0.803659 0.485511C 0.784341 0.504829 0.752145 0.504829 0.732828 0.485511L 1.43994 -0.221587ZM 0.0965431 -0.221587L -0.221599 0.0965635L 0.485516 0.803661L 0.803659 0.485511L 0.0965431 -0.221587ZM -0.221599 0.0965635C -0.592801 0.467775 -0.592801 1.06875 -0.221599 1.43996L 0.485516 0.732864C 0.504827 0.752175 0.504827 0.78435 0.485516 0.803661L -0.221599 0.0965635ZM -0.221599 1.43996C -0.0365361 1.62503 0.207395 1.71826 0.450101 1.71826L 0.450101 0.718263C 0.462412 0.718263 0.475949 0.723296 0.485516 0.732864L -0.221599 1.43996Z"/>
<path id="path20_fill" d="M 0.811443 0.131963L 0.131959 0.811462C -0.0439865 0.987412 -0.0439865 1.27181 0.131959 1.44776C 0.219707 1.53551 0.334904 1.57961 0.450101 1.57961C 0.565299 1.57961 0.680496 1.53551 0.768244 1.44776L 1.44773 0.768262C 1.62367 0.592312 1.62367 0.307913 1.44773 0.131963C 1.27178 -0.0439873 0.987389 -0.0439873 0.811443 0.131963Z"/>
<path id="path21_stroke_2x" d="M 0.811443 0.131963L 1.165 0.485512L 1.165 0.485512L 0.811443 0.131963ZM 0.131959 0.811462L -0.221598 0.457913L -0.221599 0.457913L 0.131959 0.811462ZM 0.131959 1.44776L -0.221599 1.80131L 0.131959 1.44776ZM 0.768244 1.44776L 1.1218 1.80131L 1.1218 1.80131L 0.768244 1.44776ZM 1.44773 0.768262L 1.09417 0.414713L 1.09417 0.414713L 1.44773 0.768262ZM 0.457886 -0.221587L -0.221598 0.457913L 0.485516 1.16501L 1.165 0.485512L 0.457886 -0.221587ZM -0.221599 0.457913C -0.592801 0.829124 -0.592801 1.4301 -0.221599 1.80131L 0.485517 1.09421C 0.504828 1.11352 0.504828 1.1457 0.485517 1.16501L -0.221599 0.457913ZM -0.221599 1.80131C -0.0365355 1.98638 0.207396 2.07961 0.450101 2.07961L 0.450101 1.07961C 0.462413 1.07961 0.475949 1.08465 0.485517 1.09421L -0.221599 1.80131ZM 0.450101 2.07961C 0.692807 2.07961 0.936738 1.98638 1.1218 1.80131L 0.414686 1.09421C 0.424254 1.08465 0.43779 1.07961 0.450101 1.07961L 0.450101 2.07961ZM 1.1218 1.80131L 1.80128 1.12181L 1.09417 0.414713L 0.414686 1.09421L 1.1218 1.80131ZM 1.80128 1.12181C 2.17249 0.750599 2.17249 0.149625 1.80128 -0.221586L 1.09417 0.485512C 1.07486 0.466201 1.07486 0.434024 1.09417 0.414713L 1.80128 1.12181ZM 1.80128 -0.221586C 1.43008 -0.592804 0.829094 -0.592804 0.457885 -0.221586L 1.165 0.485512C 1.14568 0.50483 1.11349 0.50483 1.09417 0.485512L 1.80128 -0.221586Z"/>
<path id="path22_fill" d="M 0.449988 0C 0.201145 0 -3.43314e-07 0.20115 -3.43314e-07 0.45C -3.43314e-07 0.69885 0.201145 0.9 0.449988 0.9L 1.41072 0.9C 1.65956 0.9 1.8607 0.69885 1.8607 0.45C 1.8607 0.20115 1.65956 0 1.41072 0L 0.449988 0Z"/>
<path id="path23_stroke_2x" d="M 0.449988 -0.5C -0.0750096 -0.5 -0.5 -0.0749806 -0.5 0.45L 0.5 0.45C 0.5 0.477281 0.477299 0.5 0.449988 0.5L 0.449988 -0.5ZM -0.5 0.45C -0.5 0.974981 -0.0750096 1.4 0.449988 1.4L 0.449988 0.4C 0.477299 0.4 0.5 0.422719 0.5 0.45L -0.5 0.45ZM 0.449988 1.4L 1.41072 1.4L 1.41072 0.4L 0.449988 0.4L 0.449988 1.4ZM 1.41072 1.4C 1.93571 1.4 2.3607 0.97498 2.3607 0.45L 1.3607 0.45C 1.3607 0.42272 1.3834 0.4 1.41072 0.4L 1.41072 1.4ZM 2.3607 0.45C 2.3607 -0.0749804 1.93571 -0.5 1.41072 -0.5L 1.41072 0.5C 1.3834 0.5 1.3607 0.47728 1.3607 0.45L 2.3607 0.45ZM 1.41072 -0.5L 0.449988 -0.5L 0.449988 0.5L 1.41072 0.5L 1.41072 -0.5Z"/>
<path id="path24_fill" d="M 0.449989 0C 0.201595 0 2.05988e-07 0.20115 2.05988e-07 0.45C 2.05988e-07 0.69885 0.201595 0.9 0.449989 0.9L 1.41071 0.9C 1.65911 0.9 1.8607 0.69885 1.8607 0.45C 1.8607 0.20115 1.65911 0 1.41071 0L 0.449989 0Z"/>
<path id="path25_stroke_2x" d="M 0.449989 -0.5C -0.0742333 -0.5 -0.5 -0.0753062 -0.5 0.45L 0.5 0.45C 0.5 0.477606 0.477424 0.5 0.449989 0.5L 0.449989 -0.5ZM -0.5 0.45C -0.5 0.975306 -0.0742333 1.4 0.449989 1.4L 0.449989 0.4C 0.477424 0.4 0.5 0.422394 0.5 0.45L -0.5 0.45ZM 0.449989 1.4L 1.41071 1.4L 1.41071 0.4L 0.449989 0.4L 0.449989 1.4ZM 1.41071 1.4C 1.93494 1.4 2.3607 0.975306 2.3607 0.45L 1.3607 0.45C 1.3607 0.422394 1.38328 0.4 1.41071 0.4L 1.41071 1.4ZM 2.3607 0.45C 2.3607 -0.0753062 1.93494 -0.5 1.41071 -0.5L 1.41071 0.5C 1.38328 0.5 1.3607 0.477606 1.3607 0.45L 2.3607 0.45ZM 1.41071 -0.5L 0.449989 -0.5L 0.449989 0.5L 1.41071 0.5L 1.41071 -0.5Z"/>
<path id="path26_fill" d="M 23.5314 0.131794L 21.7872 1.87599C 21.7449 1.91829 21.6986 1.95609 21.6311 1.99794L 21.5465 2.04384C 21.5285 2.05374 21.5109 2.06499 21.4929 2.07219C 21.479 2.07804 21.4641 2.08119 21.4493 2.08524L 21.3242 2.12304C 21.267 2.13474 21.2085 2.14104 21.1496 2.14104L 0.85059 2.14104L 0.167958 2.69049C -0.0255375 2.84664 -0.0565867 3.13014 0.0995594 3.32319C 0.188207 3.43344 0.318704 3.49104 0.4501 3.49104C 0.549098 3.49104 0.648995 3.45864 0.731793 3.39159L 1.16783 3.04104L 21.1496 3.04104C 21.2666 3.04104 21.3854 3.02934 21.5001 3.00594C 21.546 2.99694 21.5892 2.98389 21.6329 2.96949L 21.6891 2.95284C 21.7395 2.93889 21.7895 2.92404 21.8399 2.90289C 21.8925 2.88084 21.942 2.85429 21.9915 2.82594L 22.0361 2.80164C 22.0748 2.78229 22.1126 2.76204 22.1472 2.73864C 22.2467 2.67249 22.3398 2.59644 22.4235 2.51229L 24.1677 0.768094C 24.3436 0.592144 24.3436 0.307744 24.1677 0.131794C 23.9917 -0.0441563 23.7073 -0.0437063 23.5314 0.131794Z"/>
<path id="path27_stroke_2x" d="M 23.5314 0.131794L 23.1783 -0.222208L 23.1778 -0.221755L 23.5314 0.131794ZM 21.7872 1.87599L 21.4337 1.52244L 21.7872 1.87599ZM 21.6311 1.99794L 21.8695 2.43742L 21.8822 2.43052L 21.8945 2.42289L 21.6311 1.99794ZM 21.5465 2.04384L 21.308 1.60436L 21.3055 1.60574L 21.5465 2.04384ZM 21.4929 2.07219L 21.3072 1.60789L 21.2996 1.6111L 21.4929 2.07219ZM 21.4493 2.08524L 21.3177 1.60268L 21.3046 1.60662L 21.4493 2.08524ZM 21.3242 2.12304L 21.4245 2.61288L 21.4469 2.60829L 21.4688 2.60167L 21.3242 2.12304ZM 0.85059 2.14104L 0.85059 1.64104L 0.674363 1.64104L 0.537081 1.75154L 0.85059 2.14104ZM 0.167958 2.69049L -0.145552 2.30099L -0.146047 2.30139L 0.167958 2.69049ZM 0.0995594 3.32319L 0.489222 3.00988L 0.488312 3.00876L 0.0995594 3.32319ZM 0.731793 3.39159L 0.418508 3.00191L 0.417129 3.00302L 0.731793 3.39159ZM 1.16783 3.04104L 1.16783 2.54104L 0.991768 2.54104L 0.85455 2.65136L 1.16783 3.04104ZM 21.5001 3.00594L 21.4039 2.51527L 21.4002 2.51603L 21.5001 3.00594ZM 21.6329 2.96949L 21.491 2.49006L 21.4836 2.49225L 21.4762 2.49467L 21.6329 2.96949ZM 21.6891 2.95284L 21.5557 2.47089L 21.5472 2.47341L 21.6891 2.95284ZM 21.8399 2.90289L 21.6467 2.44171L 21.6464 2.44185L 21.8399 2.90289ZM 21.9915 2.82594L 21.752 2.3869L 21.743 2.39207L 21.9915 2.82594ZM 22.0361 2.80164L 21.8124 2.35443L 21.8045 2.35842L 21.7966 2.3627L 22.0361 2.80164ZM 22.1472 2.73864L 21.8703 2.32232L 21.8674 2.32428L 22.1472 2.73864ZM 22.4235 2.51229L 22.0699 2.15874L 22.069 2.15969L 22.4235 2.51229ZM 24.1677 0.768094L 24.5212 1.12164L 24.1677 0.768094ZM 23.1778 -0.221755L 21.4337 1.52244L 22.1408 2.22954L 23.8849 0.485343L 23.1778 -0.221755ZM 21.4337 1.52244C 21.4097 1.5473 21.4082 1.54903 21.3676 1.573L 21.8945 2.42289C 21.9889 2.36315 22.0801 2.28928 22.1408 2.22954L 21.4337 1.52244ZM 21.3926 1.55846L 21.308 1.60437L 21.7849 2.48332L 21.8695 2.43742L 21.3926 1.55846ZM 21.3055 1.60574C 21.2965 1.61068 21.2884 1.61532 21.2841 1.61782C 21.2785 1.62102 21.2773 1.62169 21.2764 1.62222C 21.2759 1.62249 21.2786 1.62096 21.2833 1.61863C 21.2881 1.61626 21.2963 1.61234 21.3072 1.60796L 21.6786 2.53643C 21.717 2.52108 21.7475 2.50446 21.763 2.49585C 21.7781 2.48738 21.7891 2.48114 21.7874 2.48195L 21.3055 1.60574ZM 21.2996 1.6111C 21.3104 1.60655 21.3195 1.60334 21.3259 1.60123C 21.3322 1.59916 21.3366 1.59791 21.338 1.59753C 21.339 1.59725 21.3392 1.59721 21.3352 1.59824C 21.3325 1.59894 21.3253 1.6008 21.3177 1.60286L 21.5808 2.56762C 21.5803 2.56783 21.5898 2.56538 21.6049 2.56126C 21.6215 2.55666 21.6515 2.5479 21.6863 2.53329L 21.2996 1.6111ZM 21.3046 1.60662L 21.1796 1.64442L 21.4688 2.60167L 21.5939 2.56387L 21.3046 1.60662ZM 21.2239 1.6332C 21.19 1.64071 21.1817 1.64176 21.1496 1.64104L 21.1496 2.64104C 21.2353 2.64032 21.344 2.62878 21.4245 2.61288L 21.2239 1.6332ZM 21.1496 1.64104L 0.85059 1.64104L 0.85059 2.64104L 21.1496 2.64104L 21.1496 1.64104ZM 0.537081 1.75154L -0.145552 2.30099L 0.481467 3.08L 1.1641 2.53055L 0.537081 1.75154ZM -0.146047 2.30139C -0.552938 2.62975 -0.620482 3.22805 -0.289194 3.63763L 0.488312 3.00876C 0.507308 3.03224 0.501862 3.06354 0.481962 3.0796L -0.146047 2.30139ZM -0.290102 3.6365C -0.102637 3.86965 0.173596 3.99104 0.4501 3.99104L 0.4501 2.99104C 0.463811 2.99104 0.479051 2.99723 0.489221 3.00988L -0.290102 3.6365ZM 0.4501 3.99104C 0.627185 3.98491 0.887461 3.89811 1.04646 3.78016L 0.417129 3.00302C 0.427521 2.99461 0.440017 2.99104 0.4501 2.99104L 0.4501 3.99104ZM 1.04508 3.78128L 1.48112 3.43073L 0.85455 2.65136L 0.41851 3.00191L 1.04508 3.78128ZM 1.16783 3.54104L 21.1496 3.54104L 21.1496 2.54104L 1.16783 2.54104L 1.16783 3.54104ZM 21.1496 3.54104C 21.2911 3.54044 21.4599 3.52375 21.6 3.49586L 21.4002 2.51603C 21.3108 2.53493 21.242 2.54165 21.1496 2.54104L 21.1496 3.54104ZM 21.5963 3.4966C 21.6666 3.48219 21.7399 3.46066 21.7895 3.44432L 21.4762 2.49467C 21.4386 2.50712 21.4255 2.51169 21.4039 2.51529L 21.5963 3.4966ZM 21.7748 3.44893L 21.831 3.43228L 21.5472 2.47341L 21.491 2.49006L 21.7748 3.44893ZM 21.8225 3.43473C 21.8775 3.41949 21.9577 3.39489 22.0333 3.36394L 21.6464 2.44185C 21.6212 2.4532 21.6016 2.4583 21.5557 2.47096L 21.8225 3.43473ZM 22.033 3.36408C 22.1075 3.33226 22.1845 3.29158 22.24 3.25982L 21.743 2.39207C 21.6996 2.41701 21.6775 2.42943 21.6467 2.44171L 22.033 3.36408ZM 22.2309 3.26489L 22.2755 3.24059L 21.7966 2.3627L 21.7521 2.387L 22.2309 3.26489ZM 22.2597 3.24885C 22.3046 3.22631 22.3709 3.19015 22.427 3.153L 21.8674 2.32428C 21.8542 2.33394 21.8449 2.33828 21.8124 2.35443L 22.2597 3.24885ZM 22.4241 3.15495C 22.5436 3.07478 22.6756 2.96689 22.778 2.86489L 22.069 2.15969C 22.004 2.22599 21.9497 2.2702 21.8703 2.32233L 22.4241 3.15495ZM 22.7771 2.86584L 24.5212 1.12164L 23.8141 0.414545L 22.0699 2.15875L 22.7771 2.86584ZM 24.5212 1.12164C 24.8924 0.750432 24.8924 0.149456 24.5212 -0.221755L 23.8141 0.485343C 23.7948 0.466032 23.7948 0.433857 23.8141 0.414545L 24.5212 1.12164ZM 24.5212 -0.221755C 24.1494 -0.593548 23.5488 -0.591797 23.1783 -0.222208L 23.8845 0.485795C 23.8658 0.504385 23.834 0.505236 23.8141 0.485343L 24.5212 -0.221755Z"/>
<path id="path28_fill" d="M 0 1.80011C 0 2.04896 0.201595 2.25011 0.449989 2.25011L 5.92725 2.25011L 7.40906 0.768263C 7.58501 0.592313 7.58501 0.307912 7.40906 0.131962C 7.23312 -0.0439878 6.94873 -0.0439878 6.77278 0.131962L 5.55466 1.35011L 0.449989 1.35011C 0.201595 1.35011 0 1.55126 0 1.80011Z"/>
<path id="path29_stroke_2x" d="M 5.92725 2.25011L 5.92725 2.75011L 6.13436 2.75011L 6.28081 2.60366L 5.92725 2.25011ZM 7.40906 0.768263L 7.76262 1.12181L 7.40906 0.768263ZM 6.77278 0.131962L 6.41922 -0.221587L 6.41922 -0.221587L 6.77278 0.131962ZM 5.55466 1.35011L 5.55466 1.85011L 5.76177 1.85011L 5.90822 1.70366L 5.55466 1.35011ZM -0.5 1.80011C -0.5 2.32542 -0.0742334 2.75011 0.449989 2.75011L 0.449989 1.75011C 0.477423 1.75011 0.5 1.77251 0.5 1.80011L -0.5 1.80011ZM 0.449989 2.75011L 5.92725 2.75011L 5.92725 1.75011L 0.449989 1.75011L 0.449989 2.75011ZM 6.28081 2.60366L 7.76262 1.12181L 7.05551 0.414714L 5.57369 1.89656L 6.28081 2.60366ZM 7.76262 1.12181C 8.13382 0.750601 8.13382 0.149624 7.76262 -0.221587L 7.05551 0.485511C 7.0362 0.4662 7.0362 0.434025 7.05551 0.414714L 7.76262 1.12181ZM 7.76262 -0.221587C 7.39141 -0.592805 6.79043 -0.592805 6.41922 -0.221587L 7.12634 0.485511C 7.10702 0.504829 7.07482 0.504829 7.05551 0.485511L 7.76262 -0.221587ZM 6.41922 -0.221587L 5.2011 0.996564L 5.90822 1.70366L 7.12634 0.485511L 6.41922 -0.221587ZM 5.55466 0.850112L 0.449989 0.850112L 0.449989 1.85011L 5.55466 1.85011L 5.55466 0.850112ZM 0.449989 0.850112C -0.0742333 0.850112 -0.5 1.27481 -0.5 1.80011L 0.5 1.80011C 0.5 1.82772 0.477423 1.85011 0.449989 1.85011L 0.449989 0.850112Z"/>
</defs>
</svg>
