<svg width="48" height="18" viewBox="0 0 48 18" version="1.1" xmlns="http://www.w3.org/2000/svg" xmlns:xlink="http://www.w3.org/1999/xlink" xmlns:figma="http://www.figma.com/figma/ns">
<title>Group</title>
<desc>Created using Figma</desc>
<g id="Canvas" transform="translate(-1804 -3090)" figma:type="canvas">
<g id="Group" figma:type="frame">
<g id="Union" figma:type="vector-operation">
<mask id="mask0_outline_ins">
<use xlink:href="#path0_fill" fill="white" transform="translate(1804 3090)"/>
</mask>
<g mask="url(#mask0_outline_ins)">
<use xlink:href="#path1_stroke_2x" transform="translate(1804 3090)" fill="#F2F2F2"/>
</g>
</g>
<g id="Vector" figma:type="vector">
<use xlink:href="#path2_fill" transform="translate(1812.4 3095.37)" fill="#F2F2F2"/>
</g>
<g id="Vector" figma:type="vector">
<use xlink:href="#path3_fill" transform="translate(1821.76 3095.42)" fill="#F2F2F2"/>
</g>
<g id="Vector" figma:type="vector">
<use xlink:href="#path4_fill" transform="translate(1829.17 3095.42)" fill="#F2F2F2"/>
</g>
<g id="Vector" figma:type="vector">
<use xlink:href="#path5_fill" transform="translate(1836.35 3095.42)" fill="#F2F2F2"/>
</g>
</g>
</g>
<defs>
<path id="path0_fill" fill-rule="evenodd" d="M 23.9509 0L 0 0L 0 3.48389L 0 18L 23.9508 18L 47.9998 18L 48 3.48389L 48 0L 23.9509 0Z"/>
<path id="path1_stroke_2x" d="M 0 0L 0 -1L -1 -1L -1 0L 0 0ZM 0 18L -1 18L -1 19L 0 19L 0 18ZM 47.9998 18L 47.9998 19L 48.9997 19L 48.9998 18L 47.9998 18ZM 48 3.48389L 49 3.4839L 49 3.48389L 48 3.48389ZM 48 0L 49 0L 49 -1L 48 -1L 48 0ZM 0 1L 23.9509 1L 23.9509 -1L 0 -1L 0 1ZM 1 3.48389L 1 0L -1 0L -1 3.48389L 1 3.48389ZM -1 3.48389L -1 18L 1 18L 1 3.48389L -1 3.48389ZM 0 19L 23.9508 19L 23.9508 17L 0 17L 0 19ZM 47.9998 17L 23.9508 17L 23.9508 19L 47.9998 19L 47.9998 17ZM 47 3.48387L 46.9998 18L 48.9998 18L 49 3.4839L 47 3.48387ZM 47 0L 47 3.48389L 49 3.48389L 49 0L 47 0ZM 23.9509 1L 48 1L 48 -1L 23.9509 -1L 23.9509 1Z"/>
<path id="path2_fill" d="M 3.81305 7.52514C 3.23999 7.52514 2.72007 7.419 2.25367 7.20637C 1.78701 6.99385 1.38673 6.71166 1.05245 6.35979C 0.718161 6.00803 0.45906 5.60565 0.27551 5.15263C 0.0918367 4.69984 2.76526e-07 4.23649 2.76526e-07 3.76257C 2.76526e-07 3.26798 0.0972238 2.79417 0.292039 2.34115C 0.48661 1.88837 0.754895 1.48772 1.09653 1.13922C 1.43816 0.790837 1.84395 0.513986 2.31428 0.308322C 2.78436 0.10289 3.29509 5.10331e-07 3.84611 5.10331e-07C 4.4117 5.10331e-07 4.92782 0.109741 5.39447 0.329224C 5.86088 0.548708 6.25957 0.836126 6.59018 1.19148C 6.92079 1.54683 7.17794 1.95108 7.36161 2.40386C 7.54516 2.85688 7.63712 3.31675 7.63712 3.78347C 7.63712 4.2783 7.54148 4.75024 7.35059 5.19966C 7.15945 5.64908 6.89496 6.04624 6.55712 6.39114C 6.21916 6.73605 5.81496 7.01138 5.34488 7.21682C 4.87456 7.42236 4.36407 7.52514 3.81305 7.52514ZM 1.54285 3.76257C 1.54285 4.0832 1.59416 4.39326 1.69714 4.69276C 1.79999 4.99249 1.94877 5.25715 2.14346 5.48708C 2.33803 5.71702 2.57693 5.90178 2.85979 6.04101C 3.14252 6.18048 3.46407 6.25005 3.82407 6.25005C 4.19142 6.25005 4.51639 6.17863 4.79937 6.03579C 5.08211 5.89307 5.321 5.70308 5.5157 5.46618C 5.71027 5.22939 5.85733 4.96288 5.95651 4.66663C 6.05569 4.37062 6.10529 4.06926 6.10529 3.76257C 6.10529 3.44217 6.0519 3.13211 5.94549 2.83238C 5.83884 2.53288 5.68823 2.26799 5.49366 2.03806C 5.29896 1.80812 5.06006 1.62522 4.77733 1.48935C 4.49435 1.35348 4.17672 1.28554 3.82407 1.28554C 3.4566 1.28554 3.12979 1.35708 2.84326 1.4998C 2.55673 1.64264 2.31795 1.83088 2.12693 2.06419C 1.93579 2.29772 1.79081 2.56249 1.69163 2.85851C 1.59232 3.15475 1.54285 3.45599 1.54285 3.76257Z"/>
<path id="path3_fill" d="M 7.92209e-07 7.42063L 7.92209e-07 1.55935e-07L 3.31713 1.55935e-07C 3.67701 1.55935e-07 4.00946 0.0715356 4.31448 0.214258C 4.61925 0.357096 4.88202 0.545341 5.10243 0.778643C 5.32284 1.01218 5.49537 1.27695 5.62039 1.57296C 5.74529 1.86921 5.80774 2.16708 5.80774 2.46657C 5.80774 2.78012 5.74884 3.08508 5.63141 3.38109C 5.51386 3.67733 5.34843 3.94025 5.13549 4.17018C 4.92231 4.40012 4.66529 4.58488 4.36407 4.72411C 4.06272 4.86359 3.73211 4.93315 3.37223 4.93315L 1.52081 4.93315L 1.52081 7.42063L 7.92209e-07 7.42063ZM 1.52081 3.66851L 3.28407 3.66851C 3.56325 3.66851 3.79652 3.56051 3.98386 3.34451C 4.17121 3.12862 4.26488 2.83598 4.26488 2.46657C 4.26488 2.27845 4.23537 2.10959 4.17672 1.95967C 4.11782 1.80987 4.04068 1.6827 3.94529 1.57819C 3.84978 1.47367 3.73762 1.39529 3.60917 1.34303C 3.4806 1.29077 3.35019 1.26464 3.21795 1.26464L 1.52081 1.26464L 1.52081 3.66851Z"/>
<path id="path4_fill" d="M 5.43304 6.15598L 5.43304 7.42063L 8.22104e-07 7.42063L 8.22104e-07 1.55935e-07L 5.33386 1.55935e-07L 5.33386 1.26464L 1.52081 1.26464L 1.52081 3.05186L 4.8159 3.05186L 4.8159 4.22244L 1.52081 4.22244L 1.52081 6.15598L 5.43304 6.15598Z"/>
<path id="path5_fill" d="M 1.52081 2.66515L 1.52081 7.42063L -1.49473e-06 7.42063L -1.49473e-06 1.55935e-07L 1.17918 1.55935e-07L 5.25672 4.87044L 5.25672 0.0104513L 6.77753 0.0104513L 6.77753 7.42063L 5.54325 7.42063L 1.52081 2.66515Z"/>
</defs>
</svg>
