<svg width="30" height="28" viewBox="0 0 30 28" version="1.1" xmlns="http://www.w3.org/2000/svg" xmlns:xlink="http://www.w3.org/1999/xlink" xmlns:figma="http://www.figma.com/figma/ns">
<title>rating</title>
<desc>Created using Figma</desc>
<g id="Canvas" transform="translate(-1707 -3245)" figma:type="canvas">
<g id="rating" figma:type="frame">
<g id="Vector" figma:type="vector">
<use xlink:href="#path0_fill" transform="translate(1707 3245)" fill="#FFFFFF"/>
</g>
</g>
</g>
<defs>
<path id="path0_fill" d="M 6.06075 27.9987C 5.94959 27.9987 5.83844 27.9651 5.745 27.8983C 5.57961 27.7804 5.49692 27.5811 5.53182 27.3838L 7.19164 17.9066L 0.161961 11.1956C 0.0159013 11.0557 -0.0367233 10.8469 0.026104 10.657C 0.0894684 10.4666 0.257545 10.3277 0.459989 10.2988L 10.1741 8.91598L 14.5188 0.2935C 14.609 0.113613 14.7959 1.65534e-08 15 1.65534e-08C 15.2045 1.65534e-08 15.3914 0.113613 15.4811 0.2935L 19.8253 8.91598L 29.5399 10.2988C 29.7424 10.3277 29.9099 10.4661 29.9738 10.657C 30.0366 10.8469 29.9845 11.0562 29.8379 11.1956L 22.8083 17.9077L 24.4676 27.3844C 24.5019 27.5816 24.4192 27.781 24.2544 27.8988C 24.089 28.0177 23.8693 28.0329 23.6884 27.9388L 15 23.4647L 6.31045 27.9388C 6.23205 27.9787 6.14613 27.9987 6.06075 27.9987ZM 1.69076 11.1861L 8.14318 17.347C 8.26937 17.4674 8.32737 17.6421 8.2973 17.8125L 6.77387 26.5112L 14.7503 22.4043C 14.9065 22.3233 15.0929 22.3233 15.2502 22.4043L 23.2255 26.5112L 21.7026 17.8125C 21.6725 17.6421 21.7305 17.468 21.8567 17.347L 28.3091 11.1861L 19.3925 9.91693C 19.2174 9.89221 19.0665 9.78438 18.9881 9.62921L 15 1.71524L 11.0118 9.62974C 10.9334 9.78491 10.7825 9.89273 10.6074 9.91745L 1.69076 11.1861Z"/>
</defs>
</svg>
