<svg width="41" height="27" viewBox="0 0 41 27" version="1.1" xmlns="http://www.w3.org/2000/svg" xmlns:xlink="http://www.w3.org/1999/xlink" xmlns:figma="http://www.figma.com/figma/ns">
<title>reviews</title>
<desc>Created using Figma</desc>
<g id="Canvas" transform="translate(-1665 -3246)" figma:type="canvas">
<g id="reviews" figma:type="frame">
<g id="Group" figma:type="frame">
<g id="Group" figma:type="frame">
<g id="Vector" figma:type="vector">
<mask id="mask0_outline_ins">
<use xlink:href="#path0_fill" fill="white" transform="translate(1665 3246)"/>
</mask>
<g mask="url(#mask0_outline_ins)">
<use xlink:href="#path1_stroke_2x" transform="translate(1665 3246)" fill="#FFFFFF"/>
</g>
</g>
<g id="Vector" figma:type="vector">
<mask id="mask1_outline_ins">
<use xlink:href="#path2_fill" fill="white" transform="translate(1688.11 3257.59)"/>
</mask>
<g mask="url(#mask1_outline_ins)">
<use xlink:href="#path3_stroke_2x" transform="translate(1688.11 3257.59)" fill="#FFFFFF"/>
</g>
</g>
<g id="Vector" figma:type="vector">
<mask id="mask2_outline_ins">
<use xlink:href="#path4_fill" fill="white" transform="translate(1688.11 3261.38)"/>
</mask>
<g mask="url(#mask2_outline_ins)">
<use xlink:href="#path5_stroke_2x" transform="translate(1688.11 3261.38)" fill="#FFFFFF"/>
</g>
</g>
</g>
<g id="Group" figma:type="frame">
<g id="Vector" figma:type="vector">
<mask id="mask3_outline_ins">
<use xlink:href="#path6_fill" fill="white" transform="translate(1665 3246)"/>
</mask>
<g mask="url(#mask3_outline_ins)">
<use xlink:href="#path7_stroke_2x" transform="translate(1665 3246)" fill="#FFFFFF"/>
</g>
</g>
<g id="Vector" figma:type="vector">
<mask id="mask4_outline_ins">
<use xlink:href="#path2_fill" fill="white" transform="translate(1688.11 3257.59)"/>
</mask>
<g mask="url(#mask4_outline_ins)">
<use xlink:href="#path3_stroke_2x" transform="translate(1688.11 3257.59)" fill="#FFFFFF"/>
</g>
</g>
<g id="Vector" figma:type="vector">
<mask id="mask5_outline_ins">
<use xlink:href="#path4_fill" fill="white" transform="translate(1688.11 3261.38)"/>
</mask>
<g mask="url(#mask5_outline_ins)">
<use xlink:href="#path5_stroke_2x" transform="translate(1688.11 3261.38)" fill="#FFFFFF"/>
</g>
</g>
</g>
</g>
</g>
</g>
<defs>
<path id="path0_fill" d="M 37.3619 7.59392C 35.0814 5.84295 32.0619 4.87862 28.8593 4.87862C 26.9229 4.87862 25.0537 5.23181 23.3741 5.8976C 22.5346 4.29929 21.1341 2.88385 19.3525 1.85383C 17.255 0.641015 14.7611 -2.0944e-07 12.1408 -2.0944e-07C 8.93817 -2.0944e-07 5.91864 0.964326 3.63821 2.71529C 1.292 4.51656 0 6.93207 0 9.51663C 0 11.8444 1.06458 14.0599 3.00689 15.7945L 3.03994 21.4652C 3.04161 21.7612 3.19172 22.0484 3.45504 22.1833C 3.76765 22.3436 4.06578 22.3053 4.28442 22.1912L 10.1657 18.908C 10.8177 18.9913 11.4806 19.0335 12.1408 19.0335C 12.1409 19.0335 12.1411 19.0335 12.1413 19.0335C 14.0532 19.0335 15.9293 18.6825 17.619 18.0146C 18.2355 19.196 19.1582 20.2768 20.3567 21.197C 22.6371 22.948 25.6567 23.9122 28.8593 23.9122C 29.5227 23.9122 30.1893 23.8695 30.8448 23.7853L 36.7334 26.8896C 37.0676 27.0598 37.3154 27.0182 37.5537 26.867C 37.8004 26.7104 37.9585 26.4465 37.9602 26.1541L 37.9933 20.6733C 39.9354 18.9388 41 16.7231 41 14.3954C 41 11.8109 39.708 9.39544 37.3619 7.59392ZM 12.1412 17.3595C 12.141 17.3595 12.1407 17.3595 12.1407 17.3595C 11.4593 17.3595 10.7748 17.3092 10.1062 17.2101C 9.86686 17.1747 9.63626 17.2441 9.46088 17.3843L 4.70496 20.0394L 4.67818 15.4208C 4.67852 15.404 4.67818 15.3871 4.67735 15.3702C 4.66639 15.135 4.55702 14.9153 4.37579 14.765C 2.63329 13.3186 1.67347 11.4547 1.67347 9.51663C 1.67347 5.19206 6.36914 1.6738 12.1408 1.6738C 16.4168 1.6738 20.2828 3.67175 21.8596 6.61193C 21.3305 6.90486 20.8276 7.23236 20.3566 7.59392C 18.0105 9.39536 16.7185 11.8109 16.7185 14.3954C 16.7185 15.0988 16.815 15.7895 17.0015 16.459C 15.5078 17.0494 13.8431 17.3595 12.1412 17.3595ZM 36.6241 19.6438C 36.4431 19.7941 36.3337 20.014 36.3227 20.2491C 36.3219 20.2643 36.3217 20.2795 36.3217 20.2946L 36.295 24.7663L 31.5238 22.2512C 31.3504 22.1189 31.1264 22.0544 30.8935 22.0889C 30.2248 22.1881 29.5403 22.2384 28.8591 22.2384C 24.1326 22.2384 20.1285 19.8787 18.8331 16.6491C 18.8277 16.6334 18.8208 16.6181 18.8144 16.6025C 18.5399 15.9021 18.3918 15.1615 18.3918 14.3954C 18.3918 11.6128 20.3362 9.16428 23.2601 7.77177C 23.2621 7.77093 23.2643 7.77043 23.2664 7.76959C 23.2991 7.7567 23.3302 7.7413 23.3604 7.72482C 24.9593 6.98211 26.8435 6.55251 28.8591 6.55251C 34.6308 6.55251 39.3264 10.0709 39.3264 14.3954C 39.3265 16.3334 38.3667 18.1973 36.6241 19.6438Z"/>
<path id="path1_stroke_2x" d="M 37.3619 7.59392L 37.9709 6.80077L 37.9709 6.80076L 37.3619 7.59392ZM 23.3741 5.8976L 22.4888 6.3626L 22.9068 7.15853L 23.7426 6.82723L 23.3741 5.8976ZM 19.3525 1.85383L 18.8519 2.71953L 18.852 2.71955L 19.3525 1.85383ZM 3.63821 2.71529L 4.24717 3.50849L 4.24721 3.50846L 3.63821 2.71529ZM 3.00689 15.7945L 4.00687 15.7887L 4.00428 15.3445L 3.673 15.0487L 3.00689 15.7945ZM 3.03994 21.4652L 4.03993 21.4596L 4.03992 21.4594L 3.03994 21.4652ZM 3.45504 22.1833L 3.91128 21.2935L 3.91104 21.2934L 3.45504 22.1833ZM 4.28442 22.1912L 4.74699 23.0778L 4.75952 23.0713L 4.77186 23.0644L 4.28442 22.1912ZM 10.1657 18.908L 10.2925 17.916L 9.96578 17.8743L 9.67821 18.0348L 10.1657 18.908ZM 17.619 18.0146L 18.5055 17.5519L 18.0888 16.7536L 17.2514 17.0846L 17.619 18.0146ZM 20.3567 21.197L 19.7477 21.9902L 19.7477 21.9902L 20.3567 21.197ZM 30.8448 23.7853L 31.3111 22.9007L 31.0312 22.7532L 30.7174 22.7935L 30.8448 23.7853ZM 36.7334 26.8896L 36.267 27.7743L 36.2795 27.7806L 36.7334 26.8896ZM 37.5537 26.867L 37.0178 26.0226L 37.0178 26.0226L 37.5537 26.867ZM 37.9602 26.1541L 36.9602 26.148L 36.9602 26.148L 37.9602 26.1541ZM 37.9933 20.6733L 37.3272 19.9275L 36.996 20.2233L 36.9933 20.6673L 37.9933 20.6733ZM 10.1062 17.2101L 10.2529 16.2209L 10.2522 16.2208L 10.1062 17.2101ZM 9.46088 17.3843L 9.94833 18.2575L 10.0206 18.2171L 10.0853 18.1654L 9.46088 17.3843ZM 4.70496 20.0394L 3.70498 20.0452L 3.71479 21.7375L 5.19242 20.9126L 4.70496 20.0394ZM 4.67818 15.4208L 3.67838 15.4008L 3.67813 15.4137L 3.6782 15.4266L 4.67818 15.4208ZM 4.67735 15.3702L 3.67843 15.4168L 3.67857 15.4196L 4.67735 15.3702ZM 4.37579 14.765L 3.73708 15.5345L 3.7374 15.5347L 4.37579 14.765ZM 21.8596 6.61193L 22.3439 7.48682L 23.2072 7.00891L 22.7409 6.13931L 21.8596 6.61193ZM 20.3566 7.59392L 19.7477 6.80069L 19.7476 6.80076L 20.3566 7.59392ZM 17.0015 16.459L 17.3691 17.389L 18.2065 17.058L 17.9648 16.1906L 17.0015 16.459ZM 36.6241 19.6438L 35.9854 18.8744L 35.9854 18.8744L 36.6241 19.6438ZM 36.3227 20.2491L 37.3213 20.3039L 37.3217 20.2957L 36.3227 20.2491ZM 36.3217 20.2946L 37.3217 20.3006L 37.3217 20.2946L 36.3217 20.2946ZM 36.295 24.7663L 35.8286 25.6509L 37.2851 26.4187L 37.2949 24.7723L 36.295 24.7663ZM 31.5238 22.2512L 30.9171 23.0461L 30.9835 23.0969L 31.0575 23.1358L 31.5238 22.2512ZM 30.8935 22.0889L 30.747 21.0996L 30.7467 21.0997L 30.8935 22.0889ZM 18.8331 16.6491L 17.8864 16.9713L 17.895 16.9966L 17.9049 17.0214L 18.8331 16.6491ZM 18.8144 16.6025L 17.8834 16.9674L 17.8868 16.9762L 17.8904 16.9849L 18.8144 16.6025ZM 23.2601 7.77177L 22.8886 6.84332L 22.8589 6.85519L 22.8301 6.86893L 23.2601 7.77177ZM 23.2664 7.76959L 22.8999 6.83918L 22.8949 6.84115L 23.2664 7.76959ZM 23.3604 7.72482L 22.9391 6.81788L 22.9097 6.83154L 22.8813 6.84706L 23.3604 7.72482ZM 39.3264 14.3954L 38.3264 14.3954L 38.3264 14.3955L 39.3264 14.3954ZM 37.9709 6.80076C 35.545 4.95687 32.2159 3.89055 28.8593 3.87862L 28.8593 5.87862C 31.908 5.8667 34.6179 6.72904 36.7529 8.38708L 37.9709 6.80076ZM 28.8593 3.87862C 26.8296 3.88298 24.7753 4.27133 23.0056 4.96798L 23.7426 6.82723C 25.332 6.19229 27.0161 5.87427 28.8593 5.87862L 28.8593 3.87862ZM 24.2594 5.4326C 23.3415 3.70864 21.7452 2.0923 19.853 0.988105L 18.852 2.71955C 20.523 3.67541 21.7277 4.88995 22.4888 6.3626L 24.2594 5.4326ZM 19.8531 0.988126C 17.6332 -0.284685 14.8865 -0.992099 12.1408 -1L 12.1408 1C 14.6356 0.992098 16.8767 1.56671 18.8519 2.71953L 19.8531 0.988126ZM 12.1408 -1C 8.78422 -0.988079 5.45512 0.0782409 3.0292 1.92213L 4.24721 3.50846C 6.38217 1.85041 9.09212 0.988079 12.1408 1L 12.1408 -1ZM 3.02924 1.9221C 0.476927 3.8816 -1 6.57363 -1 9.51663L 1 9.51663C 1 7.2905 2.10708 5.15152 4.24717 3.50849L 3.02924 1.9221ZM -1 9.51663C -1 12.1663 0.215295 14.6422 2.34078 16.5404L 3.673 15.0487C 1.91386 13.4776 1 11.5226 1 9.51663L -1 9.51663ZM 2.00691 15.8004L 2.03996 21.4711L 4.03992 21.4594L 4.00687 15.7887L 2.00691 15.8004ZM 2.03996 21.4709C 2.04338 22.0767 2.35079 22.7412 2.99905 23.0733L 3.91104 21.2934C 3.97046 21.3238 4.00479 21.3657 4.02106 21.3946C 4.03617 21.4215 4.03983 21.4432 4.03993 21.4596L 2.03996 21.4709ZM 2.99881 23.0732C 3.63069 23.3972 4.27265 23.3253 4.74699 23.0778L 3.82184 21.3046C 3.8358 21.2973 3.85462 21.2912 3.87796 21.2905C 3.88979 21.2902 3.90014 21.2914 3.90792 21.2932C 3.91578 21.295 3.91702 21.2964 3.91128 21.2935L 2.99881 23.0732ZM 4.77186 23.0644L 10.6531 19.7811L 9.67821 18.0348L 3.79697 21.3181L 4.77186 23.0644ZM 10.0388 19.8999C 10.7225 19.9868 11.4488 20.033 12.1408 20.0335L 12.1408 18.0335C 11.5124 18.034 10.9129 17.9959 10.2925 17.916L 10.0388 19.8999ZM 12.1408 20.0335C 12.1409 20.0335 12.1411 20.0335 12.1413 20.0335L 12.1413 18.0335C 12.1411 18.0335 12.1409 18.0335 12.1408 18.0335L 12.1408 20.0335ZM 12.1413 20.0335C 14.1456 20.0292 16.2063 19.6434 17.9865 18.9446L 17.2514 17.0846C 15.6522 17.7216 13.9609 18.0378 12.1413 18.0335L 12.1413 20.0335ZM 16.7324 18.4773C 17.4067 19.7556 18.4697 21.002 19.7477 21.9902L 20.9657 20.4038C 19.8468 19.5516 19.0643 18.6365 18.5055 17.5519L 16.7324 18.4773ZM 19.7477 21.9902C 22.1736 23.8341 25.5028 24.9003 28.8593 24.9122L 28.8593 22.9122C 25.8106 22.9241 23.1006 22.0619 20.9657 20.4038L 19.7477 21.9902ZM 28.8593 24.9122C 29.5546 24.9117 30.285 24.8649 30.9722 24.7772L 30.7174 22.7935C 30.0936 22.8741 29.4907 22.9127 28.8593 22.9122L 28.8593 24.9122ZM 30.3785 24.6699L 36.2671 27.7742L 37.1997 26.0049L 31.3111 22.9007L 30.3785 24.6699ZM 36.2795 27.7806C 36.5629 27.916 36.9673 28.0037 37.2395 27.997C 37.5301 27.9669 37.8888 27.8334 38.0895 27.7113L 37.0178 26.0226C 36.9974 26.0356 37.0383 26.0055 37.1195 26.0006C 37.1566 25.9984 37.1855 26.0027 37.2015 26.0065C 37.216 26.01 37.212 26.0111 37.1873 25.9985L 36.2795 27.7806ZM 38.0895 27.7113C 38.5994 27.3877 38.9562 26.8202 38.9602 26.1601L 36.9602 26.148C 36.9607 26.0727 37.0014 26.0331 37.0178 26.0226L 38.0895 27.7113ZM 38.9602 26.1601L 38.9933 20.6794L 36.9933 20.6673L 36.9602 26.148L 38.9602 26.1601ZM 38.6594 21.4192C 40.7847 19.521 42 17.0449 42 14.3954L 40 14.3954C 40 16.4013 39.0861 18.3565 37.3272 19.9275L 38.6594 21.4192ZM 42 14.3954C 42 11.4524 40.5231 8.7605 37.9709 6.80077L 36.7528 8.38706C 38.8929 10.0304 40 12.1693 40 14.3954L 42 14.3954ZM 12.1412 16.3595C 12.1411 16.3595 12.141 16.3595 12.1409 16.3595C 12.1408 16.3595 12.1408 16.3595 12.1407 16.3595C 12.1407 16.3595 12.1407 16.3595 12.1407 16.3595C 12.1407 16.3595 12.1407 16.3595 12.1407 16.3595C 12.1407 16.3595 12.1407 16.3595 12.1407 16.3595L 12.1407 16.3595C 12.1407 16.3595 12.1407 16.3595 12.1407 17.3595C 12.1407 18.3595 12.1407 18.3595 12.1407 18.3595L 12.1407 18.3595C 12.1407 18.3595 12.1407 18.3595 12.1407 18.3595C 12.1407 18.3595 12.1407 18.3595 12.1407 18.3595C 12.1407 18.3595 12.1407 18.3595 12.1407 18.3595C 12.1408 18.3595 12.1408 18.3595 12.1409 18.3595C 12.141 18.3595 12.1411 18.3595 12.1412 18.3595L 12.1412 16.3595ZM 12.1407 16.3595C 11.4961 16.3602 10.8849 16.3152 10.2529 16.2209L 9.95963 18.1993C 10.6647 18.3031 11.4226 18.3589 12.1407 18.3595L 12.1407 16.3595ZM 10.2522 16.2208C 9.7278 16.1434 9.22023 16.2965 8.83649 16.6032L 10.0853 18.1654C 10.0523 18.1918 10.0059 18.2061 9.96029 18.1994L 10.2522 16.2208ZM 8.97342 16.5112L 4.2175 19.1663L 5.19242 20.9126L 9.94833 18.2575L 8.97342 16.5112ZM 5.70494 20.0336L 5.67817 15.415L 3.6782 15.4266L 3.70498 20.0452L 5.70494 20.0336ZM 5.67798 15.4408C 5.67852 15.4041 5.67758 15.3525 5.67612 15.3208L 3.67857 15.4196C 3.67844 15.4171 3.67819 15.4106 3.67838 15.4008L 5.67798 15.4408ZM 5.67626 15.3237C 5.65222 14.8079 5.41232 14.3255 5.01418 13.9953L 3.7374 15.5347C 3.70173 15.5051 3.68055 15.4622 3.67843 15.4168L 5.67626 15.3237ZM 5.01449 13.9956C 3.4579 12.7035 2.67347 11.1055 2.67347 9.51663L 0.673469 9.51663C 0.673469 11.8038 1.80868 13.9337 3.73708 15.5345L 5.01449 13.9956ZM 2.67347 9.51663C 2.67347 7.74108 3.63543 6.05275 5.34238 4.77378C 7.04918 3.49494 9.4509 2.6738 12.1408 2.6738L 12.1408 0.673802C 9.05901 0.673802 6.22708 1.61179 4.14314 3.17322C 2.05935 4.73453 0.673469 6.96761 0.673469 9.51663L 2.67347 9.51663ZM 12.1408 2.6738C 16.1585 2.6738 19.6222 4.55588 20.9783 7.08456L 22.7409 6.13931C 20.9434 2.78762 16.6751 0.673802 12.1408 0.673802L 12.1408 2.6738ZM 21.3753 5.73705C 20.8151 6.04789 20.2498 6.41615 19.7477 6.80069L 20.9655 8.38715C 21.4053 8.04857 21.8458 7.76184 22.3439 7.48682L 21.3753 5.73705ZM 19.7476 6.80076C 17.1954 8.76042 15.7185 11.4524 15.7185 14.3954L 17.7185 14.3954C 17.7185 12.1693 18.8255 10.0303 20.9656 8.38708L 19.7476 6.80076ZM 15.7185 14.3954C 15.7209 15.1682 15.836 15.9934 16.0382 16.7274L 17.9648 16.1906C 17.794 15.5857 17.7161 15.0294 17.7185 14.3954L 15.7185 14.3954ZM 16.634 15.529C 15.2311 16.0884 13.7511 16.3638 12.1412 16.3595L 12.1412 18.3595C 13.9351 18.3553 15.7844 18.0103 17.3691 17.389L 16.634 15.529ZM 35.9854 18.8744C 35.5875 19.2047 35.3479 19.6871 35.3238 20.2025L 37.3217 20.2957C 37.3195 20.3409 37.2986 20.3836 37.2629 20.4132L 35.9854 18.8744ZM 35.3242 20.1942C 35.3224 20.2313 35.3217 20.2739 35.3217 20.2946L 37.3217 20.2946C 37.3217 20.2898 37.3218 20.2906 37.3217 20.2912C 37.3217 20.2927 37.3216 20.2972 37.3212 20.3039L 35.3242 20.1942ZM 35.3218 20.2886L 35.295 24.7603L 37.2949 24.7723L 37.3217 20.3006L 35.3218 20.2886ZM 36.7613 23.8817L 31.9901 21.3666L 31.0575 23.1358L 35.8286 25.6509L 36.7613 23.8817ZM 32.1305 21.4563C 31.7509 21.1665 31.257 21.0241 30.747 21.0996L 31.04 23.0781C 30.9957 23.0846 30.95 23.0713 30.9171 23.0461L 32.1305 21.4563ZM 30.7467 21.0997C 30.1146 21.1942 29.5037 21.2391 28.8591 21.2384L 28.8591 23.2384C 29.577 23.2377 30.3349 23.182 31.0403 23.078L 30.7467 21.0997ZM 28.8591 21.2384C 24.4063 21.2384 20.8599 19.016 19.7612 16.2769L 17.9049 17.0214C 19.3971 20.7415 23.8589 23.2384 28.8591 23.2384L 28.8591 21.2384ZM 19.7797 16.327C 19.7674 16.2907 19.7555 16.2611 19.7487 16.2448C 19.7425 16.2297 19.7379 16.2189 19.7384 16.2201L 17.8904 16.9849C 17.8936 16.9926 17.8966 16.9999 17.8979 17.0029C 17.8997 17.007 17.8998 17.0073 17.8996 17.0068C 17.8992 17.0059 17.8976 17.0021 17.8955 16.9964C 17.8932 16.9907 17.89 16.9821 17.8864 16.9713L 19.7797 16.327ZM 19.7454 16.2376C 19.4994 15.6205 19.3869 15.063 19.3918 14.3954L 17.3918 14.3954C 17.3966 15.26 17.5803 16.1837 17.8834 16.9674L 19.7454 16.2376ZM 19.3918 14.3954C 19.3918 12.1178 20.9919 9.95961 23.69 8.67461L 22.8301 6.86893C 19.6805 8.36894 17.3918 11.1078 17.3918 14.3954L 19.3918 14.3954ZM 23.6315 8.70021C 23.6089 8.70925 23.5904 8.71567 23.5793 8.71941C 23.5736 8.72131 23.569 8.72278 23.5663 8.72363C 23.5639 8.7244 23.5619 8.72504 23.5626 8.72483C 23.5627 8.72479 23.5634 8.72457 23.5641 8.72435C 23.5648 8.72412 23.5667 8.72354 23.5679 8.72313C 23.5711 8.72211 23.5762 8.72047 23.5825 8.71838C 23.5947 8.71429 23.6143 8.70749 23.6379 8.69804L 22.8949 6.84115C 22.9175 6.83212 22.936 6.8257 22.9472 6.82195C 22.9529 6.82005 22.9575 6.81858 22.9601 6.81773C 22.9625 6.81696 22.9646 6.81633 22.9639 6.81653C 22.9638 6.81657 22.9631 6.81679 22.9624 6.81702C 22.9617 6.81724 22.9598 6.81783 22.9585 6.81823C 22.9553 6.81925 22.9502 6.8209 22.944 6.82298C 22.9318 6.82708 22.9122 6.83387 22.8886 6.84332L 23.6315 8.70021ZM 23.633 8.7C 23.705 8.67064 23.792 8.62826 23.8395 8.60257L 22.8813 6.84706C 22.8732 6.85149 22.8814 6.84649 22.8999 6.83919L 23.633 8.7ZM 23.7817 8.63175C 25.2829 7.92831 26.9553 7.54624 28.8591 7.55251L 28.8591 5.55251C 26.7316 5.55879 24.6357 6.03591 22.9391 6.81788L 23.7817 8.63175ZM 28.8591 7.55251C 31.549 7.55251 33.9507 8.37367 35.6575 9.65253C 37.3645 10.9315 38.3264 12.6199 38.3264 14.3954L 40.3264 14.3954C 40.3264 11.8464 38.9406 9.6133 36.8568 8.05197C 34.7728 6.49053 31.9409 5.55251 28.8591 5.55251L 28.8591 7.55251ZM 38.3264 14.3955C 38.3265 15.9842 37.5421 17.5822 35.9854 18.8744L 37.2628 20.4133C 39.1913 18.8125 40.3265 16.6825 40.3264 14.3954L 38.3264 14.3955Z"/>
<path id="path2_fill" d="M 10.6679 6.12995e-07L 0.836735 6.12995e-07C 0.374606 6.12995e-07 -1.0214e-07 0.3747 -1.0214e-07 0.836944C -1.0214e-07 1.29919 0.374606 1.67389 0.836735 1.67389L 10.6679 1.67389C 11.1299 1.67389 11.5047 1.29919 11.5047 0.836944C 11.5047 0.3747 11.13 6.12995e-07 10.6679 6.12995e-07Z"/>
<path id="path3_stroke_2x" d="M 10.6679 -0.999999L 0.836735 -0.999999L 0.836735 1L 10.6679 1L 10.6679 -0.999999ZM 0.836735 -0.999999C -0.177913 -0.999999 -1 -0.17735 -1 0.836944L 1 0.836944C 1 0.92675 0.927125 1 0.836735 1L 0.836735 -0.999999ZM -1 0.836944C -1 1.85124 -0.177913 2.67389 0.836735 2.67389L 0.836735 0.673887C 0.927125 0.673887 1 0.747137 1 0.836944L -1 0.836944ZM 0.836735 2.67389L 10.6679 2.67389L 10.6679 0.673887L 0.836735 0.673887L 0.836735 2.67389ZM 10.6679 2.67389C 11.6823 2.67389 12.5047 1.85137 12.5047 0.836944L 10.5047 0.836944C 10.5047 0.747007 10.5775 0.673887 10.6679 0.673887L 10.6679 2.67389ZM 12.5047 0.836944C 12.5047 -0.177415 11.6824 -0.999999 10.6679 -0.999999L 10.6679 1C 10.5775 1 10.5047 0.926815 10.5047 0.836944L 12.5047 0.836944Z"/>
<path id="path4_fill" d="M 10.6679 -4.90396e-07L 0.836735 -4.90396e-07C 0.374606 -4.90396e-07 -1.0214e-07 0.374699 -1.0214e-07 0.836942C -1.0214e-07 1.29919 0.374606 1.67389 0.836735 1.67389L 10.6679 1.67389C 11.1299 1.67389 11.5047 1.29919 11.5047 0.836942C 11.5047 0.374699 11.13 -4.90396e-07 10.6679 -4.90396e-07Z"/>
<path id="path5_stroke_2x" d="M 10.6679 -1L 0.836735 -1L 0.836735 1L 10.6679 1L 10.6679 -1ZM 0.836735 -1C -0.177913 -1 -1 -0.177351 -1 0.836942L 1 0.836942C 1 0.926749 0.927125 1 0.836735 1L 0.836735 -1ZM -1 0.836942C -1 1.85124 -0.177913 2.67389 0.836735 2.67389L 0.836735 0.673885C 0.927125 0.673885 1 0.747136 1 0.836942L -1 0.836942ZM 0.836735 2.67389L 10.6679 2.67389L 10.6679 0.673885L 0.836735 0.673885L 0.836735 2.67389ZM 10.6679 2.67389C 11.6823 2.67389 12.5047 1.85137 12.5047 0.836942L 10.5047 0.836942C 10.5047 0.747006 10.5775 0.673885 10.6679 0.673885L 10.6679 2.67389ZM 12.5047 0.836942C 12.5047 -0.177416 11.6824 -1 10.6679 -1L 10.6679 1C 10.5775 1 10.5047 0.926814 10.5047 0.836942L 12.5047 0.836942Z"/>
<path id="path6_fill" d="M 37.3619 7.59392C 35.0814 5.84295 32.0619 4.87862 28.8593 4.87862C 26.9229 4.87862 25.0537 5.23181 23.3741 5.8976C 22.5346 4.29929 21.1341 2.88385 19.3525 1.85383C 17.255 0.641015 14.7611 -2.0944e-07 12.1408 -2.0944e-07C 8.93817 -2.0944e-07 5.91864 0.964326 3.63821 2.71529C 1.292 4.51656 0 6.93207 0 9.51663C 0 11.8444 1.06458 14.0599 3.00689 15.7945L 3.03994 21.4652C 3.04161 21.7612 3.19172 22.0484 3.45504 22.1833C 3.76765 22.3436 4.06578 22.3053 4.28442 22.1912L 10.1657 18.908C 10.8177 18.9913 11.4806 19.0335 12.1408 19.0335C 12.1409 19.0335 12.1411 19.0335 12.1413 19.0335C 14.0532 19.0335 15.9293 18.6825 17.619 18.0146C 18.2355 19.196 19.1582 20.2768 20.3567 21.197C 22.6371 22.948 25.6567 23.9122 28.8593 23.9122C 29.5227 23.9122 30.1893 23.8695 30.8448 23.7853L 36.7334 26.8896C 37.0676 27.0598 37.3154 27.0182 37.5537 26.867C 37.8004 26.7104 37.9585 26.4465 37.9602 26.1541L 37.9933 20.6733C 39.9354 18.9388 41 16.7231 41 14.3954C 41 11.8109 39.708 9.39544 37.3619 7.59392ZM 12.1412 17.3595C 12.141 17.3595 12.1407 17.3595 12.1407 17.3595C 11.4593 17.3595 10.7748 17.3092 10.1062 17.2101C 9.86686 17.1747 9.63626 17.2441 9.46088 17.3843L 4.70496 20.0394L 4.67818 15.4208C 4.67852 15.404 4.67818 15.3871 4.67735 15.3702C 4.66639 15.135 4.55702 14.9153 4.37579 14.765C 2.63329 13.3186 1.67347 11.4547 1.67347 9.51663C 1.67347 5.19206 6.36914 1.6738 12.1408 1.6738C 16.4168 1.6738 20.2828 3.67175 21.8596 6.61193C 21.3305 6.90486 20.8276 7.23236 20.3566 7.59392C 18.0105 9.39536 16.7185 11.8109 16.7185 14.3954C 16.7185 15.0988 16.815 15.7895 17.0015 16.459C 15.5078 17.0494 13.8431 17.3595 12.1412 17.3595ZM 36.6241 19.6438C 36.4431 19.7941 36.3337 20.014 36.3227 20.2491C 36.3219 20.2643 36.3217 20.2795 36.3217 20.2946L 36.295 24.7663L 31.5238 22.2512C 31.3504 22.1189 31.1264 22.0544 30.8935 22.0889C 30.2248 22.1881 29.5403 22.2384 28.8591 22.2384C 24.1326 22.2384 20.1285 19.8787 18.8331 16.6491C 18.8277 16.6334 18.8208 16.6181 18.8144 16.6025C 18.5399 15.9021 18.3918 15.1615 18.3918 14.3954C 18.3918 9.98624 23.161 6.55251 28.8591 6.55251C 34.5573 6.55251 39.3265 10.0709 39.3265 14.3954C 39.3265 16.3334 38.3667 18.1973 36.6241 19.6438Z"/>
<path id="path7_stroke_2x" d="M 37.3619 7.59392L 37.9709 6.80077L 37.9709 6.80076L 37.3619 7.59392ZM 23.3741 5.8976L 22.4888 6.3626L 22.9068 7.15853L 23.7426 6.82723L 23.3741 5.8976ZM 19.3525 1.85383L 18.8519 2.71953L 18.852 2.71955L 19.3525 1.85383ZM 3.63821 2.71529L 4.24717 3.50849L 4.24721 3.50846L 3.63821 2.71529ZM 3.00689 15.7945L 4.00687 15.7887L 4.00428 15.3445L 3.673 15.0487L 3.00689 15.7945ZM 3.03994 21.4652L 4.03993 21.4596L 4.03992 21.4594L 3.03994 21.4652ZM 3.45504 22.1833L 3.91128 21.2935L 3.91104 21.2934L 3.45504 22.1833ZM 4.28442 22.1912L 4.74699 23.0778L 4.75952 23.0713L 4.77186 23.0644L 4.28442 22.1912ZM 10.1657 18.908L 10.2925 17.916L 9.96578 17.8743L 9.67821 18.0348L 10.1657 18.908ZM 17.619 18.0146L 18.5055 17.5519L 18.0888 16.7536L 17.2514 17.0846L 17.619 18.0146ZM 20.3567 21.197L 19.7477 21.9902L 19.7477 21.9902L 20.3567 21.197ZM 30.8448 23.7853L 31.3111 22.9007L 31.0312 22.7532L 30.7174 22.7935L 30.8448 23.7853ZM 36.7334 26.8896L 36.267 27.7743L 36.2795 27.7806L 36.7334 26.8896ZM 37.5537 26.867L 37.0178 26.0226L 37.0178 26.0226L 37.5537 26.867ZM 37.9602 26.1541L 36.9602 26.148L 36.9602 26.148L 37.9602 26.1541ZM 37.9933 20.6733L 37.3272 19.9275L 36.996 20.2233L 36.9933 20.6673L 37.9933 20.6733ZM 10.1062 17.2101L 10.2529 16.2209L 10.2522 16.2208L 10.1062 17.2101ZM 9.46088 17.3843L 9.94833 18.2575L 10.0206 18.2171L 10.0853 18.1654L 9.46088 17.3843ZM 4.70496 20.0394L 3.70498 20.0452L 3.71479 21.7375L 5.19242 20.9126L 4.70496 20.0394ZM 4.67818 15.4208L 3.67838 15.4008L 3.67813 15.4137L 3.6782 15.4266L 4.67818 15.4208ZM 4.67735 15.3702L 3.67843 15.4168L 3.67857 15.4196L 4.67735 15.3702ZM 4.37579 14.765L 3.73708 15.5345L 3.7374 15.5347L 4.37579 14.765ZM 21.8596 6.61193L 22.3439 7.48682L 23.2072 7.00891L 22.7409 6.13931L 21.8596 6.61193ZM 20.3566 7.59392L 19.7477 6.80069L 19.7476 6.80076L 20.3566 7.59392ZM 17.0015 16.459L 17.3691 17.389L 18.2065 17.058L 17.9648 16.1906L 17.0015 16.459ZM 36.6241 19.6438L 35.9854 18.8744L 35.9854 18.8744L 36.6241 19.6438ZM 36.3227 20.2491L 37.3213 20.3039L 37.3217 20.2957L 36.3227 20.2491ZM 36.3217 20.2946L 37.3217 20.3006L 37.3217 20.2946L 36.3217 20.2946ZM 36.295 24.7663L 35.8286 25.6509L 37.2851 26.4187L 37.2949 24.7723L 36.295 24.7663ZM 31.5238 22.2512L 30.9171 23.0461L 30.9835 23.0969L 31.0575 23.1358L 31.5238 22.2512ZM 30.8935 22.0889L 30.747 21.0996L 30.7467 21.0997L 30.8935 22.0889ZM 18.8331 16.6491L 17.8864 16.9713L 17.895 16.9966L 17.9049 17.0214L 18.8331 16.6491ZM 18.8144 16.6025L 17.8834 16.9674L 17.8868 16.9762L 17.8904 16.9849L 18.8144 16.6025ZM 37.9709 6.80076C 35.545 4.95687 32.2159 3.89055 28.8593 3.87862L 28.8593 5.87862C 31.908 5.8667 34.6179 6.72904 36.7529 8.38708L 37.9709 6.80076ZM 28.8593 3.87862C 26.8296 3.88298 24.7753 4.27133 23.0056 4.96798L 23.7426 6.82723C 25.332 6.19229 27.0161 5.87427 28.8593 5.87862L 28.8593 3.87862ZM 24.2594 5.4326C 23.3415 3.70864 21.7452 2.0923 19.853 0.988105L 18.852 2.71955C 20.523 3.67541 21.7277 4.88995 22.4888 6.3626L 24.2594 5.4326ZM 19.8531 0.988126C 17.6332 -0.284685 14.8865 -0.992099 12.1408 -1L 12.1408 1C 14.6356 0.992098 16.8767 1.56671 18.8519 2.71953L 19.8531 0.988126ZM 12.1408 -1C 8.78422 -0.988079 5.45512 0.0782409 3.0292 1.92213L 4.24721 3.50846C 6.38217 1.85041 9.09212 0.988079 12.1408 1L 12.1408 -1ZM 3.02924 1.9221C 0.476927 3.8816 -1 6.57363 -1 9.51663L 1 9.51663C 1 7.2905 2.10708 5.15152 4.24717 3.50849L 3.02924 1.9221ZM -1 9.51663C -1 12.1663 0.215295 14.6422 2.34078 16.5404L 3.673 15.0487C 1.91386 13.4776 1 11.5226 1 9.51663L -1 9.51663ZM 2.00691 15.8004L 2.03996 21.4711L 4.03992 21.4594L 4.00687 15.7887L 2.00691 15.8004ZM 2.03996 21.4709C 2.04338 22.0767 2.35079 22.7412 2.99905 23.0733L 3.91104 21.2934C 3.97046 21.3238 4.00479 21.3657 4.02106 21.3946C 4.03617 21.4215 4.03983 21.4432 4.03993 21.4596L 2.03996 21.4709ZM 2.99881 23.0732C 3.63069 23.3972 4.27265 23.3253 4.74699 23.0778L 3.82184 21.3046C 3.8358 21.2973 3.85462 21.2912 3.87796 21.2905C 3.88979 21.2902 3.90014 21.2914 3.90792 21.2932C 3.91578 21.295 3.91702 21.2964 3.91128 21.2935L 2.99881 23.0732ZM 4.77186 23.0644L 10.6531 19.7811L 9.67821 18.0348L 3.79697 21.3181L 4.77186 23.0644ZM 10.0388 19.8999C 10.7225 19.9868 11.4488 20.033 12.1408 20.0335L 12.1408 18.0335C 11.5124 18.034 10.9129 17.9959 10.2925 17.916L 10.0388 19.8999ZM 12.1408 20.0335C 12.1409 20.0335 12.1411 20.0335 12.1413 20.0335L 12.1413 18.0335C 12.1411 18.0335 12.1409 18.0335 12.1408 18.0335L 12.1408 20.0335ZM 12.1413 20.0335C 14.1456 20.0292 16.2063 19.6434 17.9865 18.9446L 17.2514 17.0846C 15.6522 17.7216 13.9609 18.0378 12.1413 18.0335L 12.1413 20.0335ZM 16.7324 18.4773C 17.4067 19.7556 18.4697 21.002 19.7477 21.9902L 20.9657 20.4038C 19.8468 19.5516 19.0643 18.6365 18.5055 17.5519L 16.7324 18.4773ZM 19.7477 21.9902C 22.1736 23.8341 25.5028 24.9003 28.8593 24.9122L 28.8593 22.9122C 25.8106 22.9241 23.1006 22.0619 20.9657 20.4038L 19.7477 21.9902ZM 28.8593 24.9122C 29.5546 24.9117 30.285 24.8649 30.9722 24.7772L 30.7174 22.7935C 30.0936 22.8741 29.4907 22.9127 28.8593 22.9122L 28.8593 24.9122ZM 30.3785 24.6699L 36.2671 27.7742L 37.1997 26.0049L 31.3111 22.9007L 30.3785 24.6699ZM 36.2795 27.7806C 36.5629 27.916 36.9673 28.0037 37.2395 27.997C 37.5301 27.9669 37.8888 27.8334 38.0895 27.7113L 37.0178 26.0226C 36.9974 26.0356 37.0383 26.0055 37.1195 26.0006C 37.1566 25.9984 37.1855 26.0027 37.2015 26.0065C 37.216 26.01 37.212 26.0111 37.1873 25.9985L 36.2795 27.7806ZM 38.0895 27.7113C 38.5994 27.3877 38.9562 26.8202 38.9602 26.1601L 36.9602 26.148C 36.9607 26.0727 37.0014 26.0331 37.0178 26.0226L 38.0895 27.7113ZM 38.9602 26.1601L 38.9933 20.6794L 36.9933 20.6673L 36.9602 26.148L 38.9602 26.1601ZM 38.6594 21.4192C 40.7847 19.521 42 17.0449 42 14.3954L 40 14.3954C 40 16.4013 39.0861 18.3565 37.3272 19.9275L 38.6594 21.4192ZM 42 14.3954C 42 11.4524 40.5231 8.7605 37.9709 6.80077L 36.7528 8.38706C 38.8929 10.0304 40 12.1693 40 14.3954L 42 14.3954ZM 12.1412 16.3595C 12.1411 16.3595 12.141 16.3595 12.1409 16.3595C 12.1408 16.3595 12.1408 16.3595 12.1407 16.3595C 12.1407 16.3595 12.1407 16.3595 12.1407 16.3595C 12.1407 16.3595 12.1407 16.3595 12.1407 16.3595C 12.1407 16.3595 12.1407 16.3595 12.1407 16.3595L 12.1407 16.3595C 12.1407 16.3595 12.1407 16.3595 12.1407 17.3595C 12.1407 18.3595 12.1407 18.3595 12.1407 18.3595L 12.1407 18.3595C 12.1407 18.3595 12.1407 18.3595 12.1407 18.3595C 12.1407 18.3595 12.1407 18.3595 12.1407 18.3595C 12.1407 18.3595 12.1407 18.3595 12.1407 18.3595C 12.1408 18.3595 12.1408 18.3595 12.1409 18.3595C 12.141 18.3595 12.1411 18.3595 12.1412 18.3595L 12.1412 16.3595ZM 12.1407 16.3595C 11.4961 16.3602 10.8849 16.3152 10.2529 16.2209L 9.95963 18.1993C 10.6647 18.3031 11.4226 18.3589 12.1407 18.3595L 12.1407 16.3595ZM 10.2522 16.2208C 9.7278 16.1434 9.22023 16.2965 8.83649 16.6032L 10.0853 18.1654C 10.0523 18.1918 10.0059 18.2061 9.96029 18.1994L 10.2522 16.2208ZM 8.97342 16.5112L 4.2175 19.1663L 5.19242 20.9126L 9.94833 18.2575L 8.97342 16.5112ZM 5.70494 20.0336L 5.67817 15.415L 3.6782 15.4266L 3.70498 20.0452L 5.70494 20.0336ZM 5.67798 15.4408C 5.67852 15.4041 5.67758 15.3525 5.67612 15.3208L 3.67857 15.4196C 3.67844 15.4171 3.67819 15.4106 3.67838 15.4008L 5.67798 15.4408ZM 5.67626 15.3237C 5.65222 14.8079 5.41232 14.3255 5.01418 13.9953L 3.7374 15.5347C 3.70173 15.5051 3.68055 15.4622 3.67843 15.4168L 5.67626 15.3237ZM 5.01449 13.9956C 3.4579 12.7035 2.67347 11.1055 2.67347 9.51663L 0.673469 9.51663C 0.673469 11.8038 1.80868 13.9337 3.73708 15.5345L 5.01449 13.9956ZM 2.67347 9.51663C 2.67347 7.74108 3.63543 6.05275 5.34238 4.77378C 7.04918 3.49494 9.4509 2.6738 12.1408 2.6738L 12.1408 0.673802C 9.05901 0.673802 6.22708 1.61179 4.14314 3.17322C 2.05935 4.73453 0.673469 6.96761 0.673469 9.51663L 2.67347 9.51663ZM 12.1408 2.6738C 16.1585 2.6738 19.6222 4.55588 20.9783 7.08456L 22.7409 6.13931C 20.9434 2.78762 16.6751 0.673802 12.1408 0.673802L 12.1408 2.6738ZM 21.3753 5.73705C 20.8151 6.04789 20.2498 6.41615 19.7477 6.80069L 20.9655 8.38715C 21.4053 8.04857 21.8458 7.76184 22.3439 7.48682L 21.3753 5.73705ZM 19.7476 6.80076C 17.1954 8.76042 15.7185 11.4524 15.7185 14.3954L 17.7185 14.3954C 17.7185 12.1693 18.8255 10.0303 20.9656 8.38708L 19.7476 6.80076ZM 15.7185 14.3954C 15.7209 15.1682 15.836 15.9934 16.0382 16.7274L 17.9648 16.1906C 17.794 15.5857 17.7161 15.0294 17.7185 14.3954L 15.7185 14.3954ZM 16.634 15.529C 15.2311 16.0884 13.7511 16.3638 12.1412 16.3595L 12.1412 18.3595C 13.9351 18.3553 15.7844 18.0103 17.3691 17.389L 16.634 15.529ZM 35.9854 18.8744C 35.5875 19.2047 35.3479 19.6871 35.3238 20.2025L 37.3217 20.2957C 37.3195 20.3409 37.2986 20.3836 37.2629 20.4132L 35.9854 18.8744ZM 35.3242 20.1942C 35.3224 20.2313 35.3217 20.2739 35.3217 20.2946L 37.3217 20.2946C 37.3217 20.2898 37.3218 20.2906 37.3217 20.2912C 37.3217 20.2927 37.3216 20.2972 37.3212 20.3039L 35.3242 20.1942ZM 35.3218 20.2886L 35.295 24.7603L 37.2949 24.7723L 37.3217 20.3006L 35.3218 20.2886ZM 36.7613 23.8817L 31.9901 21.3666L 31.0575 23.1358L 35.8286 25.6509L 36.7613 23.8817ZM 32.1305 21.4563C 31.7509 21.1665 31.257 21.0241 30.747 21.0996L 31.04 23.0781C 30.9957 23.0846 30.95 23.0713 30.9171 23.0461L 32.1305 21.4563ZM 30.7467 21.0997C 30.1146 21.1942 29.5037 21.2391 28.8591 21.2384L 28.8591 23.2384C 29.577 23.2377 30.3349 23.182 31.0403 23.078L 30.7467 21.0997ZM 28.8591 21.2384C 24.4063 21.2384 20.8599 19.016 19.7612 16.2769L 17.9049 17.0214C 19.3971 20.7415 23.8589 23.2384 28.8591 23.2384L 28.8591 21.2384ZM 19.7797 16.327C 19.7674 16.2907 19.7555 16.2611 19.7487 16.2448C 19.7425 16.2297 19.7379 16.2189 19.7384 16.2201L 17.8904 16.9849C 17.8936 16.9926 17.8966 16.9999 17.8979 17.0029C 17.8997 17.007 17.8998 17.0073 17.8996 17.0068C 17.8992 17.0059 17.8976 17.0021 17.8955 16.9964C 17.8932 16.9907 17.89 16.9821 17.8864 16.9713L 19.7797 16.327ZM 19.7454 16.2376C 19.4994 15.6205 19.3869 15.063 19.3918 14.3954L 17.3918 14.3954C 17.3966 15.26 17.5803 16.1837 17.8834 16.9674L 19.7454 16.2376ZM 19.3918 14.3954C 19.3918 12.5796 20.37 10.8925 22.0835 9.62432C 23.7992 8.35456 26.2024 7.55251 28.8591 7.55251L 28.8591 5.55251C 25.8177 5.55251 22.9872 6.46732 20.8937 8.01672C 18.7982 9.56767 17.3918 11.8021 17.3918 14.3954L 19.3918 14.3954ZM 28.8591 7.55251C 31.5102 7.55251 33.9134 8.37256 35.6319 9.65392C 37.3517 10.9363 38.3265 12.6254 38.3265 14.3954L 40.3265 14.3954C 40.3265 11.8409 38.9168 9.60853 36.8274 8.05058C 34.7367 6.49163 31.9062 5.55251 28.8591 5.55251L 28.8591 7.55251ZM 38.3265 14.3954C 38.3265 15.9842 37.5421 17.5822 35.9854 18.8744L 37.2628 20.4133C 39.1913 18.8125 40.3265 16.6825 40.3265 14.3954L 38.3265 14.3954Z"/>
</defs>
</svg>
