<svg width="187" height="205" viewBox="0 0 187 205" version="1.1" xmlns="http://www.w3.org/2000/svg" xmlns:xlink="http://www.w3.org/1999/xlink" xmlns:figma="http://www.figma.com/figma/ns">
<title>Group</title>
<desc>Created using Figma</desc>
<g id="Canvas" transform="translate(-3207 -3270)" figma:type="canvas">
<g id="Group" figma:type="frame">
<g id="chick" figma:type="frame">
<g id="Group" figma:type="frame">
<g id="Group" figma:type="frame">
<g id="Group" figma:type="frame">
<g id="Vector" figma:type="vector">
<use xlink:href="#path0_fill" transform="translate(3362.37 3462.39)" fill="#E7831E"/>
</g>
<g id="Vector" figma:type="vector">
<use xlink:href="#path1_fill" transform="translate(3362.37 3462.38)" fill="#E7831E"/>
</g>
<g id="Vector" figma:type="vector">
<use xlink:href="#path2_fill" transform="translate(3355.59 3462.38)" fill="#E7831E"/>
</g>
</g>
<g id="Group" figma:type="frame">
<g id="Vector" figma:type="vector">
<use xlink:href="#path3_fill" transform="translate(3340.73 3462.39)" fill="#E7831E"/>
</g>
<g id="Vector" figma:type="vector">
<use xlink:href="#path4_fill" transform="translate(3340.73 3462.38)" fill="#E7831E"/>
</g>
<g id="Vector" figma:type="vector">
<use xlink:href="#path5_fill" transform="translate(3333.96 3462.38)" fill="#E7831E"/>
</g>
</g>
</g>
<g id="Group" figma:type="frame">
<g id="Group" figma:type="frame">
<g id="Vector" figma:type="vector">
<use xlink:href="#path6_fill" transform="translate(3320.33 3364.39)" fill="#FDBD2C"/>
</g>
<g id="Vector" figma:type="vector">
<use xlink:href="#path7_fill" transform="translate(3352.33 3359)" fill="#FDBD2C"/>
</g>
<g id="Vector" figma:type="vector">
<use xlink:href="#path8_fill" transform="translate(3333.07 3418.45)" fill="#F4C778"/>
</g>
</g>
<g id="Group" figma:type="frame">
<g id="Vector" figma:type="vector">
<use xlink:href="#path9_fill" transform="translate(3377.19 3419.74)" fill="#F2B02A"/>
</g>
<g id="Vector" figma:type="vector">
<use xlink:href="#path10_fill" transform="translate(3312 3419.74)" fill="#F2B02A"/>
</g>
</g>
</g>
<g id="Group" figma:type="frame">
<g id="Group" figma:type="frame">
<g id="Group" figma:type="frame">
<g id="Vector" figma:type="vector">
<use xlink:href="#path11_fill" transform="translate(3334.47 3395.13)" fill="#1A1A1A"/>
</g>
<g id="Vector" figma:type="vector">
<use xlink:href="#path12_fill" transform="translate(3338.43 3396.83)" fill="#FFFFFF"/>
</g>
</g>
<g id="Group" figma:type="frame">
<g id="Vector" figma:type="vector">
<use xlink:href="#path13_fill" transform="translate(3363.45 3395.13)" fill="#1A1A1A"/>
</g>
<g id="Vector" figma:type="vector">
<use xlink:href="#path14_fill" transform="translate(3367.42 3396.83)" fill="#FFFFFF"/>
</g>
</g>
</g>
<g id="Vector" figma:type="vector">
<use xlink:href="#path15_fill" transform="translate(3345.36 3403.29)" fill="#E7831E"/>
</g>
</g>
</g>
</g>
<g id="information" figma:type="frame">
<g id="Group" figma:type="frame">
<g id="Vector" figma:type="vector">
<use xlink:href="#path16_fill" transform="translate(3207 3270)" fill="#F7BF33"/>
</g>
<g id="Vector" figma:type="vector">
<use xlink:href="#path17_fill" transform="translate(3294.09 3357.08)" fill="#F7BF33"/>
</g>
</g>
</g>
<g id="You added a new item to your favorites" filter="url(#filter0_d)" figma:type="text">
<use xlink:href="#path18_fill" transform="translate(3219 3306)" fill="#FFFFFF"/>
</g>
</g>
</g>
<defs>
<filter id="filter0_d" filterUnits="userSpaceOnUse" x="3216" y="3308" width="96" height="56" color-interpolation-filters="sRGB">
<feFlood flood-opacity="0" result="BackgroundImageFix"/>
<desc>type="dropShadow" x="0" y="4" size="4" spread="0" color="0,0,0,0.25" blend="normal"</desc>
<feColorMatrix in="SourceAlpha" type="matrix" values="0 0 0 0 0 0 0 0 0 0 0 0 0 0 0 0 0 0 255 0"/>
<feOffset dx="0" dy="4"/>
<feGaussianBlur stdDeviation="2"/>
<feColorMatrix type="matrix" values="0 0 0 0 0 0 0 0 0 0 0 0 0 0 0 0 0 0 0.25 0"/>
<feBlend mode="normal" in2="BackgroundImageFix" result="effect1_dropShadow"/>
<feBlend mode="normal" in="SourceGraphic" in2="effect1_dropShadow" result="shape"/>
</filter>
<path id="path0_fill" fill-rule="evenodd" d="M 2.965 10.705C 2.965 11.523 2.301 12.187 1.482 12.187C 0.664 12.187 -2.0752e-06 11.523 -2.0752e-06 10.705L -2.0752e-06 1.483C -2.0752e-06 0.663996 0.664 2.13623e-06 1.482 2.13623e-06C 2.301 2.13623e-06 2.965 0.663996 2.965 1.483L 2.965 10.705Z"/>
<path id="path1_fill" fill-rule="evenodd" d="M 9.26381 6.64991C 9.86481 7.20491 9.90381 8.14191 9.34781 8.74491C 8.79281 9.34691 7.85381 9.38391 7.25281 8.82791L 0.477812 2.57192C -0.125188 2.01692 -0.162188 1.07892 0.393812 0.476915C 0.948812 -0.125085 1.88681 -0.162085 2.48881 0.393915L 9.26381 6.64991Z"/>
<path id="path2_fill" fill-rule="evenodd" d="M 0.477307 6.64991C -0.124693 7.20491 -0.162693 8.14191 0.394307 8.74491C 0.949307 9.34691 1.88731 9.38391 2.48931 8.82791L 9.26431 2.57192C 9.86631 2.01692 9.90431 1.07892 9.34831 0.476915C 8.79231 -0.125085 7.85531 -0.162085 7.25331 0.393915L 0.477307 6.64991Z"/>
<path id="path3_fill" fill-rule="evenodd" d="M 2.965 10.705C 2.965 11.523 2.302 12.187 1.482 12.187C 0.664001 12.187 -9.46045e-07 11.523 -9.46045e-07 10.705L -9.46045e-07 1.483C -9.46045e-07 0.663996 0.664001 2.13623e-06 1.482 2.13623e-06C 2.302 2.13623e-06 2.965 0.663996 2.965 1.483L 2.965 10.705Z"/>
<path id="path4_fill" fill-rule="evenodd" d="M 9.26481 6.64991C 9.86581 7.20491 9.90481 8.14191 9.34781 8.74491C 8.79281 9.34691 7.85481 9.38391 7.25281 8.82791L 0.477809 2.57192C -0.125191 2.01692 -0.162191 1.07892 0.393809 0.476915C 0.949809 -0.125085 1.88681 -0.162085 2.48881 0.393915L 9.26481 6.64991Z"/>
<path id="path5_fill" fill-rule="evenodd" d="M 0.476915 6.64991C -0.125085 7.20491 -0.162085 8.14191 0.393915 8.74491C 0.949915 9.34691 1.88692 9.38391 2.48892 8.82791L 9.26391 2.57192C 9.86691 2.01692 9.90391 1.07892 9.34791 0.476915C 8.79291 -0.125085 7.85492 -0.162085 7.25292 0.393915L 0.476915 6.64991Z"/>
<path id="path6_fill" fill-rule="evenodd" d="M 65.193 68.25C 65.193 85.924 50.866 100.25 33.193 100.25L 32 100.25C 14.327 100.25 5.34058e-07 85.924 5.34058e-07 68.25L 5.34058e-07 32C 5.34058e-07 14.326 14.327 1.14441e-08 32 1.14441e-08L 33.193 1.14441e-08C 50.866 1.14441e-08 65.193 14.326 65.193 32L 65.193 68.25Z"/>
<path id="path7_fill" fill-rule="evenodd" d="M -1.37329e-06 5.388C -1.37329e-06 5.388 14.515 5.444 17.018 0C 17.018 0 18.944 2.22 17.018 5.388C 17.018 5.388 17.187 6.553 20.188 5.388C 20.188 5.388 21.856 5.996 15.521 8.776"/>
<path id="path8_fill" fill-rule="evenodd" d="M 39.712 26.333C 39.712 37.299 30.822 46.189 19.856 46.189C 8.889 46.189 -2.44141e-07 37.298 -2.44141e-07 26.333L -2.44141e-07 19.857C -2.44141e-07 8.89 8.89 1.86157e-06 19.856 1.86157e-06C 30.823 1.86157e-06 39.712 8.891 39.712 19.857L 39.712 26.333Z"/>
<path id="path9_fill" fill-rule="evenodd" d="M 1.40381e-06 0.281867L 4.084 15.1489C 5.02 18.5589 8.543 20.5629 11.953 19.6259C 15.361 18.6899 17.366 15.1669 16.429 11.7579C 16.429 11.7579 15.437 7.12987 14.769 5.71187C 13.094 2.15287 10.076 -0.971133 1.40381e-06 0.281867Z"/>
<path id="path10_fill" fill-rule="evenodd" d="M 16.6591 0.281867L 12.5761 15.1489C 11.6391 18.5589 8.1171 20.5629 4.7081 19.6259C 1.2981 18.6899 -0.705897 15.1669 0.230103 11.7579C 0.230103 11.7579 1.2241 7.12987 1.8911 5.71187C 3.5661 2.15287 6.5841 -0.971133 16.6591 0.281867Z"/>
<path id="path11_fill" d="M 3.965 7.93C 6.15481 7.93 7.93 6.15481 7.93 3.965C 7.93 1.77519 6.15481 0 3.965 0C 1.77519 0 0 1.77519 0 3.965C 0 6.15481 1.77519 7.93 3.965 7.93Z"/>
<path id="path12_fill" fill-rule="evenodd" d="M -1.28174e-06 1.5C -1.28174e-06 0.672 0.668001 -3.35693e-07 1.496 -3.35693e-07C 2.328 -3.35693e-07 2.994 0.672 2.994 1.5C 2.994 2.326 2.328 2.998 1.496 2.998C 0.668001 2.998 -1.28174e-06 2.326 -1.28174e-06 1.5Z"/>
<path id="path13_fill" d="M 3.964 7.928C 6.15326 7.928 7.928 6.15326 7.928 3.964C 7.928 1.77474 6.15326 0 3.964 0C 1.77474 0 2.99072e-06 1.77474 2.99072e-06 3.964C 2.99072e-06 6.15326 1.77474 7.928 3.964 7.928Z"/>
<path id="path14_fill" fill-rule="evenodd" d="M -6.71387e-07 1.5C -6.71387e-07 0.672 0.668001 -3.35693e-07 1.496 -3.35693e-07C 2.328 -3.35693e-07 2.993 0.672 2.993 1.5C 2.993 2.326 2.328 2.998 1.496 2.998C 0.668001 2.998 -6.71387e-07 2.326 -6.71387e-07 1.5Z"/>
<path id="path15_fill" fill-rule="evenodd" d="M 7.562 13.098L 3.781 6.549L -9.76563e-07 -1.80054e-06L 7.562 -1.80054e-06L 15.125 -1.80054e-06L 11.344 6.549L 7.562 13.098Z"/>
<path id="path16_fill" d="M 57.0012 0C 25.5188 0 0 25.5156 0 56.9977C 0 88.4868 25.5188 114 57.0012 114C 88.4812 114 114 88.4868 114 56.9977C 114 25.5156 88.4809 0 57.0012 0Z"/>
<path id="path17_fill" d="M -6.52313e-07 18.3106L 25.0127 25.0117L 18.3106 -1.95694e-07L -6.52313e-07 18.3106Z"/>
<path id="path18_fill" d="M 3.91919 3.06L 7.16719 8.408L 10.4432 3.06L 11.5072 3.06L 7.65719 9.304L 7.65719 13L 6.67719 13L 6.67719 9.276L 2.84119 3.06L 3.91919 3.06ZM 14.5955 13.14C 14.0635 13.14 13.5782 13.042 13.1395 12.846C 12.7008 12.6407 12.3182 12.3653 11.9915 12.02C 11.6742 11.6747 11.4268 11.2733 11.2495 10.816C 11.0722 10.3587 10.9835 9.878 10.9835 9.374C 10.9835 8.86067 11.0722 8.37533 11.2495 7.918C 11.4362 7.46067 11.6882 7.05933 12.0055 6.714C 12.3322 6.36867 12.7148 6.09333 13.1535 5.888C 13.5922 5.68267 14.0728 5.58 14.5955 5.58C 15.1182 5.58 15.5988 5.68267 16.0375 5.888C 16.4855 6.09333 16.8682 6.36867 17.1855 6.714C 17.5122 7.05933 17.7642 7.46067 17.9415 7.918C 18.1282 8.37533 18.2215 8.86067 18.2215 9.374C 18.2215 9.878 18.1328 10.3587 17.9555 10.816C 17.7782 11.2733 17.5262 11.6747 17.1995 12.02C 16.8822 12.3653 16.4995 12.6407 16.0515 12.846C 15.6128 13.042 15.1275 13.14 14.5955 13.14ZM 11.9495 9.388C 11.9495 9.79867 12.0195 10.1813 12.1595 10.536C 12.2995 10.8813 12.4862 11.1893 12.7195 11.46C 12.9622 11.7213 13.2422 11.9267 13.5595 12.076C 13.8862 12.2253 14.2315 12.3 14.5955 12.3C 14.9595 12.3 15.3002 12.2253 15.6175 12.076C 15.9442 11.9173 16.2288 11.7073 16.4715 11.446C 16.7142 11.1753 16.9055 10.8627 17.0455 10.508C 17.1855 10.1533 17.2555 9.77067 17.2555 9.36C 17.2555 8.95867 17.1855 8.58067 17.0455 8.226C 16.9055 7.862 16.7142 7.54933 16.4715 7.288C 16.2288 7.01733 15.9442 6.80733 15.6175 6.658C 15.3002 6.49933 14.9595 6.42 14.5955 6.42C 14.2315 6.42 13.8908 6.49933 13.5735 6.658C 13.2562 6.80733 12.9762 7.01733 12.7335 7.288C 12.4908 7.55867 12.2995 7.876 12.1595 8.24C 12.0195 8.59467 11.9495 8.97733 11.9495 9.388ZM 22.0957 13.14C 21.3023 13.14 20.7097 12.8787 20.3177 12.356C 19.935 11.824 19.7437 11.0353 19.7437 9.99L 19.7437 5.706L 20.6957 5.706L 20.6957 9.822C 20.6957 11.474 21.2603 12.3 22.3897 12.3C 22.6697 12.3 22.945 12.2533 23.2157 12.16C 23.4863 12.0667 23.7337 11.9313 23.9577 11.754C 24.191 11.5767 24.3963 11.3667 24.5737 11.124C 24.7603 10.8813 24.9097 10.606 25.0217 10.298L 25.0217 5.706L 25.9737 5.706L 25.9737 11.768C 25.9737 12.0293 26.0857 12.16 26.3097 12.16L 26.3097 13C 26.1977 13.0187 26.1043 13.028 26.0297 13.028C 25.9643 13.028 25.9177 13.028 25.8897 13.028C 25.6657 13.0187 25.4837 12.9393 25.3437 12.79C 25.2037 12.6407 25.1337 12.44 25.1337 12.188L 25.1337 11.348C 24.8163 11.9173 24.3823 12.3607 23.8317 12.678C 23.2903 12.986 22.7117 13.14 22.0957 13.14ZM 33.5285 13.14C 33.1832 13.14 32.8612 13.084 32.5625 12.972C 32.2732 12.8507 32.0165 12.6873 31.7925 12.482C 31.5779 12.2767 31.4099 12.0387 31.2885 11.768C 31.1672 11.488 31.1065 11.1893 31.1065 10.872C 31.1065 10.5547 31.1812 10.2607 31.3305 9.99C 31.4799 9.71933 31.6899 9.486 31.9605 9.29C 32.2312 9.094 32.5532 8.94467 32.9265 8.842C 33.2999 8.73 33.7105 8.674 34.1585 8.674C 34.5319 8.674 34.9099 8.70667 35.2925 8.772C 35.6752 8.83733 36.0159 8.93067 36.3145 9.052L 36.3145 8.394C 36.3145 7.75 36.1325 7.24133 35.7685 6.868C 35.4045 6.48533 34.9005 6.294 34.2565 6.294C 33.8832 6.294 33.5005 6.36867 33.1085 6.518C 32.7165 6.66733 32.3199 6.882 31.9185 7.162L 31.5825 6.532C 32.5252 5.89733 33.4399 5.58 34.3265 5.58C 35.2412 5.58 35.9599 5.83667 36.4825 6.35C 37.0052 6.86333 37.2665 7.57267 37.2665 8.478L 37.2665 11.768C 37.2665 12.0293 37.3832 12.16 37.6165 12.16L 37.6165 13C 37.4579 13.028 37.3365 13.042 37.2525 13.042C 37.0099 13.042 36.8185 12.9813 36.6785 12.86C 36.5479 12.7387 36.4779 12.5707 36.4685 12.356L 36.4405 11.782C 36.1045 12.2207 35.6799 12.5567 35.1665 12.79C 34.6625 13.0233 34.1165 13.14 33.5285 13.14ZM 33.7525 12.412C 34.2472 12.412 34.6999 12.3187 35.1105 12.132C 35.5305 11.9453 35.8479 11.698 36.0625 11.39C 36.1465 11.306 36.2072 11.2173 36.2445 11.124C 36.2912 11.0213 36.3145 10.928 36.3145 10.844L 36.3145 9.654C 35.9972 9.53267 35.6659 9.43933 35.3205 9.374C 34.9845 9.30867 34.6392 9.276 34.2845 9.276C 33.6125 9.276 33.0665 9.416 32.6465 9.696C 32.2265 9.976 32.0165 10.3447 32.0165 10.802C 32.0165 11.026 32.0585 11.236 32.1425 11.432C 32.2359 11.628 32.3572 11.8007 32.5065 11.95C 32.6652 12.09 32.8519 12.202 33.0665 12.286C 33.2812 12.37 33.5099 12.412 33.7525 12.412ZM 42.3194 13.14C 41.8154 13.14 41.3488 13.0373 40.9194 12.832C 40.4901 12.6173 40.1214 12.3373 39.8134 11.992C 39.5054 11.6467 39.2628 11.25 39.0854 10.802C 38.9174 10.3447 38.8334 9.86867 38.8334 9.374C 38.8334 8.86067 38.9174 8.37533 39.0854 7.918C 39.2534 7.45133 39.4821 7.04533 39.7714 6.7C 40.0701 6.35467 40.4201 6.084 40.8214 5.888C 41.2321 5.68267 41.6801 5.58 42.1654 5.58C 42.7814 5.58 43.3274 5.74333 43.8034 6.07C 44.2794 6.38733 44.6528 6.77467 44.9234 7.232L 44.9234 2.78L 45.8754 2.78L 45.8754 11.768C 45.8754 12.0293 45.9874 12.16 46.2114 12.16L 46.2114 13C 46.0714 13.028 45.9594 13.042 45.8754 13.042C 45.6514 13.042 45.4554 12.972 45.2874 12.832C 45.1194 12.6827 45.0354 12.5053 45.0354 12.3L 45.0354 11.586C 44.7461 12.062 44.3541 12.44 43.8594 12.72C 43.3648 13 42.8514 13.14 42.3194 13.14ZM 42.5294 12.3C 42.7628 12.3 43.0101 12.2533 43.2714 12.16C 43.5421 12.0667 43.7941 11.9407 44.0274 11.782C 44.2608 11.614 44.4568 11.4227 44.6154 11.208C 44.7834 10.984 44.8861 10.746 44.9234 10.494L 44.9234 8.24C 44.8301 7.988 44.6948 7.75467 44.5174 7.54C 44.3401 7.316 44.1348 7.12 43.9014 6.952C 43.6774 6.784 43.4348 6.65333 43.1734 6.56C 42.9121 6.46667 42.6554 6.42 42.4034 6.42C 42.0114 6.42 41.6568 6.504 41.3394 6.672C 41.0221 6.84 40.7468 7.064 40.5134 7.344C 40.2894 7.61467 40.1168 7.92733 39.9954 8.282C 39.8741 8.63667 39.8134 9.00067 39.8134 9.374C 39.8134 9.766 39.8834 10.1393 40.0234 10.494C 40.1634 10.8487 40.3548 11.1613 40.5974 11.432C 40.8401 11.6933 41.1248 11.9033 41.4514 12.062C 41.7874 12.2207 42.1468 12.3 42.5294 12.3ZM 51.0284 13.14C 50.5244 13.14 50.0578 13.0373 49.6284 12.832C 49.1991 12.6173 48.8304 12.3373 48.5224 11.992C 48.2144 11.6467 47.9718 11.25 47.7944 10.802C 47.6264 10.3447 47.5424 9.86867 47.5424 9.374C 47.5424 8.86067 47.6264 8.37533 47.7944 7.918C 47.9624 7.45133 48.1911 7.04533 48.4804 6.7C 48.7791 6.35467 49.1291 6.084 49.5304 5.888C 49.9411 5.68267 50.3891 5.58 50.8744 5.58C 51.4904 5.58 52.0364 5.74333 52.5124 6.07C 52.9884 6.38733 53.3618 6.77467 53.6324 7.232L 53.6324 2.78L 54.5844 2.78L 54.5844 11.768C 54.5844 12.0293 54.6964 12.16 54.9204 12.16L 54.9204 13C 54.7804 13.028 54.6684 13.042 54.5844 13.042C 54.3604 13.042 54.1644 12.972 53.9964 12.832C 53.8284 12.6827 53.7444 12.5053 53.7444 12.3L 53.7444 11.586C 53.4551 12.062 53.0631 12.44 52.5684 12.72C 52.0738 13 51.5604 13.14 51.0284 13.14ZM 51.2384 12.3C 51.4718 12.3 51.7191 12.2533 51.9804 12.16C 52.2511 12.0667 52.5031 11.9407 52.7364 11.782C 52.9698 11.614 53.1658 11.4227 53.3244 11.208C 53.4924 10.984 53.5951 10.746 53.6324 10.494L 53.6324 8.24C 53.5391 7.988 53.4038 7.75467 53.2264 7.54C 53.0491 7.316 52.8438 7.12 52.6104 6.952C 52.3864 6.784 52.1438 6.65333 51.8824 6.56C 51.6211 6.46667 51.3644 6.42 51.1124 6.42C 50.7204 6.42 50.3658 6.504 50.0484 6.672C 49.7311 6.84 49.4558 7.064 49.2224 7.344C 48.9984 7.61467 48.8258 7.92733 48.7044 8.282C 48.5831 8.63667 48.5224 9.00067 48.5224 9.374C 48.5224 9.766 48.5924 10.1393 48.7324 10.494C 48.8724 10.8487 49.0638 11.1613 49.3064 11.432C 49.5491 11.6933 49.8338 11.9033 50.1604 12.062C 50.4964 12.2207 50.8558 12.3 51.2384 12.3ZM 59.8914 13.14C 59.3594 13.14 58.8694 13.042 58.4214 12.846C 57.9827 12.6407 57.6001 12.3653 57.2734 12.02C 56.9467 11.6653 56.6901 11.2593 56.5034 10.802C 56.3261 10.3447 56.2374 9.85467 56.2374 9.332C 56.2374 8.81867 56.3261 8.338 56.5034 7.89C 56.6901 7.43267 56.9421 7.036 57.2594 6.7C 57.5861 6.35467 57.9734 6.084 58.4214 5.888C 58.8694 5.68267 59.3547 5.58 59.8774 5.58C 60.4094 5.58 60.8947 5.68267 61.3334 5.888C 61.7814 6.084 62.1641 6.35467 62.4814 6.7C 62.7987 7.04533 63.0461 7.442 63.2234 7.89C 63.4007 8.338 63.4894 8.814 63.4894 9.318C 63.4894 9.39267 63.4894 9.46733 63.4894 9.542C 63.4894 9.61667 63.4847 9.668 63.4754 9.696L 57.2314 9.696C 57.2594 10.088 57.3481 10.452 57.4974 10.788C 57.6561 11.1147 57.8567 11.3993 58.0994 11.642C 58.3421 11.8847 58.6174 12.076 58.9254 12.216C 59.2427 12.3467 59.5787 12.412 59.9334 12.412C 60.1667 12.412 60.4001 12.3793 60.6334 12.314C 60.8667 12.2487 61.0814 12.16 61.2774 12.048C 61.4734 11.936 61.6507 11.8007 61.8094 11.642C 61.9681 11.474 62.0894 11.292 62.1734 11.096L 62.9994 11.32C 62.8874 11.5907 62.7287 11.838 62.5234 12.062C 62.3181 12.2767 62.0801 12.468 61.8094 12.636C 61.5387 12.7947 61.2401 12.916 60.9134 13C 60.5867 13.0933 60.2461 13.14 59.8914 13.14ZM 62.5794 8.968C 62.5514 8.576 62.4581 8.22133 62.2994 7.904C 62.1501 7.57733 61.9541 7.29733 61.7114 7.064C 61.4781 6.83067 61.2027 6.64867 60.8854 6.518C 60.5774 6.38733 60.2461 6.322 59.8914 6.322C 59.5367 6.322 59.2007 6.38733 58.8834 6.518C 58.5661 6.64867 58.2861 6.83067 58.0434 7.064C 57.8101 7.29733 57.6187 7.57733 57.4694 7.904C 57.3294 8.23067 57.2454 8.58533 57.2174 8.968L 62.5794 8.968ZM 67.9542 13.14C 67.4502 13.14 66.9835 13.0373 66.5542 12.832C 66.1249 12.6173 65.7562 12.3373 65.4482 11.992C 65.1402 11.6467 64.8975 11.25 64.7202 10.802C 64.5522 10.3447 64.4682 9.86867 64.4682 9.374C 64.4682 8.86067 64.5522 8.37533 64.7202 7.918C 64.8882 7.45133 65.1169 7.04533 65.4062 6.7C 65.7049 6.35467 66.0549 6.084 66.4562 5.888C 66.8669 5.68267 67.3149 5.58 67.8002 5.58C 68.4162 5.58 68.9622 5.74333 69.4382 6.07C 69.9142 6.38733 70.2875 6.77467 70.5582 7.232L 70.5582 2.78L 71.5102 2.78L 71.5102 11.768C 71.5102 12.0293 71.6222 12.16 71.8462 12.16L 71.8462 13C 71.7062 13.028 71.5942 13.042 71.5102 13.042C 71.2862 13.042 71.0902 12.972 70.9222 12.832C 70.7542 12.6827 70.6702 12.5053 70.6702 12.3L 70.6702 11.586C 70.3809 12.062 69.9889 12.44 69.4942 12.72C 68.9995 13 68.4862 13.14 67.9542 13.14ZM 68.1642 12.3C 68.3975 12.3 68.6449 12.2533 68.9062 12.16C 69.1769 12.0667 69.4289 11.9407 69.6622 11.782C 69.8955 11.614 70.0915 11.4227 70.2502 11.208C 70.4182 10.984 70.5209 10.746 70.5582 10.494L 70.5582 8.24C 70.4649 7.988 70.3295 7.75467 70.1522 7.54C 69.9749 7.316 69.7695 7.12 69.5362 6.952C 69.3122 6.784 69.0695 6.65333 68.8082 6.56C 68.5469 6.46667 68.2902 6.42 68.0382 6.42C 67.6462 6.42 67.2915 6.504 66.9742 6.672C 66.6569 6.84 66.3815 7.064 66.1482 7.344C 65.9242 7.61467 65.7515 7.92733 65.6302 8.282C 65.5089 8.63667 65.4482 9.00067 65.4482 9.374C 65.4482 9.766 65.5182 10.1393 65.6582 10.494C 65.7982 10.8487 65.9895 11.1613 66.2322 11.432C 66.4749 11.6933 66.7595 11.9033 67.0862 12.062C 67.4222 12.2207 67.7815 12.3 68.1642 12.3ZM 79.0695 13.14C 78.7242 13.14 78.4022 13.084 78.1035 12.972C 77.8142 12.8507 77.5575 12.6873 77.3335 12.482C 77.1189 12.2767 76.9509 12.0387 76.8295 11.768C 76.7082 11.488 76.6475 11.1893 76.6475 10.872C 76.6475 10.5547 76.7222 10.2607 76.8715 9.99C 77.0209 9.71933 77.2309 9.486 77.5015 9.29C 77.7722 9.094 78.0942 8.94467 78.4675 8.842C 78.8409 8.73 79.2515 8.674 79.6995 8.674C 80.0729 8.674 80.4509 8.70667 80.8335 8.772C 81.2162 8.83733 81.5569 8.93067 81.8555 9.052L 81.8555 8.394C 81.8555 7.75 81.6735 7.24133 81.3095 6.868C 80.9455 6.48533 80.4415 6.294 79.7975 6.294C 79.4242 6.294 79.0415 6.36867 78.6495 6.518C 78.2575 6.66733 77.8609 6.882 77.4595 7.162L 77.1235 6.532C 78.0662 5.89733 78.9809 5.58 79.8675 5.58C 80.7822 5.58 81.5009 5.83667 82.0235 6.35C 82.5462 6.86333 82.8075 7.57267 82.8075 8.478L 82.8075 11.768C 82.8075 12.0293 82.9242 12.16 83.1575 12.16L 83.1575 13C 82.9989 13.028 82.8775 13.042 82.7935 13.042C 82.5509 13.042 82.3595 12.9813 82.2195 12.86C 82.0889 12.7387 82.0189 12.5707 82.0095 12.356L 81.9815 11.782C 81.6455 12.2207 81.2209 12.5567 80.7075 12.79C 80.2035 13.0233 79.6575 13.14 79.0695 13.14ZM 79.2935 12.412C 79.7882 12.412 80.2409 12.3187 80.6515 12.132C 81.0715 11.9453 81.3889 11.698 81.6035 11.39C 81.6875 11.306 81.7482 11.2173 81.7855 11.124C 81.8322 11.0213 81.8555 10.928 81.8555 10.844L 81.8555 9.654C 81.5382 9.53267 81.2069 9.43933 80.8615 9.374C 80.5255 9.30867 80.1802 9.276 79.8255 9.276C 79.1535 9.276 78.6075 9.416 78.1875 9.696C 77.7675 9.976 77.5575 10.3447 77.5575 10.802C 77.5575 11.026 77.5995 11.236 77.6835 11.432C 77.7769 11.628 77.8982 11.8007 78.0475 11.95C 78.2062 12.09 78.3929 12.202 78.6075 12.286C 78.8222 12.37 79.0509 12.412 79.2935 12.412ZM 14.2767 30L 13.3247 30L 13.3247 25.926C 13.3247 25.058 13.1941 24.428 12.9327 24.036C 12.6807 23.644 12.2887 23.448 11.7567 23.448C 11.4767 23.448 11.1967 23.4993 10.9167 23.602C 10.6367 23.7047 10.3754 23.8493 10.1327 24.036C 9.89939 24.2227 9.68939 24.4467 9.50273 24.708C 9.31606 24.96 9.18073 25.2353 9.09673 25.534L 9.09673 30L 8.14473 30L 8.14473 22.706L 9.01273 22.706L 9.01273 24.358C 9.31139 23.826 9.73606 23.3967 10.2867 23.07C 10.8467 22.7433 11.4534 22.58 12.1067 22.58C 12.5081 22.58 12.8487 22.6547 13.1287 22.804C 13.4087 22.9533 13.6327 23.1633 13.8007 23.434C 13.9687 23.7047 14.0901 24.036 14.1647 24.428C 14.2394 24.82 14.2767 25.254 14.2767 25.73L 14.2767 30ZM 19.4568 30.14C 18.9248 30.14 18.4348 30.042 17.9868 29.846C 17.5482 29.6407 17.1655 29.3653 16.8388 29.02C 16.5122 28.6653 16.2555 28.2593 16.0688 27.802C 15.8915 27.3447 15.8028 26.8547 15.8028 26.332C 15.8028 25.8187 15.8915 25.338 16.0688 24.89C 16.2555 24.4327 16.5075 24.036 16.8248 23.7C 17.1515 23.3547 17.5388 23.084 17.9868 22.888C 18.4348 22.6827 18.9202 22.58 19.4428 22.58C 19.9748 22.58 20.4602 22.6827 20.8988 22.888C 21.3468 23.084 21.7295 23.3547 22.0468 23.7C 22.3642 24.0453 22.6115 24.442 22.7888 24.89C 22.9662 25.338 23.0548 25.814 23.0548 26.318C 23.0548 26.3927 23.0548 26.4673 23.0548 26.542C 23.0548 26.6167 23.0502 26.668 23.0408 26.696L 16.7968 26.696C 16.8248 27.088 16.9135 27.452 17.0628 27.788C 17.2215 28.1147 17.4222 28.3993 17.6648 28.642C 17.9075 28.8847 18.1828 29.076 18.4908 29.216C 18.8082 29.3467 19.1442 29.412 19.4988 29.412C 19.7322 29.412 19.9655 29.3793 20.1988 29.314C 20.4322 29.2487 20.6468 29.16 20.8428 29.048C 21.0388 28.936 21.2162 28.8007 21.3748 28.642C 21.5335 28.474 21.6548 28.292 21.7388 28.096L 22.5648 28.32C 22.4528 28.5907 22.2942 28.838 22.0888 29.062C 21.8835 29.2767 21.6455 29.468 21.3748 29.636C 21.1042 29.7947 20.8055 29.916 20.4788 30C 20.1522 30.0933 19.8115 30.14 19.4568 30.14ZM 22.1448 25.968C 22.1168 25.576 22.0235 25.2213 21.8648 24.904C 21.7155 24.5773 21.5195 24.2973 21.2768 24.064C 21.0435 23.8307 20.7682 23.6487 20.4508 23.518C 20.1428 23.3873 19.8115 23.322 19.4568 23.322C 19.1022 23.322 18.7662 23.3873 18.4488 23.518C 18.1315 23.6487 17.8515 23.8307 17.6088 24.064C 17.3755 24.2973 17.1842 24.5773 17.0348 24.904C 16.8948 25.2307 16.8108 25.5853 16.7828 25.968L 22.1448 25.968ZM 33.5162 22.706L 34.4542 22.706L 31.3182 30L 30.5342 30L 28.9662 26.276L 27.4122 30L 26.6282 30L 23.4922 22.706L 24.4162 22.706L 27.0762 29.02L 28.4622 25.688L 27.2162 22.72L 28.0142 22.72L 28.9662 25.1L 29.9182 22.72L 30.7302 22.72L 29.4842 25.688L 30.8702 29.02L 33.5162 22.706ZM 38.9064 30L 38.9064 22.706L 39.8584 22.706L 39.8584 30L 38.9064 30ZM 38.9064 21.18L 38.9064 19.78L 39.8584 19.78L 39.8584 21.18L 38.9064 21.18ZM 45.4553 29.65C 45.3993 29.678 45.3153 29.7153 45.2033 29.762C 45.1006 29.8087 44.9793 29.8553 44.8393 29.902C 44.6993 29.9487 44.5406 29.9907 44.3633 30.028C 44.1859 30.0653 43.9993 30.084 43.8033 30.084C 43.5979 30.084 43.4019 30.056 43.2153 30C 43.0286 29.944 42.8653 29.86 42.7253 29.748C 42.5853 29.6267 42.4733 29.4773 42.3893 29.3C 42.3053 29.1227 42.2633 28.9173 42.2633 28.684L 42.2633 23.462L 41.2553 23.462L 41.2553 22.706L 42.2633 22.706L 42.2633 20.242L 43.2153 20.242L 43.2153 22.706L 44.8953 22.706L 44.8953 23.462L 43.2153 23.462L 43.2153 28.418C 43.2339 28.6887 43.3273 28.8893 43.4953 29.02C 43.6726 29.1413 43.8733 29.202 44.0973 29.202C 44.3679 29.202 44.6059 29.16 44.8113 29.076C 45.0166 28.9827 45.1473 28.9173 45.2033 28.88L 45.4553 29.65ZM 49.617 30.14C 49.085 30.14 48.595 30.042 48.147 29.846C 47.7083 29.6407 47.3257 29.3653 46.999 29.02C 46.6723 28.6653 46.4157 28.2593 46.229 27.802C 46.0517 27.3447 45.963 26.8547 45.963 26.332C 45.963 25.8187 46.0517 25.338 46.229 24.89C 46.4157 24.4327 46.6677 24.036 46.985 23.7C 47.3117 23.3547 47.699 23.084 48.147 22.888C 48.595 22.6827 49.0803 22.58 49.603 22.58C 50.135 22.58 50.6203 22.6827 51.059 22.888C 51.507 23.084 51.8897 23.3547 52.207 23.7C 52.5243 24.0453 52.7717 24.442 52.949 24.89C 53.1263 25.338 53.215 25.814 53.215 26.318C 53.215 26.3927 53.215 26.4673 53.215 26.542C 53.215 26.6167 53.2103 26.668 53.201 26.696L 46.957 26.696C 46.985 27.088 47.0737 27.452 47.223 27.788C 47.3817 28.1147 47.5823 28.3993 47.825 28.642C 48.0677 28.8847 48.343 29.076 48.651 29.216C 48.9683 29.3467 49.3043 29.412 49.659 29.412C 49.8923 29.412 50.1257 29.3793 50.359 29.314C 50.5923 29.2487 50.807 29.16 51.003 29.048C 51.199 28.936 51.3763 28.8007 51.535 28.642C 51.6937 28.474 51.815 28.292 51.899 28.096L 52.725 28.32C 52.613 28.5907 52.4543 28.838 52.249 29.062C 52.0437 29.2767 51.8057 29.468 51.535 29.636C 51.2643 29.7947 50.9657 29.916 50.639 30C 50.3123 30.0933 49.9717 30.14 49.617 30.14ZM 52.305 25.968C 52.277 25.576 52.1837 25.2213 52.025 24.904C 51.8757 24.5773 51.6797 24.2973 51.437 24.064C 51.2037 23.8307 50.9283 23.6487 50.611 23.518C 50.303 23.3873 49.9717 23.322 49.617 23.322C 49.2623 23.322 48.9263 23.3873 48.609 23.518C 48.2917 23.6487 48.0117 23.8307 47.769 24.064C 47.5357 24.2973 47.3443 24.5773 47.195 24.904C 47.055 25.2307 46.971 25.5853 46.943 25.968L 52.305 25.968ZM 65.5338 30L 64.5818 30L 64.5818 25.926C 64.5818 25.0767 64.4465 24.4513 64.1758 24.05C 63.9051 23.6487 63.5038 23.448 62.9718 23.448C 62.6918 23.448 62.4258 23.4993 62.1738 23.602C 61.9311 23.7047 61.7025 23.8493 61.4878 24.036C 61.2825 24.2227 61.1005 24.4467 60.9418 24.708C 60.7831 24.96 60.6618 25.24 60.5778 25.548L 60.5778 30L 59.6258 30L 59.6258 25.926C 59.6258 25.058 59.4951 24.428 59.2338 24.036C 58.9725 23.644 58.5711 23.448 58.0298 23.448C 57.4791 23.448 56.9891 23.6393 56.5598 24.022C 56.1305 24.4047 55.8225 24.9087 55.6358 25.534L 55.6358 30L 54.6838 30L 54.6838 22.706L 55.5518 22.706L 55.5518 24.358C 55.8505 23.798 56.2425 23.364 56.7278 23.056C 57.2131 22.7387 57.7498 22.58 58.3378 22.58C 58.9538 22.58 59.4438 22.7527 59.8078 23.098C 60.1811 23.4433 60.4098 23.896 60.4938 24.456C 61.1751 23.2053 62.1131 22.58 63.3078 22.58C 63.7185 22.58 64.0638 22.6547 64.3438 22.804C 64.6331 22.9533 64.8618 23.168 65.0298 23.448C 65.2071 23.7187 65.3331 24.05 65.4078 24.442C 65.4918 24.8247 65.5338 25.254 65.5338 25.73L 65.5338 30ZM 74.6174 29.65C 74.5614 29.678 74.4774 29.7153 74.3654 29.762C 74.2627 29.8087 74.1414 29.8553 74.0014 29.902C 73.8614 29.9487 73.7027 29.9907 73.5254 30.028C 73.348 30.0653 73.1614 30.084 72.9654 30.084C 72.76 30.084 72.564 30.056 72.3774 30C 72.1907 29.944 72.0274 29.86 71.8874 29.748C 71.7474 29.6267 71.6354 29.4773 71.5514 29.3C 71.4674 29.1227 71.4254 28.9173 71.4254 28.684L 71.4254 23.462L 70.4174 23.462L 70.4174 22.706L 71.4254 22.706L 71.4254 20.242L 72.3774 20.242L 72.3774 22.706L 74.0574 22.706L 74.0574 23.462L 72.3774 23.462L 72.3774 28.418C 72.396 28.6887 72.4894 28.8893 72.6574 29.02C 72.8347 29.1413 73.0354 29.202 73.2594 29.202C 73.53 29.202 73.768 29.16 73.9734 29.076C 74.1787 28.9827 74.3094 28.9173 74.3654 28.88L 74.6174 29.65ZM 78.7371 30.14C 78.2051 30.14 77.7198 30.042 77.2811 29.846C 76.8424 29.6407 76.4598 29.3653 76.1331 29.02C 75.8158 28.6747 75.5684 28.2733 75.3911 27.816C 75.2138 27.3587 75.1251 26.878 75.1251 26.374C 75.1251 25.8607 75.2138 25.3753 75.3911 24.918C 75.5778 24.4607 75.8298 24.0593 76.1471 23.714C 76.4738 23.3687 76.8564 23.0933 77.2951 22.888C 77.7338 22.6827 78.2144 22.58 78.7371 22.58C 79.2598 22.58 79.7404 22.6827 80.1791 22.888C 80.6271 23.0933 81.0098 23.3687 81.3271 23.714C 81.6538 24.0593 81.9058 24.4607 82.0831 24.918C 82.2698 25.3753 82.3631 25.8607 82.3631 26.374C 82.3631 26.878 82.2744 27.3587 82.0971 27.816C 81.9198 28.2733 81.6678 28.6747 81.3411 29.02C 81.0238 29.3653 80.6411 29.6407 80.1931 29.846C 79.7544 30.042 79.2691 30.14 78.7371 30.14ZM 76.0911 26.388C 76.0911 26.7987 76.1611 27.1813 76.3011 27.536C 76.4411 27.8813 76.6278 28.1893 76.8611 28.46C 77.1038 28.7213 77.3838 28.9267 77.7011 29.076C 78.0278 29.2253 78.3731 29.3 78.7371 29.3C 79.1011 29.3 79.4418 29.2253 79.7591 29.076C 80.0858 28.9173 80.3704 28.7073 80.6131 28.446C 80.8558 28.1753 81.0471 27.8627 81.1871 27.508C 81.3271 27.1533 81.3971 26.7707 81.3971 26.36C 81.3971 25.9587 81.3271 25.5807 81.1871 25.226C 81.0471 24.862 80.8558 24.5493 80.6131 24.288C 80.3704 24.0173 80.0858 23.8073 79.7591 23.658C 79.4418 23.4993 79.1011 23.42 78.7371 23.42C 78.3731 23.42 78.0324 23.4993 77.7151 23.658C 77.3978 23.8073 77.1178 24.0173 76.8751 24.288C 76.6324 24.5587 76.4411 24.876 76.3011 25.24C 76.1611 25.5947 76.0911 25.9773 76.0911 26.388ZM 2.91141 48.24C 2.98607 48.2493 3.05607 48.254 3.12141 48.254C 3.19607 48.2633 3.26607 48.268 3.33141 48.268C 3.49941 48.268 3.63007 48.2447 3.72341 48.198C 3.82607 48.1513 3.92407 48.0487 4.01741 47.89C 4.11074 47.7313 4.21341 47.5027 4.32541 47.204C 4.44674 46.9053 4.61474 46.504 4.82941 46L 1.65141 38.706L 2.63141 38.706L 5.33341 45.118L 7.83941 38.706L 8.74941 38.706L 4.96941 48.114C 4.86674 48.3847 4.69407 48.618 4.45141 48.814C 4.21807 49.0193 3.89607 49.122 3.48541 49.122C 3.39207 49.122 3.30341 49.1173 3.21941 49.108C 3.13541 49.108 3.03274 49.0987 2.91141 49.08L 2.91141 48.24ZM 12.9412 46.14C 12.4092 46.14 11.9239 46.042 11.4852 45.846C 11.0465 45.6407 10.6639 45.3653 10.3372 45.02C 10.0199 44.6747 9.77254 44.2733 9.5952 43.816C 9.41787 43.3587 9.3292 42.878 9.3292 42.374C 9.3292 41.8607 9.41787 41.3753 9.5952 40.918C 9.78187 40.4607 10.0339 40.0593 10.3512 39.714C 10.6779 39.3687 11.0605 39.0933 11.4992 38.888C 11.9379 38.6827 12.4185 38.58 12.9412 38.58C 13.4639 38.58 13.9445 38.6827 14.3832 38.888C 14.8312 39.0933 15.2139 39.3687 15.5312 39.714C 15.8579 40.0593 16.1099 40.4607 16.2872 40.918C 16.4739 41.3753 16.5672 41.8607 16.5672 42.374C 16.5672 42.878 16.4785 43.3587 16.3012 43.816C 16.1239 44.2733 15.8719 44.6747 15.5452 45.02C 15.2279 45.3653 14.8452 45.6407 14.3972 45.846C 13.9585 46.042 13.4732 46.14 12.9412 46.14ZM 10.2952 42.388C 10.2952 42.7987 10.3652 43.1813 10.5052 43.536C 10.6452 43.8813 10.8319 44.1893 11.0652 44.46C 11.3079 44.7213 11.5879 44.9267 11.9052 45.076C 12.2319 45.2253 12.5772 45.3 12.9412 45.3C 13.3052 45.3 13.6459 45.2253 13.9632 45.076C 14.2899 44.9173 14.5745 44.7073 14.8172 44.446C 15.0599 44.1753 15.2512 43.8627 15.3912 43.508C 15.5312 43.1533 15.6012 42.7707 15.6012 42.36C 15.6012 41.9587 15.5312 41.5807 15.3912 41.226C 15.2512 40.862 15.0599 40.5493 14.8172 40.288C 14.5745 40.0173 14.2899 39.8073 13.9632 39.658C 13.6459 39.4993 13.3052 39.42 12.9412 39.42C 12.5772 39.42 12.2365 39.4993 11.9192 39.658C 11.6019 39.8073 11.3219 40.0173 11.0792 40.288C 10.8365 40.5587 10.6452 40.876 10.5052 41.24C 10.3652 41.5947 10.2952 41.9773 10.2952 42.388ZM 20.4414 46.14C 19.648 46.14 19.0554 45.8787 18.6634 45.356C 18.2807 44.824 18.0894 44.0353 18.0894 42.99L 18.0894 38.706L 19.0414 38.706L 19.0414 42.822C 19.0414 44.474 19.606 45.3 20.7354 45.3C 21.0154 45.3 21.2907 45.2533 21.5614 45.16C 21.832 45.0667 22.0794 44.9313 22.3034 44.754C 22.5367 44.5767 22.742 44.3667 22.9194 44.124C 23.106 43.8813 23.2554 43.606 23.3674 43.298L 23.3674 38.706L 24.3194 38.706L 24.3194 44.768C 24.3194 45.0293 24.4314 45.16 24.6554 45.16L 24.6554 46C 24.5434 46.0187 24.45 46.028 24.3754 46.028C 24.31 46.028 24.2634 46.028 24.2354 46.028C 24.0114 46.0187 23.8294 45.9393 23.6894 45.79C 23.5494 45.6407 23.4794 45.44 23.4794 45.188L 23.4794 44.348C 23.162 44.9173 22.728 45.3607 22.1774 45.678C 21.636 45.986 21.0574 46.14 20.4414 46.14ZM 30.1119 39.546C 29.4679 39.5647 28.9079 39.742 28.4319 40.078C 27.9559 40.414 27.6199 40.876 27.4239 41.464L 27.4239 46L 26.4719 46L 26.4719 38.706L 27.3679 38.706L 27.3679 40.456C 27.6385 39.896 28.0025 39.4573 28.4599 39.14C 28.9172 38.8227 29.4072 38.664 29.9299 38.664C 30.0045 38.664 30.0652 38.6687 30.1119 38.678L 30.1119 39.546ZM 34.9566 46L 34.9566 39.462L 33.9486 39.462L 33.9486 38.706L 34.9566 38.706L 34.9566 38.51C 34.9566 37.614 35.148 36.914 35.5306 36.41C 35.9133 35.8967 36.436 35.64 37.0986 35.64C 37.388 35.64 37.668 35.682 37.9386 35.766C 38.2093 35.85 38.4426 35.962 38.6386 36.102L 38.3446 36.788C 38.214 36.6853 38.0506 36.606 37.8546 36.55C 37.668 36.494 37.4766 36.466 37.2806 36.466C 36.8326 36.466 36.492 36.6387 36.2586 36.984C 36.0253 37.3293 35.9086 37.8287 35.9086 38.482L 35.9086 38.706L 37.9246 38.706L 37.9246 39.462L 35.9086 39.462L 35.9086 46L 34.9566 46ZM 40.9524 46.14C 40.607 46.14 40.285 46.084 39.9864 45.972C 39.697 45.8507 39.4404 45.6873 39.2164 45.482C 39.0017 45.2767 38.8337 45.0387 38.7124 44.768C 38.591 44.488 38.5304 44.1893 38.5304 43.872C 38.5304 43.5547 38.605 43.2607 38.7544 42.99C 38.9037 42.7193 39.1137 42.486 39.3844 42.29C 39.655 42.094 39.977 41.9447 40.3504 41.842C 40.7237 41.73 41.1344 41.674 41.5824 41.674C 41.9557 41.674 42.3337 41.7067 42.7164 41.772C 43.099 41.8373 43.4397 41.9307 43.7384 42.052L 43.7384 41.394C 43.7384 40.75 43.5564 40.2413 43.1924 39.868C 42.8284 39.4853 42.3244 39.294 41.6804 39.294C 41.307 39.294 40.9244 39.3687 40.5324 39.518C 40.1404 39.6673 39.7437 39.882 39.3424 40.162L 39.0064 39.532C 39.949 38.8973 40.8637 38.58 41.7504 38.58C 42.665 38.58 43.3837 38.8367 43.9064 39.35C 44.429 39.8633 44.6904 40.5727 44.6904 41.478L 44.6904 44.768C 44.6904 45.0293 44.807 45.16 45.0404 45.16L 45.0404 46C 44.8817 46.028 44.7604 46.042 44.6764 46.042C 44.4337 46.042 44.2424 45.9813 44.1024 45.86C 43.9717 45.7387 43.9017 45.5707 43.8924 45.356L 43.8644 44.782C 43.5284 45.2207 43.1037 45.5567 42.5904 45.79C 42.0864 46.0233 41.5404 46.14 40.9524 46.14ZM 41.1764 45.412C 41.671 45.412 42.1237 45.3187 42.5344 45.132C 42.9544 44.9453 43.2717 44.698 43.4864 44.39C 43.5704 44.306 43.631 44.2173 43.6684 44.124C 43.715 44.0213 43.7384 43.928 43.7384 43.844L 43.7384 42.654C 43.421 42.5327 43.0897 42.4393 42.7444 42.374C 42.4084 42.3087 42.063 42.276 41.7084 42.276C 41.0364 42.276 40.4904 42.416 40.0704 42.696C 39.6504 42.976 39.4404 43.3447 39.4404 43.802C 39.4404 44.026 39.4824 44.236 39.5664 44.432C 39.6597 44.628 39.781 44.8007 39.9304 44.95C 40.089 45.09 40.2757 45.202 40.4904 45.286C 40.705 45.37 40.9337 45.412 41.1764 45.412ZM 48.7399 46L 45.7719 38.706L 46.7519 38.706L 49.2579 45.118L 51.7779 38.706L 52.7019 38.706L 49.7339 46L 48.7399 46ZM 56.8826 46.14C 56.3506 46.14 55.8653 46.042 55.4266 45.846C 54.9879 45.6407 54.6053 45.3653 54.2786 45.02C 53.9613 44.6747 53.7139 44.2733 53.5366 43.816C 53.3593 43.3587 53.2706 42.878 53.2706 42.374C 53.2706 41.8607 53.3593 41.3753 53.5366 40.918C 53.7233 40.4607 53.9753 40.0593 54.2926 39.714C 54.6193 39.3687 55.0019 39.0933 55.4406 38.888C 55.8793 38.6827 56.3599 38.58 56.8826 38.58C 57.4053 38.58 57.8859 38.6827 58.3246 38.888C 58.7726 39.0933 59.1553 39.3687 59.4726 39.714C 59.7993 40.0593 60.0513 40.4607 60.2286 40.918C 60.4153 41.3753 60.5086 41.8607 60.5086 42.374C 60.5086 42.878 60.4199 43.3587 60.2426 43.816C 60.0653 44.2733 59.8133 44.6747 59.4866 45.02C 59.1693 45.3653 58.7866 45.6407 58.3386 45.846C 57.8999 46.042 57.4146 46.14 56.8826 46.14ZM 54.2366 42.388C 54.2366 42.7987 54.3066 43.1813 54.4466 43.536C 54.5866 43.8813 54.7733 44.1893 55.0066 44.46C 55.2493 44.7213 55.5293 44.9267 55.8466 45.076C 56.1733 45.2253 56.5186 45.3 56.8826 45.3C 57.2466 45.3 57.5873 45.2253 57.9046 45.076C 58.2313 44.9173 58.5159 44.7073 58.7586 44.446C 59.0013 44.1753 59.1926 43.8627 59.3326 43.508C 59.4726 43.1533 59.5426 42.7707 59.5426 42.36C 59.5426 41.9587 59.4726 41.5807 59.3326 41.226C 59.1926 40.862 59.0013 40.5493 58.7586 40.288C 58.5159 40.0173 58.2313 39.8073 57.9046 39.658C 57.5873 39.4993 57.2466 39.42 56.8826 39.42C 56.5186 39.42 56.1779 39.4993 55.8606 39.658C 55.5433 39.8073 55.2633 40.0173 55.0206 40.288C 54.7779 40.5587 54.5866 40.876 54.4466 41.24C 54.3066 41.5947 54.2366 41.9773 54.2366 42.388ZM 65.7408 39.546C 65.0968 39.5647 64.5368 39.742 64.0608 40.078C 63.5848 40.414 63.2488 40.876 63.0528 41.464L 63.0528 46L 62.1008 46L 62.1008 38.706L 62.9968 38.706L 62.9968 40.456C 63.2674 39.896 63.6314 39.4573 64.0888 39.14C 64.5461 38.8227 65.0361 38.664 65.5588 38.664C 65.6334 38.664 65.6941 38.6687 65.7408 38.678L 65.7408 39.546ZM 67.009 46L 67.009 38.706L 67.961 38.706L 67.961 46L 67.009 46ZM 67.009 37.18L 67.009 35.78L 67.961 35.78L 67.961 37.18L 67.009 37.18ZM 73.5578 45.65C 73.5018 45.678 73.4178 45.7153 73.3058 45.762C 73.2031 45.8087 73.0818 45.8553 72.9418 45.902C 72.8018 45.9487 72.6431 45.9907 72.4658 46.028C 72.2885 46.0653 72.1018 46.084 71.9058 46.084C 71.7005 46.084 71.5045 46.056 71.3178 46C 71.1311 45.944 70.9678 45.86 70.8278 45.748C 70.6878 45.6267 70.5758 45.4773 70.4918 45.3C 70.4078 45.1227 70.3658 44.9173 70.3658 44.684L 70.3658 39.462L 69.3578 39.462L 69.3578 38.706L 70.3658 38.706L 70.3658 36.242L 71.3178 36.242L 71.3178 38.706L 72.9978 38.706L 72.9978 39.462L 71.3178 39.462L 71.3178 44.418C 71.3365 44.6887 71.4298 44.8893 71.5978 45.02C 71.7751 45.1413 71.9758 45.202 72.1998 45.202C 72.4705 45.202 72.7085 45.16 72.9138 45.076C 73.1191 44.9827 73.2498 44.9173 73.3058 44.88L 73.5578 45.65ZM 77.7195 46.14C 77.1875 46.14 76.6975 46.042 76.2495 45.846C 75.8109 45.6407 75.4282 45.3653 75.1015 45.02C 74.7749 44.6653 74.5182 44.2593 74.3315 43.802C 74.1542 43.3447 74.0655 42.8547 74.0655 42.332C 74.0655 41.8187 74.1542 41.338 74.3315 40.89C 74.5182 40.4327 74.7702 40.036 75.0875 39.7C 75.4142 39.3547 75.8015 39.084 76.2495 38.888C 76.6975 38.6827 77.1829 38.58 77.7055 38.58C 78.2375 38.58 78.7229 38.6827 79.1615 38.888C 79.6095 39.084 79.9922 39.3547 80.3095 39.7C 80.6269 40.0453 80.8742 40.442 81.0515 40.89C 81.2289 41.338 81.3175 41.814 81.3175 42.318C 81.3175 42.3927 81.3175 42.4673 81.3175 42.542C 81.3175 42.6167 81.3129 42.668 81.3035 42.696L 75.0595 42.696C 75.0875 43.088 75.1762 43.452 75.3255 43.788C 75.4842 44.1147 75.6849 44.3993 75.9275 44.642C 76.1702 44.8847 76.4455 45.076 76.7535 45.216C 77.0709 45.3467 77.4069 45.412 77.7615 45.412C 77.9949 45.412 78.2282 45.3793 78.4615 45.314C 78.6949 45.2487 78.9095 45.16 79.1055 45.048C 79.3015 44.936 79.4789 44.8007 79.6375 44.642C 79.7962 44.474 79.9175 44.292 80.0015 44.096L 80.8275 44.32C 80.7155 44.5907 80.5569 44.838 80.3515 45.062C 80.1462 45.2767 79.9082 45.468 79.6375 45.636C 79.3669 45.7947 79.0682 45.916 78.7415 46C 78.4149 46.0933 78.0742 46.14 77.7195 46.14ZM 80.4075 41.968C 80.3795 41.576 80.2862 41.2213 80.1275 40.904C 79.9782 40.5773 79.7822 40.2973 79.5395 40.064C 79.3062 39.8307 79.0309 39.6487 78.7135 39.518C 78.4055 39.3873 78.0742 39.322 77.7195 39.322C 77.3649 39.322 77.0289 39.3873 76.7115 39.518C 76.3942 39.6487 76.1142 39.8307 75.8715 40.064C 75.6382 40.2973 75.4469 40.5773 75.2975 40.904C 75.1575 41.2307 75.0735 41.5853 75.0455 41.968L 80.4075 41.968ZM 85.2083 46.14C 84.639 46.14 84.0837 46.0467 83.5423 45.86C 83.001 45.6733 82.5343 45.4027 82.1423 45.048L 82.5763 44.404C 82.987 44.74 83.4023 44.992 83.8223 45.16C 84.2517 45.328 84.709 45.412 85.1943 45.412C 85.7823 45.412 86.249 45.2953 86.5943 45.062C 86.949 44.8193 87.1263 44.4787 87.1263 44.04C 87.1263 43.8347 87.0797 43.6667 86.9863 43.536C 86.893 43.396 86.753 43.2747 86.5663 43.172C 86.389 43.0693 86.1603 42.9807 85.8803 42.906C 85.6097 42.822 85.2923 42.738 84.9283 42.654C 84.5083 42.5513 84.1443 42.4487 83.8363 42.346C 83.5283 42.2433 83.2717 42.1267 83.0663 41.996C 82.8703 41.8653 82.721 41.7067 82.6183 41.52C 82.525 41.324 82.4783 41.0813 82.4783 40.792C 82.4783 40.428 82.5483 40.106 82.6883 39.826C 82.8377 39.546 83.0337 39.3173 83.2763 39.14C 83.5283 38.9533 83.8177 38.8133 84.1443 38.72C 84.4803 38.6267 84.835 38.58 85.2083 38.58C 85.7683 38.58 86.277 38.6733 86.7343 38.86C 87.1917 39.0373 87.5603 39.2753 87.8403 39.574L 87.3783 40.134C 87.1077 39.854 86.7763 39.644 86.3843 39.504C 86.0017 39.364 85.6003 39.294 85.1803 39.294C 84.9283 39.294 84.695 39.322 84.4803 39.378C 84.2657 39.4247 84.0743 39.504 83.9063 39.616C 83.7477 39.728 83.6217 39.8727 83.5283 40.05C 83.435 40.218 83.3883 40.4187 83.3883 40.652C 83.3883 40.848 83.421 41.0067 83.4863 41.128C 83.5517 41.2493 83.659 41.3567 83.8083 41.45C 83.9577 41.534 84.1443 41.6133 84.3683 41.688C 84.6017 41.7533 84.8817 41.8233 85.2083 41.898C 85.675 42.01 86.0857 42.122 86.4403 42.234C 86.795 42.346 87.089 42.4767 87.3223 42.626C 87.565 42.7753 87.747 42.9573 87.8683 43.172C 87.9897 43.3867 88.0503 43.648 88.0503 43.956C 88.0503 44.628 87.7937 45.16 87.2803 45.552C 86.767 45.944 86.0763 46.14 85.2083 46.14Z"/>
</defs>
</svg>
