<svg width="490" height="323" viewBox="0 0 490 323" version="1.1" xmlns="http://www.w3.org/2000/svg" xmlns:xlink="http://www.w3.org/1999/xlink" xmlns:figma="http://www.figma.com/figma/ns">
<title>reviews</title>
<desc>Created using Figma</desc>
<g id="Canvas" transform="translate(-3673 -2439)" figma:type="canvas">
<g id="reviews" figma:type="frame">
<g id="Group" figma:type="frame">
<g id="Group" figma:type="frame">
<g id="Vector" figma:type="vector">
<use xlink:href="#path0_fill" transform="translate(3673 2439)" fill="#FFFFFF"/>
</g>
<g id="Vector" figma:type="vector">
<use xlink:href="#path1_fill" transform="translate(3949.16 2577.5)" fill="#FFFFFF"/>
</g>
<g id="Vector" figma:type="vector">
<use xlink:href="#path2_fill" transform="translate(3949.16 2622.77)" fill="#FFFFFF"/>
</g>
</g>
<g id="Group" figma:type="frame">
<g id="Vector" figma:type="vector">
<use xlink:href="#path3_fill" transform="translate(3673 2439)" fill="#FFFFFF"/>
</g>
<g id="Vector" figma:type="vector">
<use xlink:href="#path1_fill" transform="translate(3949.16 2577.5)" fill="#FFFFFF"/>
</g>
<g id="Vector" figma:type="vector">
<use xlink:href="#path2_fill" transform="translate(3949.16 2622.77)" fill="#FFFFFF"/>
</g>
</g>
</g>
</g>
</g>
<defs>
<path id="path0_fill" d="M 446.52 90.734C 419.266 69.813 383.179 58.291 344.904 58.291C 321.761 58.291 299.422 62.511 279.349 70.466C 269.316 51.369 252.578 34.457 231.286 22.15C 206.218 7.659 176.413 -2.50244e-06 145.097 -2.50244e-06C 106.822 -2.50244e-06 70.735 11.522 43.481 32.443C 15.441 53.965 0 82.826 0 113.707C 0 141.52 12.723 167.991 35.936 188.717L 36.331 256.472C 36.351 260.008 38.145 263.44 41.292 265.052C 45.028 266.967 48.591 266.509 51.204 265.146L 121.492 225.917C 129.285 226.913 137.207 227.417 145.097 227.417C 145.099 227.417 145.101 227.417 145.103 227.417C 167.953 227.417 190.374 223.223 210.568 215.243C 217.937 229.359 228.964 242.272 243.287 253.267C 270.541 274.188 306.629 285.709 344.904 285.709C 352.832 285.709 360.799 285.199 368.633 284.193L 439.009 321.283C 443.003 323.317 445.964 322.82 448.812 321.013C 451.761 319.142 453.65 315.989 453.671 312.495L 454.066 247.01C 477.277 226.285 490 199.812 490 172C 490 141.119 474.559 112.259 446.52 90.734ZM 145.102 207.416C 145.1 207.416 145.096 207.416 145.096 207.416C 136.953 207.416 128.772 206.814 120.782 205.63C 117.921 205.208 115.165 206.037 113.069 207.712L 56.23 239.436L 55.91 184.251C 55.914 184.051 55.91 183.849 55.9 183.647C 55.769 180.837 54.462 178.212 52.296 176.416C 31.471 159.134 20 136.863 20 113.707C 20 62.036 76.119 19.999 145.097 19.999C 196.201 19.999 242.404 43.871 261.249 79.001C 254.925 82.501 248.915 86.414 243.286 90.734C 215.247 112.258 199.806 141.119 199.806 172C 199.806 180.404 200.96 188.657 203.189 196.656C 185.337 203.71 165.442 207.416 145.102 207.416ZM 437.703 234.709C 435.539 236.505 434.232 239.132 434.101 241.941C 434.091 242.123 434.089 242.304 434.089 242.485L 433.769 295.914L 376.748 265.863C 374.676 264.282 371.998 263.511 369.215 263.923C 361.223 265.109 353.043 265.71 344.902 265.71C 288.414 265.71 240.56 237.516 225.078 198.928C 225.014 198.74 224.932 198.557 224.855 198.371C 221.574 190.002 219.804 181.153 219.804 172C 219.804 138.753 243.042 109.497 277.986 92.859C 278.011 92.849 278.037 92.843 278.062 92.833C 278.453 92.679 278.824 92.495 279.185 92.298C 298.294 83.424 320.812 78.291 344.902 78.291C 413.88 78.291 469.999 120.329 469.999 172C 470 195.155 458.529 217.426 437.703 234.709Z"/>
<path id="path1_fill" d="M 127.495 7.32422e-06L 10 7.32422e-06C 4.477 7.32422e-06 -1.2207e-06 4.47701 -1.2207e-06 10C -1.2207e-06 15.523 4.477 20 10 20L 127.495 20C 133.016 20 137.495 15.523 137.495 10C 137.495 4.47701 133.017 7.32422e-06 127.495 7.32422e-06Z"/>
<path id="path2_fill" d="M 127.495 -5.85938e-06L 10 -5.85938e-06C 4.477 -5.85938e-06 -1.2207e-06 4.47699 -1.2207e-06 9.99999C -1.2207e-06 15.523 4.477 20 10 20L 127.495 20C 133.016 20 137.495 15.523 137.495 9.99999C 137.495 4.47699 133.017 -5.85938e-06 127.495 -5.85938e-06Z"/>
<path id="path3_fill" d="M 446.52 90.734C 419.266 69.813 383.179 58.291 344.904 58.291C 321.761 58.291 299.422 62.511 279.349 70.466C 269.316 51.369 252.578 34.457 231.286 22.15C 206.218 7.659 176.413 -2.50244e-06 145.097 -2.50244e-06C 106.822 -2.50244e-06 70.735 11.522 43.481 32.443C 15.441 53.965 0 82.826 0 113.707C 0 141.52 12.723 167.991 35.936 188.717L 36.331 256.472C 36.351 260.008 38.145 263.44 41.292 265.052C 45.028 266.967 48.591 266.509 51.204 265.146L 121.492 225.917C 129.285 226.913 137.207 227.417 145.097 227.417C 145.099 227.417 145.101 227.417 145.103 227.417C 167.953 227.417 190.374 223.223 210.568 215.243C 217.937 229.359 228.964 242.272 243.287 253.267C 270.541 274.188 306.629 285.709 344.904 285.709C 352.832 285.709 360.799 285.199 368.633 284.193L 439.009 321.283C 443.003 323.317 445.964 322.82 448.812 321.013C 451.761 319.142 453.65 315.989 453.671 312.495L 454.066 247.01C 477.277 226.285 490 199.812 490 172C 490 141.119 474.559 112.259 446.52 90.734ZM 145.102 207.416C 145.1 207.416 145.096 207.416 145.096 207.416C 136.953 207.416 128.772 206.814 120.782 205.63C 117.921 205.208 115.165 206.037 113.069 207.712L 56.23 239.436L 55.91 184.251C 55.914 184.051 55.91 183.849 55.9 183.647C 55.769 180.837 54.462 178.212 52.296 176.416C 31.471 159.134 20 136.863 20 113.707C 20 62.036 76.119 19.999 145.097 19.999C 196.201 19.999 242.404 43.871 261.249 79.001C 254.925 82.501 248.915 86.414 243.286 90.734C 215.247 112.258 199.806 141.119 199.806 172C 199.806 180.404 200.96 188.657 203.189 196.656C 185.337 203.71 165.442 207.416 145.102 207.416ZM 437.703 234.709C 435.539 236.505 434.232 239.132 434.101 241.941C 434.091 242.123 434.089 242.304 434.089 242.485L 433.769 295.914L 376.748 265.863C 374.676 264.282 371.998 263.511 369.215 263.923C 361.223 265.109 353.043 265.71 344.902 265.71C 288.414 265.71 240.56 237.516 225.078 198.928C 225.014 198.74 224.932 198.557 224.855 198.371C 221.574 190.002 219.804 181.153 219.804 172C 219.804 119.318 276.802 78.291 344.902 78.291C 413.002 78.291 470 120.329 470 172C 470 195.155 458.529 217.426 437.703 234.709Z"/>
</defs>
</svg>
