<svg width="48" height="18" viewBox="0 0 48 18" version="1.1" xmlns="http://www.w3.org/2000/svg" xmlns:xlink="http://www.w3.org/1999/xlink" xmlns:figma="http://www.figma.com/figma/ns">
<title>closed</title>
<desc>Created using Figma</desc>
<g id="Canvas" transform="translate(-1856 -3090)" figma:type="canvas">
<g id="closed" figma:type="frame">
<g id="Group" figma:type="frame">
<g id="Union" figma:type="vector-operation">
<mask id="mask0_outline_ins">
<use xlink:href="#path0_fill" fill="white" transform="translate(1856 3090)"/>
</mask>
<g mask="url(#mask0_outline_ins)">
<use xlink:href="#path1_stroke_2x" transform="translate(1856 3090)" fill="#FFFFFF"/>
</g>
</g>
<g id="Vector" figma:type="vector">
<use xlink:href="#path2_fill" transform="translate(1858.52 3096.05)" fill="#FFFFFF"/>
</g>
<g id="Vector" figma:type="vector">
<use xlink:href="#path3_fill" transform="translate(1866.66 3096.09)" fill="#FFFFFF"/>
</g>
<g id="Vector" figma:type="vector">
<use xlink:href="#path4_fill" transform="translate(1872.24 3096.04)" fill="#FFFFFF"/>
</g>
<g id="Vector" figma:type="vector">
<use xlink:href="#path5_fill" transform="translate(1880.58 3096.04)" fill="#FFFFFF"/>
</g>
<g id="Vector" figma:type="vector">
<use xlink:href="#path6_fill" transform="translate(1888.02 3096.09)" fill="#FFFFFF"/>
</g>
<g id="Vector" figma:type="vector">
<use xlink:href="#path7_fill" transform="translate(1894.75 3096.09)" fill="#FFFFFF"/>
</g>
</g>
</g>
</g>
<defs>
<path id="path0_fill" fill-rule="evenodd" d="M 23.9509 0L 0 0L 0 3.48389L 0 18L 23.951 18L 48 18L 48 3.48389L 48 0L 23.9509 0Z"/>
<path id="path1_stroke_2x" d="M 0 0L 0 -1L -1 -1L -1 0L 0 0ZM 0 18L -1 18L -1 19L 0 19L 0 18ZM 48 18L 48 19L 49 19L 49 18L 48 18ZM 48 0L 49 0L 49 -1L 48 -1L 48 0ZM 0 1L 23.9509 1L 23.9509 -1L 0 -1L 0 1ZM 1 3.48389L 1 0L -1 0L -1 3.48389L 1 3.48389ZM -1 3.48389L -1 18L 1 18L 1 3.48389L -1 3.48389ZM 0 19L 23.951 19L 23.951 17L 0 17L 0 19ZM 48 17L 23.951 17L 23.951 19L 48 19L 48 17ZM 47 3.48389L 47 18L 49 18L 49 3.48389L 47 3.48389ZM 47 0L 47 3.48389L 49 3.48389L 49 0L 47 0ZM 23.9509 1L 48 1L 48 -1L 23.9509 -1L 23.9509 1Z"/>
<path id="path2_fill" d="M 1.75632e-07 3.69986C 1.75632e-07 3.24707 0.0863263 2.7994 0.258979 2.35683C 0.43151 1.91438 0.683265 1.51908 1.01388 1.17058C 1.34449 0.822191 1.74845 0.540114 2.22612 0.323998C 2.70355 0.108115 3.24722 8.50552e-08 3.85714 8.50552e-08C 4.57701 8.50552e-08 5.19967 0.149922 5.7251 0.449418C 6.25028 0.749146 6.6415 1.13922 6.89877 1.61999L 5.73061 2.38296C 5.62763 2.17393 5.50285 1.99811 5.35591 1.85516C 5.20885 1.71243 5.05101 1.59909 4.88203 1.51548C 4.71293 1.43187 4.53661 1.3709 4.35306 1.33258C 4.16938 1.29437 3.98938 1.27509 3.81306 1.27509C 3.43089 1.27509 3.09845 1.34825 2.81571 1.49458C 2.53273 1.6409 2.29775 1.83088 2.11041 2.06419C 1.92306 2.29772 1.78151 2.5625 1.68612 2.85851C 1.59049 3.15475 1.54286 3.44902 1.54286 3.74167C 1.54286 4.06927 1.59796 4.38444 1.70816 4.68754C 1.81837 4.99063 1.97436 5.25715 2.17653 5.48708C 2.37845 5.71702 2.62089 5.90166 2.90387 6.04101C 3.18661 6.18048 3.49714 6.25005 3.8351 6.25005C 4.01142 6.25005 4.19497 6.22914 4.38612 6.18734C 4.57714 6.14553 4.75885 6.07934 4.93163 5.98876C 5.10416 5.89829 5.26395 5.78147 5.41101 5.63863C 5.55795 5.49591 5.6755 5.32346 5.76367 5.12128L 7.00897 5.80063C 6.88395 6.07934 6.70591 6.32507 6.47448 6.53747C 6.24305 6.7501 5.98211 6.9294 5.69203 7.07572C 5.40171 7.22204 5.09142 7.33364 4.76081 7.41017C 4.4302 7.48682 4.10681 7.52514 3.79102 7.52514C 3.23253 7.52514 2.72204 7.41377 2.25918 7.19069C 1.79632 6.96772 1.39763 6.67694 1.06347 6.31798C 0.72906 5.95926 0.468367 5.55153 0.28102 5.09515C 0.0937957 4.63888 1.75632e-07 4.17378 1.75632e-07 3.69986Z"/>
<path id="path3_fill" d="M -2.98947e-08 7.42063L -2.98947e-08 1.55935e-07L 1.52081 1.55935e-07L 1.52081 6.15598L 5.5102 6.15598L 5.5102 7.42063L -2.98947e-08 7.42063Z"/>
<path id="path4_fill" d="M 3.81306 7.52514C 3.23999 7.52514 2.72008 7.419 2.25367 7.20637C 1.78702 6.99385 1.38673 6.71166 1.05245 6.35979C 0.718162 6.00803 0.45906 5.60565 0.275509 5.15263C 0.0918358 4.69984 -8.52e-07 4.23649 -8.52e-07 3.76257C -8.52e-07 3.26798 0.0972247 2.79417 0.292041 2.34115C 0.486612 1.88837 0.754896 1.48773 1.09653 1.13922C 1.43816 0.790837 1.84396 0.513986 2.31428 0.308322C 2.78436 0.10289 3.2951 5.10331e-07 3.84612 5.10331e-07C 4.41171 5.10331e-07 4.92783 0.109741 5.39448 0.329224C 5.86089 0.548708 6.25958 0.836127 6.5902 1.19148C 6.92081 1.54683 7.17795 1.95108 7.36162 2.40386C 7.54517 2.85688 7.63713 3.31675 7.63713 3.78347C 7.63713 4.2783 7.5415 4.75024 7.3506 5.19966C 7.15946 5.64908 6.89497 6.04624 6.55713 6.39114C 6.21917 6.73605 5.81497 7.01139 5.34489 7.21682C 4.87457 7.42236 4.36407 7.52514 3.81306 7.52514ZM 1.54286 3.76257C 1.54286 4.0832 1.59416 4.39326 1.69714 4.69276C 1.8 4.99249 1.94877 5.25715 2.14347 5.48708C 2.33804 5.71702 2.57694 5.90178 2.85979 6.04101C 3.14253 6.18048 3.46408 6.25005 3.82408 6.25005C 4.19142 6.25005 4.5164 6.17863 4.79938 6.03579C 5.08212 5.89307 5.32101 5.70308 5.51571 5.46618C 5.71028 5.22939 5.85734 4.96288 5.95652 4.66663C 6.05571 4.37062 6.1053 4.06927 6.1053 3.76257C 6.1053 3.44217 6.05191 3.13211 5.9455 2.83238C 5.83885 2.53288 5.68824 2.26799 5.49367 2.03806C 5.29897 1.80812 5.06007 1.62522 4.77734 1.48935C 4.49436 1.35348 4.17673 1.28554 3.82408 1.28554C 3.45661 1.28554 3.12979 1.35708 2.84326 1.4998C 2.55673 1.64264 2.31796 1.83088 2.12694 2.06419C 1.93579 2.29772 1.79081 2.56249 1.69163 2.85851C 1.59245 3.15475 1.54286 3.45599 1.54286 3.76257Z"/>
<path id="path5_fill" d="M 5.23505 1.99625C 5.1835 1.9476 5.08983 1.88128 4.95391 1.79767C 4.81799 1.71406 4.65257 1.6323 4.458 1.55206C 4.2633 1.47205 4.05208 1.40411 3.82432 1.34825C 3.59657 1.29263 3.36514 1.26464 3.13004 1.26464C 2.71126 1.26464 2.3989 1.3378 2.1933 1.48413C 1.98759 1.63045 1.88473 1.83599 1.88473 2.10077C 1.88473 2.25406 1.92318 2.38134 2.00045 2.48225C 2.07759 2.5834 2.18951 2.67224 2.33645 2.74877C 2.48338 2.82553 2.6689 2.89509 2.8931 2.9578C 3.11706 3.02051 3.37604 3.08682 3.67004 3.15638C 4.05196 3.25404 4.3991 3.35856 4.71146 3.46992C 5.02371 3.58141 5.28807 3.72076 5.50481 3.88799C 5.72154 4.05521 5.88869 4.25565 6.00636 4.48896C 6.12379 4.72249 6.18256 5.00991 6.18256 5.35121C 6.18256 5.74837 6.10346 6.08805 5.94563 6.37024C 5.78754 6.65243 5.5746 6.88074 5.30644 7.05482C 5.03816 7.22901 4.72959 7.35629 4.38061 7.4363C 4.0315 7.51631 3.666 7.5565 3.28408 7.5565C 2.6962 7.5565 2.11592 7.47288 1.54286 7.30566C 0.969795 7.13843 0.455387 6.90165 -1.19579e-07 6.59495L 0.672121 5.35121C 0.738244 5.41392 0.857632 5.49591 1.03028 5.59682C 1.20281 5.69786 1.40669 5.799 1.64192 5.89992C 1.87702 6.00107 2.13796 6.08642 2.42449 6.15598C 2.71102 6.22566 3.00477 6.2605 3.30612 6.2605C 4.14367 6.2605 4.56244 6.00629 4.56244 5.49753C 4.56244 5.33728 4.51444 5.20141 4.41918 5.08992C 4.32354 4.97855 4.18763 4.88089 4.01142 4.79728C 3.8351 4.71366 3.62179 4.63714 3.37212 4.56734C 3.12232 4.49778 2.84326 4.42102 2.53457 4.33741C 2.15988 4.23997 1.83477 4.1336 1.55926 4.01863C 1.28375 3.90367 1.05404 3.7678 0.870488 3.61102C 0.686815 3.45425 0.54906 3.27309 0.457223 3.06754C 0.365264 2.86211 0.319468 2.6165 0.319468 2.3307C 0.319468 1.95445 0.392938 1.61999 0.539876 1.32735C 0.686815 1.03471 0.890693 0.790836 1.15151 0.595739C 1.4122 0.400759 1.71526 0.252696 2.06069 0.151548C 2.406 0.0506318 2.77714 5.10331e-07 3.17387 5.10331e-07C 3.72489 5.10331e-07 4.23183 0.0819862 4.69469 0.245612C 5.15742 0.409353 5.5615 0.602709 5.90681 0.825676L 5.23505 1.99625Z"/>
<path id="path6_fill" d="M 5.43305 6.15598L 5.43305 7.42063L 7.47368e-07 7.42063L 7.47368e-07 1.55935e-07L 5.33387 1.55935e-07L 5.33387 1.26464L 1.52081 1.26464L 1.52081 3.05186L 4.81591 3.05186L 4.81591 4.22244L 1.52081 4.22244L 1.52081 6.15598L 5.43305 6.15598Z"/>
<path id="path7_fill" d="M -4.48421e-07 7.42063L -4.48421e-07 1.55935e-07L 2.84326 1.55935e-07C 3.48244 1.55935e-07 4.04265 0.0976649 4.524 0.292645C 5.0051 0.487741 5.40734 0.752514 5.73061 1.08696C 6.05387 1.42142 6.29619 1.81335 6.45795 2.26277C 6.61934 2.71219 6.70028 3.19133 6.70028 3.69986C 6.70028 4.26425 6.61028 4.77475 6.43028 5.23102C 6.25016 5.68752 5.99118 6.07759 5.65334 6.40159C 5.31526 6.72559 4.90946 6.97643 4.43559 7.15411C 3.96171 7.33179 3.43089 7.42063 2.84314 7.42063L -4.48421e-07 7.42063ZM 5.16856 3.69986C 5.16856 3.34451 5.11702 3.01714 5.01428 2.71741C 4.9113 2.41792 4.76081 2.16011 4.56244 1.944C 4.36408 1.72811 4.11979 1.56089 3.82959 1.44232C 3.53938 1.32387 3.21061 1.26464 2.84326 1.26464L 1.52082 1.26464L 1.52082 6.15598L 2.84326 6.15598C 3.21808 6.15598 3.55028 6.09327 3.84073 5.96785C 4.13081 5.84243 4.37338 5.66999 4.56795 5.4505C 4.76252 5.23102 4.91142 4.97147 5.0144 4.67186C 5.11701 4.37236 5.16856 4.04836 5.16856 3.69986Z"/>
</defs>
</svg>
