<svg width="33" height="33" viewBox="0 0 33 33" version="1.1" xmlns="http://www.w3.org/2000/svg" xmlns:xlink="http://www.w3.org/1999/xlink" xmlns:figma="http://www.figma.com/figma/ns">
<title>remove</title>
<desc>Created using Figma</desc>
<g id="Canvas" transform="translate(-2736 -385)" figma:type="canvas">
<g id="remove" figma:type="frame">
<g id="Group" figma:type="frame">
<g id="Vector" figma:type="vector">
<use xlink:href="#path0_fill" transform="translate(2736 385)" fill="#FFFFFF"/>
</g>
<g id="Vector" figma:type="vector">
<use xlink:href="#path1_fill" transform="translate(2746.15 395.154)" fill="#FFFFFF"/>
</g>
</g>
</g>
</g>
<defs>
<path id="path0_fill" d="M 16.5 0C 7.40215 0 0 7.40152 0 16.5C 0 25.5985 7.40215 33 16.5 33C 25.5978 33 33 25.5985 33 16.5C 33 7.40152 25.5978 0 16.5 0ZM 16.5 31.7308C 8.10213 31.7308 1.26923 24.8979 1.26923 16.5C 1.26923 8.10213 8.10213 1.26923 16.5 1.26923C 24.8979 1.26923 31.7308 8.10213 31.7308 16.5C 31.7308 24.8979 24.8979 31.7308 16.5 31.7308Z"/>
<path id="path1_fill" d="M 12.5065 0.186101C 12.2584 -0.0620341 11.8573 -0.0620341 11.6092 0.186101L 6.34631 5.44897L 1.08345 0.186101C 0.835313 -0.0620341 0.434235 -0.0620341 0.1861 0.186101C -0.0620341 0.434235 -0.0620341 0.835313 0.1861 1.08345L 5.44897 6.34631L 0.1861 11.6092C -0.0620341 11.8573 -0.0620341 12.2584 0.1861 12.5065C 0.30985 12.6303 0.472312 12.6925 0.634774 12.6925C 0.797236 12.6925 0.959698 12.6303 1.08345 12.5065L 6.34631 7.24366L 11.6092 12.5065C 11.7329 12.6303 11.8954 12.6925 12.0578 12.6925C 12.2203 12.6925 12.3828 12.6303 12.5065 12.5065C 12.7547 12.2584 12.7547 11.8573 12.5065 11.6092L 7.24366 6.34631L 12.5065 1.08345C 12.7547 0.835313 12.7547 0.434235 12.5065 0.186101Z"/>
</defs>
</svg>
