<svg width="25" height="25" viewBox="0 0 25 25" version="1.1" xmlns="http://www.w3.org/2000/svg" xmlns:xlink="http://www.w3.org/1999/xlink" xmlns:figma="http://www.figma.com/figma/ns">
<title>smartphone (1)</title>
<desc>Created using Figma</desc>
<g id="Canvas" transform="translate(-1663 -3184)" figma:type="canvas">
<g id="smartphone (1)" figma:type="frame">
<g id="Group" figma:type="frame">
<g id="Vector" figma:type="vector">
<mask id="mask0_outline_ins">
<use xlink:href="#path0_fill" fill="white" transform="translate(1668.42 3184)"/>
</mask>
<g mask="url(#mask0_outline_ins)">
<use xlink:href="#path1_stroke_2x" transform="translate(1668.42 3184)" fill="#FFFFFF"/>
</g>
</g>
<g id="Vector" figma:type="vector">
<mask id="mask1_outline_ins">
<use xlink:href="#path2_fill" fill="white" transform="translate(1673.83 3204.42)"/>
</mask>
<g mask="url(#mask1_outline_ins)">
<use xlink:href="#path3_stroke_2x" transform="translate(1673.83 3204.42)" fill="#FFFFFF"/>
</g>
</g>
<g id="Vector" figma:type="vector">
<mask id="mask2_outline_ins">
<use xlink:href="#path4_fill" fill="white" transform="translate(1673.42 3185.25)"/>
</mask>
<g mask="url(#mask2_outline_ins)">
<use xlink:href="#path5_stroke_2x" transform="translate(1673.42 3185.25)" fill="#FFFFFF"/>
</g>
</g>
<g id="Vector" figma:type="vector">
<mask id="mask3_outline_ins">
<use xlink:href="#path6_fill" fill="white" transform="translate(1676.33 3185.25)"/>
</mask>
<g mask="url(#mask3_outline_ins)">
<use xlink:href="#path7_stroke_2x" transform="translate(1676.33 3185.25)" fill="#FFFFFF"/>
</g>
</g>
<g id="Vector" figma:type="vector">
<mask id="mask4_outline_ins">
<use xlink:href="#path8_fill" fill="white" transform="translate(1685.88 3185.78)"/>
</mask>
<g mask="url(#mask4_outline_ins)">
<use xlink:href="#path9_stroke_2x" transform="translate(1685.88 3185.78)" fill="#FFFFFF"/>
</g>
</g>
<g id="Vector" figma:type="vector">
<mask id="mask5_outline_ins">
<use xlink:href="#path10_fill" fill="white" transform="translate(1684.12 3186.73)"/>
</mask>
<g mask="url(#mask5_outline_ins)">
<use xlink:href="#path11_stroke_2x" transform="translate(1684.12 3186.73)" fill="#FFFFFF"/>
</g>
</g>
<g id="Vector" figma:type="vector">
<mask id="mask6_outline_ins">
<use xlink:href="#path12_fill" fill="white" transform="translate(1663 3185.78)"/>
</mask>
<g mask="url(#mask6_outline_ins)">
<use xlink:href="#path13_stroke_2x" transform="translate(1663 3185.78)" fill="#FFFFFF"/>
</g>
</g>
<g id="Vector" figma:type="vector">
<mask id="mask7_outline_ins">
<use xlink:href="#path14_fill" fill="white" transform="translate(1665.12 3186.61)"/>
</mask>
<g mask="url(#mask7_outline_ins)">
<use xlink:href="#path15_stroke_2x" transform="translate(1665.12 3186.61)" fill="#FFFFFF"/>
</g>
</g>
</g>
</g>
</g>
<defs>
<path id="path0_fill" d="M 12.3317 0L 1.83548 0C 0.823778 0 0 0.82375 0 1.83542L 0 23.1642C 0 24.1763 0.823778 25 1.83548 25L 12.3312 25C 13.3434 25 14.1671 24.1763 14.1671 23.1646L 14.1671 1.83542C 14.1671 0.82375 13.3434 0 12.3317 0ZM 0.833361 3.33333L 13.3338 3.33333L 13.3338 19.1667L 0.833361 19.1667L 0.833361 3.33333ZM 1.83548 0.833333L 12.3312 0.833333C 12.8842 0.833333 13.3338 1.28292 13.3338 1.83542L 13.3338 2.5L 0.833361 2.5L 0.833361 1.83542C 0.833361 1.28292 1.28296 0.833333 1.83548 0.833333ZM 12.3317 24.1667L 1.83548 24.1667C 1.28296 24.1667 0.833361 23.7171 0.833361 23.1646L 0.833361 20L 13.3338 20L 13.3338 23.1646C 13.3338 23.7171 12.8842 24.1667 12.3317 24.1667Z"/>
<path id="path1_stroke_2x" d="M 0.833361 3.33333L 0.833361 2.33333L -0.166639 2.33333L -0.166639 3.33333L 0.833361 3.33333ZM 13.3338 3.33333L 14.3338 3.33333L 14.3338 2.33333L 13.3338 2.33333L 13.3338 3.33333ZM 13.3338 19.1667L 13.3338 20.1667L 14.3338 20.1667L 14.3338 19.1667L 13.3338 19.1667ZM 0.833361 19.1667L -0.166639 19.1667L -0.166639 20.1667L 0.833361 20.1667L 0.833361 19.1667ZM 13.3338 2.5L 13.3338 3.5L 14.3338 3.5L 14.3338 2.5L 13.3338 2.5ZM 0.833361 2.5L -0.166639 2.5L -0.166639 3.5L 0.833361 3.5L 0.833361 2.5ZM 0.833361 20L 0.833361 19L -0.166639 19L -0.166639 20L 0.833361 20ZM 13.3338 20L 14.3338 20L 14.3338 19L 13.3338 19L 13.3338 20ZM 12.3317 -1L 1.83548 -1L 1.83548 1L 12.3317 1L 12.3317 -1ZM 1.83548 -1C 0.271524 -1 -1 0.271434 -1 1.83542L 1 1.83542C 1 1.37607 1.37603 1 1.83548 1L 1.83548 -1ZM -1 1.83542L -1 23.1642L 1 23.1642L 1 1.83542L -1 1.83542ZM -1 23.1642C -1 24.7284 0.271377 26 1.83548 26L 1.83548 24C 1.37618 24 1 23.6241 1 23.1642L -1 23.1642ZM 1.83548 26L 12.3312 26L 12.3312 24L 1.83548 24L 1.83548 26ZM 12.3312 26C 13.8955 26 15.1671 24.7287 15.1671 23.1646L 13.1671 23.1646C 13.1671 23.6238 12.7913 24 12.3312 24L 12.3312 26ZM 15.1671 23.1646L 15.1671 1.83542L 13.1671 1.83542L 13.1671 23.1646L 15.1671 23.1646ZM 15.1671 1.83542C 15.1671 0.271434 13.8956 -1 12.3317 -1L 12.3317 1C 12.7911 1 13.1671 1.37607 13.1671 1.83542L 15.1671 1.83542ZM 0.833361 4.33333L 13.3338 4.33333L 13.3338 2.33333L 0.833361 2.33333L 0.833361 4.33333ZM 12.3338 3.33333L 12.3338 19.1667L 14.3338 19.1667L 14.3338 3.33333L 12.3338 3.33333ZM 13.3338 18.1667L 0.833361 18.1667L 0.833361 20.1667L 13.3338 20.1667L 13.3338 18.1667ZM 1.83336 19.1667L 1.83336 3.33333L -0.166639 3.33333L -0.166639 19.1667L 1.83336 19.1667ZM 1.83548 1.83333L 12.3312 1.83333L 12.3312 -0.166667L 1.83548 -0.166667L 1.83548 1.83333ZM 12.3312 1.83333C 12.3328 1.83333 12.3322 1.83346 12.3312 1.83304C 12.3309 1.8329 12.3317 1.8332 12.3329 1.83441C 12.3341 1.83561 12.3343 1.83638 12.3342 1.83596C 12.3337 1.83485 12.3338 1.83404 12.3338 1.83542L 14.3338 1.83542C 14.3338 0.730331 13.4362 -0.166667 12.3312 -0.166667L 12.3312 1.83333ZM 12.3338 1.83542L 12.3338 2.5L 14.3338 2.5L 14.3338 1.83542L 12.3338 1.83542ZM 13.3338 1.5L 0.833361 1.5L 0.833361 3.5L 13.3338 3.5L 13.3338 1.5ZM 1.83336 2.5L 1.83336 1.83542L -0.166639 1.83542L -0.166639 2.5L 1.83336 2.5ZM 1.83336 1.83542C 1.83336 1.83404 1.83345 1.83484 1.83299 1.83592C 1.83282 1.83631 1.8331 1.83552 1.83432 1.83431C 1.83554 1.83309 1.83633 1.8328 1.83594 1.83297C 1.83487 1.83342 1.83408 1.83333 1.83548 1.83333L 1.83548 -0.166667C 0.730707 -0.166667 -0.166639 0.7306 -0.166639 1.83542L 1.83336 1.83542ZM 12.3317 23.1667L 1.83548 23.1667L 1.83548 25.1667L 12.3317 25.1667L 12.3317 23.1667ZM 1.83548 23.1667C 1.83408 23.1667 1.83487 23.1666 1.83594 23.167C 1.83633 23.1672 1.83554 23.1669 1.83432 23.1657C 1.8331 23.1645 1.83282 23.1637 1.83299 23.1641C 1.83345 23.1652 1.83336 23.166 1.83336 23.1646L -0.166639 23.1646C -0.166639 24.2694 0.730707 25.1667 1.83548 25.1667L 1.83548 23.1667ZM 1.83336 23.1646L 1.83336 20L -0.166639 20L -0.166639 23.1646L 1.83336 23.1646ZM 0.833361 21L 13.3338 21L 13.3338 19L 0.833361 19L 0.833361 21ZM 12.3338 20L 12.3338 23.1646L 14.3338 23.1646L 14.3338 20L 12.3338 20ZM 12.3338 23.1646C 12.3338 23.166 12.3337 23.1652 12.3341 23.1641C 12.3343 23.1637 12.334 23.1645 12.3328 23.1657C 12.3316 23.1669 12.3308 23.1672 12.3312 23.167C 12.3323 23.1666 12.3331 23.1667 12.3317 23.1667L 12.3317 25.1667C 13.4364 25.1667 14.3338 24.2694 14.3338 23.1646L 12.3338 23.1646Z"/>
<path id="path2_fill" d="M 1.66672 2.96059e-15C 0.747525 2.96059e-15 0 0.7475 0 1.66667C 0 2.58583 0.747525 3.33333 1.66672 3.33333C 2.58592 3.33333 3.33344 2.58583 3.33344 1.66667C 3.33344 0.7475 2.58592 2.96059e-15 1.66672 2.96059e-15ZM 1.66672 2.5C 1.20712 2.5 0.833361 2.12625 0.833361 1.66667C 0.833361 1.20708 1.20712 0.833333 1.66672 0.833333C 2.12632 0.833333 2.50008 1.20708 2.50008 1.66667C 2.50008 2.12625 2.12632 2.5 1.66672 2.5Z"/>
<path id="path3_stroke_2x" d="M 1.66672 -1C 0.195271 -1 -1 0.195184 -1 1.66667L 1 1.66667C 1 1.29982 1.29978 1 1.66672 1L 1.66672 -1ZM -1 1.66667C -1 3.13815 0.195271 4.33333 1.66672 4.33333L 1.66672 2.33333C 1.29978 2.33333 1 2.03352 1 1.66667L -1 1.66667ZM 1.66672 4.33333C 3.13817 4.33333 4.33344 3.13815 4.33344 1.66667L 2.33344 1.66667C 2.33344 2.03352 2.03367 2.33333 1.66672 2.33333L 1.66672 4.33333ZM 4.33344 1.66667C 4.33344 0.195184 3.13817 -1 1.66672 -1L 1.66672 1C 2.03367 1 2.33344 1.29982 2.33344 1.66667L 4.33344 1.66667ZM 1.66672 1.5C 1.75938 1.5 1.83336 1.57393 1.83336 1.66667L -0.166639 1.66667C -0.166639 2.67857 0.65487 3.5 1.66672 3.5L 1.66672 1.5ZM 1.83336 1.66667C 1.83336 1.7594 1.75938 1.83333 1.66672 1.83333L 1.66672 -0.166667C 0.65487 -0.166667 -0.166639 0.654767 -0.166639 1.66667L 1.83336 1.66667ZM 1.66672 1.83333C 1.57407 1.83333 1.50008 1.7594 1.50008 1.66667L 3.50008 1.66667C 3.50008 0.654767 2.67857 -0.166667 1.66672 -0.166667L 1.66672 1.83333ZM 1.50008 1.66667C 1.50008 1.57393 1.57407 1.5 1.66672 1.5L 1.66672 3.5C 2.67857 3.5 3.50008 2.67857 3.50008 1.66667L 1.50008 1.66667Z"/>
<path id="path4_fill" d="M 0.416681 0.833333L 2.0834 0.833333C 2.31383 0.833333 2.50008 0.647083 2.50008 0.416667C 2.50008 0.18625 2.31383 0 2.0834 0L 0.416681 0C 0.186256 0 0 0.18625 0 0.416667C 0 0.647083 0.186256 0.833333 0.416681 0.833333Z"/>
<path id="path5_stroke_2x" d="M 0.416681 1.83333L 2.0834 1.83333L 2.0834 -0.166667L 0.416681 -0.166667L 0.416681 1.83333ZM 2.0834 1.83333C 2.86608 1.83333 3.50008 1.1994 3.50008 0.416667L 1.50008 0.416667C 1.50008 0.0947673 1.76157 -0.166667 2.0834 -0.166667L 2.0834 1.83333ZM 3.50008 0.416667C 3.50008 -0.366066 2.86608 -1 2.0834 -1L 2.0834 1C 1.76157 1 1.50008 0.738566 1.50008 0.416667L 3.50008 0.416667ZM 2.0834 -1L 0.416681 -1L 0.416681 1L 2.0834 1L 2.0834 -1ZM 0.416681 -1C -0.365997 -1 -1 -0.366066 -1 0.416667L 1 0.416667C 1 0.738566 0.73851 1 0.416681 1L 0.416681 -1ZM -1 0.416667C -1 1.1994 -0.365997 1.83333 0.416681 1.83333L 0.416681 -0.166667C 0.73851 -0.166667 1 0.0947673 1 0.416667L -1 0.416667Z"/>
<path id="path6_fill" d="M 0.416681 0.833333L 0.833361 0.833333C 1.06379 0.833333 1.25004 0.647083 1.25004 0.416667C 1.25004 0.18625 1.06379 0 0.833361 0L 0.416681 0C 0.186256 0 0 0.18625 0 0.416667C 0 0.647083 0.186256 0.833333 0.416681 0.833333Z"/>
<path id="path7_stroke_2x" d="M 0.416681 1.83333L 0.833361 1.83333L 0.833361 -0.166667L 0.416681 -0.166667L 0.416681 1.83333ZM 0.833361 1.83333C 1.61604 1.83333 2.25004 1.1994 2.25004 0.416667L 0.250042 0.416667C 0.250042 0.0947673 0.511532 -0.166667 0.833361 -0.166667L 0.833361 1.83333ZM 2.25004 0.416667C 2.25004 -0.366066 1.61604 -1 0.833361 -1L 0.833361 1C 0.511532 1 0.250042 0.738566 0.250042 0.416667L 2.25004 0.416667ZM 0.833361 -1L 0.416681 -1L 0.416681 1L 0.833361 1L 0.833361 -1ZM 0.416681 -1C -0.365997 -1 -1 -0.366066 -1 0.416667L 1 0.416667C 1 0.738566 0.73851 1 0.416681 1L 0.416681 -1ZM -1 0.416667C -1 1.1994 -0.365997 1.83333 0.416681 1.83333L 0.416681 -0.166667C 0.73851 -0.166667 1 0.0947673 1 0.416667L -1 0.416667Z"/>
<path id="path8_fill" d="M 0.711378 0.122187C 0.548456 -0.0407293 0.285114 -0.0407293 0.122192 0.122187C -0.0407297 0.285104 -0.0407297 0.548437 0.122192 0.711354C 1.67891 2.26802 1.67891 4.80094 0.122192 6.35802C -0.0407297 6.52094 -0.0407297 6.78427 0.122192 6.94719C 0.203445 7.02844 0.310114 7.06927 0.416784 7.06927C 0.523454 7.06927 0.630125 7.02844 0.711378 6.94719C 2.59311 5.06594 2.59311 2.00385 0.711378 0.122187Z"/>
<path id="path9_stroke_2x" d="M 0.711378 0.122187L 1.41847 -0.584931L 0.711378 0.122187ZM 0.122192 6.35802L 0.829287 7.06514L 0.829382 7.06504L 0.122192 6.35802ZM 0.711378 6.94719L 0.00436095 6.23999L 0.00428265 6.24007L 0.711378 6.94719ZM 1.41847 -0.584931C 0.865029 -1.13836 -0.031459 -1.13836 -0.584903 -0.584931L 0.829287 0.829306C 0.601688 1.0569 0.231882 1.0569 0.00428265 0.829306L 1.41847 -0.584931ZM -0.584903 -0.584931C -1.13836 -0.0314875 -1.13836 0.865029 -0.584903 1.41847L 0.829287 0.00423551C 1.05691 0.231846 1.05691 0.601696 0.829287 0.829306L -0.584903 -0.584931ZM -0.584903 1.41847C 0.581224 2.58456 0.58136 4.48437 -0.584997 5.651L 0.829382 7.06504C 2.77646 5.11751 2.7766 1.95148 0.829287 0.00423551L -0.584903 1.41847ZM -0.584903 5.6509C -1.13836 6.20435 -1.13836 7.10086 -0.584903 7.65431L 0.829287 6.24007C 1.05691 6.46768 1.05691 6.83753 0.829287 7.06514L -0.584903 5.6509ZM -0.584903 7.65431C -0.309021 7.93018 0.055106 8.06927 0.416784 8.06927L 0.416784 6.06927C 0.565122 6.06927 0.715911 6.1267 0.829287 6.24007L -0.584903 7.65431ZM 0.416784 8.06927C 0.778458 8.06927 1.14259 7.93018 1.41847 7.65431L 0.00428265 6.24007C 0.117662 6.12669 0.268451 6.06927 0.416784 6.06927L 0.416784 8.06927ZM 1.41839 7.65438C 3.69081 5.38255 3.6907 1.68722 1.41847 -0.584931L 0.00428265 0.829306C 1.49552 2.32049 1.4954 4.74933 0.00436095 6.23999L 1.41839 7.65438Z"/>
<path id="path10_fill" d="M 0.711378 0.122187C 0.548456 -0.0407293 0.285113 -0.0407293 0.122191 0.122187C -0.0407307 0.285104 -0.0407307 0.548437 0.122191 0.711354C 0.637625 1.22677 0.921384 1.91344 0.921384 2.64427C 0.921384 3.3751 0.637625 4.06135 0.122191 4.57677C -0.0407307 4.73969 -0.0407307 5.00302 0.122191 5.16594C 0.203444 5.24719 0.310115 5.28802 0.416785 5.28802C 0.523455 5.28802 0.630126 5.24719 0.711378 5.16594C 1.38432 4.49344 1.75475 3.5976 1.75475 2.64427C 1.75475 1.69094 1.38473 0.794687 0.711378 0.122187Z"/>
<path id="path11_stroke_2x" d="M 0.711378 0.122187L 0.00428308 0.829306L 0.00472121 0.829744L 0.711378 0.122187ZM 0.122191 4.57677L -0.584904 3.86965L 0.122191 4.57677ZM 0.711378 5.16594L 0.00450221 4.4586L 0.00428321 4.45882L 0.711378 5.16594ZM 1.41847 -0.584931C 0.86503 -1.13836 -0.03146 -1.13836 -0.584904 -0.584931L 0.829286 0.829306C 0.601687 1.0569 0.231883 1.0569 0.00428321 0.829306L 1.41847 -0.584931ZM -0.584904 -0.584931C -1.13837 -0.0314875 -1.13837 0.865029 -0.584904 1.41847L 0.829286 0.00423563C 1.0569 0.231846 1.0569 0.601696 0.829286 0.829306L -0.584904 -0.584931ZM -0.584904 1.41847C -0.257725 1.74564 -0.0786156 2.17765 -0.0786156 2.64427L 1.92138 2.64427C 1.92138 1.64922 1.53298 0.707901 0.829286 0.00423563L -0.584904 1.41847ZM -0.0786156 2.64427C -0.0786156 3.11073 -0.25761 3.54237 -0.584904 3.86965L 0.829286 5.28389C 1.53286 4.58034 1.92138 3.63948 1.92138 2.64427L -0.0786156 2.64427ZM -0.584904 3.86965C -1.13837 4.4231 -1.13837 5.31961 -0.584904 5.87306L 0.829286 4.45882C 1.0569 4.68643 1.0569 5.05628 0.829286 5.28389L -0.584904 3.86965ZM -0.584904 5.87306C -0.309016 6.14894 0.0551156 6.28802 0.416785 6.28802L 0.416785 4.28802C 0.565114 4.28802 0.715904 4.34544 0.829286 4.45882L -0.584904 5.87306ZM 0.416785 6.28802C 0.778454 6.28802 1.14259 6.14894 1.41847 5.87306L 0.00428321 4.45882C 0.117666 4.34544 0.268456 4.28802 0.416785 4.28802L 0.416785 6.28802ZM 1.41825 5.87328C 2.27949 5.0126 2.75475 3.86206 2.75475 2.64427L 0.754745 2.64427C 0.754745 3.33315 0.489144 3.97428 0.00450225 4.4586L 1.41825 5.87328ZM 2.75475 2.64427C 2.75475 1.42688 2.28017 0.275675 1.41804 -0.585369L 0.00472121 0.829744C 0.489294 1.3137 0.754745 1.955 0.754745 2.64427L 2.75475 2.64427Z"/>
<path id="path12_fill" d="M 2.00048 0.711354C 2.16341 0.548437 2.16341 0.285104 2.00048 0.122187C 1.83756 -0.0407293 1.57422 -0.0407293 1.4113 0.122187C -0.470432 2.00385 -0.470432 5.06552 1.4113 6.94719C 1.49255 7.02844 1.59922 7.06927 1.70589 7.06927C 1.81256 7.06927 1.91923 7.02844 2.00048 6.94719C 2.16341 6.78427 2.16341 6.52094 2.00048 6.35802C 0.443348 4.80135 0.443348 2.26844 2.00048 0.711354Z"/>
<path id="path13_stroke_2x" d="M 2.00048 0.711354L 1.29339 0.00423551L 2.00048 0.711354ZM 1.4113 0.122187L 0.704202 -0.584931L 1.4113 0.122187ZM 2.00048 6.94719L 1.29339 6.24007L 2.00048 6.94719ZM 2.00048 6.35802L 2.70758 5.6509L 2.70748 5.65081L 2.00048 6.35802ZM 2.70758 1.41847C 3.26104 0.865029 3.26104 -0.0314875 2.70758 -0.584931L 1.29339 0.829306C 1.06577 0.601696 1.06577 0.231846 1.29339 0.00423551L 2.70758 1.41847ZM 2.70758 -0.584931C 2.15413 -1.13836 1.25765 -1.13836 0.704202 -0.584931L 2.11839 0.829306C 1.89079 1.0569 1.52099 1.0569 1.29339 0.829306L 2.70758 -0.584931ZM 0.704202 -0.584931C -1.56807 1.68726 -1.56807 5.38211 0.704202 7.65431L 2.11839 6.24007C 0.627203 4.74893 0.627203 2.32045 2.11839 0.829306L 0.704202 -0.584931ZM 0.704202 7.65431C 0.980086 7.93018 1.34421 8.06927 1.70589 8.06927L 1.70589 6.06927C 1.85422 6.06927 2.00501 6.12669 2.11839 6.24007L 0.704202 7.65431ZM 1.70589 8.06927C 2.06756 8.06927 2.43169 7.93018 2.70758 7.65431L 1.29339 6.24007C 1.40677 6.12669 1.55756 6.06927 1.70589 6.06927L 1.70589 8.06927ZM 2.70758 7.65431C 3.26104 7.10086 3.26104 6.20435 2.70758 5.6509L 1.29339 7.06514C 1.06577 6.83753 1.06577 6.46768 1.29339 6.24007L 2.70758 7.65431ZM 2.70748 5.65081C 1.54107 4.48474 1.54093 2.58508 2.70758 1.41847L 1.29339 0.00423551C -0.654235 1.95179 -0.654371 5.11797 1.29348 7.06523L 2.70748 5.65081Z"/>
<path id="path14_fill" d="M 1.63255 0.122187C 1.46963 -0.0407293 1.20629 -0.0407293 1.04337 0.122187C 0.370429 0.794687 -8.74231e-08 1.69052 -8.74231e-08 2.64385C -8.74231e-08 3.59719 0.370429 4.49302 1.04337 5.16594C 1.12462 5.24719 1.23129 5.28802 1.33796 5.28802C 1.44463 5.28802 1.5513 5.24719 1.63255 5.16594C 1.79548 5.00302 1.79548 4.73969 1.63255 4.57677C 1.11712 4.06135 0.833361 3.37469 0.833361 2.64385C 0.833361 1.91302 1.1167 1.22677 1.63255 0.711354C 1.79506 0.548854 1.79506 0.285104 1.63255 0.122187Z"/>
<path id="path15_stroke_2x" d="M 1.63255 0.122187L 2.34055 -0.584026L 2.33965 -0.584931L 1.63255 0.122187ZM 1.04337 0.122187L 1.75024 0.829525L 1.75046 0.829306L 1.04337 0.122187ZM 1.04337 5.16594L 1.75046 4.45882L 1.04337 5.16594ZM 1.63255 5.16594L 0.925459 4.45882L 1.63255 5.16594ZM 1.63255 4.57677L 2.33965 3.86965L 1.63255 4.57677ZM 1.63255 0.711354L 2.33936 1.41876L 2.33965 1.41847L 1.63255 0.711354ZM 2.33965 -0.584931C 1.78621 -1.13836 0.889717 -1.13836 0.336273 -0.584931L 1.75046 0.829306C 1.52286 1.0569 1.15306 1.0569 0.925459 0.829306L 2.33965 -0.584931ZM 0.336492 -0.58515C -0.524744 0.275524 -1 1.42607 -1 2.64385L 1 2.64385C 1 1.95497 1.2656 1.31385 1.75024 0.829525L 0.336492 -0.58515ZM -1 2.64385C -1 3.86169 -0.524715 5.0121 0.336273 5.87306L 1.75046 4.45882C 1.26557 3.97394 1 3.33268 1 2.64385L -1 2.64385ZM 0.336273 5.87306C 0.61216 6.14893 0.976291 6.28802 1.33796 6.28802L 1.33796 4.28802C 1.48629 4.28802 1.63708 4.34544 1.75046 4.45882L 0.336273 5.87306ZM 1.33796 6.28802C 1.69963 6.28802 2.06376 6.14893 2.33965 5.87306L 0.925459 4.45882C 1.03884 4.34544 1.18963 4.28802 1.33796 4.28802L 1.33796 6.28802ZM 2.33965 5.87306C 2.89311 5.31961 2.89311 4.4231 2.33965 3.86965L 0.925459 5.28389C 0.697841 5.05628 0.697841 4.68643 0.925459 4.45882L 2.33965 5.87306ZM 2.33965 3.86965C 2.01247 3.54248 1.83336 3.11047 1.83336 2.64385L -0.166639 2.64385C -0.166639 3.6389 0.221771 4.58022 0.925459 5.28389L 2.33965 3.86965ZM 1.83336 2.64385C 1.83336 2.17705 2.01217 1.74567 2.33936 1.41876L 0.925745 0.00394993C 0.221235 0.707868 -0.166639 1.64899 -0.166639 2.64385L 1.83336 2.64385ZM 2.33965 1.41847C 2.89319 0.864946 2.89189 -0.0312902 2.34055 -0.584025L 0.924554 0.8284C 0.698225 0.601498 0.696925 0.232762 0.925459 0.00423558L 2.33965 1.41847Z"/>
</defs>
</svg>
