<svg width="70" height="70" viewBox="0 0 70 70" version="1.1" xmlns="http://www.w3.org/2000/svg" xmlns:xlink="http://www.w3.org/1999/xlink" xmlns:figma="http://www.figma.com/figma/ns">
<title>logout</title>
<desc>Created using Figma</desc>
<g id="Canvas" transform="translate(-3829 -39)" figma:type="canvas">
<g id="logout" figma:type="frame">
<g id="Vector" figma:type="vector">
<mask id="mask0_outline_ins">
<use xlink:href="#path0_fill" fill="white" transform="matrix(1 0 0 -1 3829 109)"/>
</mask>
<g mask="url(#mask0_outline_ins)">
<use xlink:href="#path1_stroke_2x" transform="matrix(1 0 0 -1 3829 109)" fill="#FFFFFF"/>
</g>
</g>
<g id="Group" figma:type="frame">
<g id="Vector" figma:type="vector">
<use xlink:href="#path2_fill" transform="matrix(1 0 0 -1 3849.95 90.1538)" fill="#F4F6F9"/>
<mask id="mask1_outline_ins">
<use xlink:href="#path2_fill" fill="white" transform="matrix(1 0 0 -1 3849.95 90.1538)"/>
</mask>
<g mask="url(#mask1_outline_ins)">
<use xlink:href="#path3_stroke_2x" transform="matrix(1 0 0 -1 3849.95 90.1538)" fill="#FFFFFF"/>
</g>
</g>
<g id="Vector" figma:type="vector">
<use xlink:href="#path4_fill" transform="matrix(1 0 0 -1 3858.1 82.0769)" fill="#F4F6F9"/>
<mask id="mask2_outline_ins">
<use xlink:href="#path4_fill" fill="white" transform="matrix(1 0 0 -1 3858.1 82.0769)"/>
</mask>
<g mask="url(#mask2_outline_ins)">
<use xlink:href="#path5_stroke_2x" transform="matrix(1 0 0 -1 3858.1 82.0769)" fill="#FFFFFF"/>
</g>
</g>
</g>
</g>
</g>
<defs>
<path id="path0_fill" d="M 6.49379e-12 35.0008C 6.49379e-12 54.3322 15.6688 70.0005 34.9995 70C 54.3312 70.0005 70 54.3323 70 35.0008C 70.0011 15.6693 54.3312 0 34.9993 0C 15.6687 0 6.49379e-12 15.6699 6.49379e-12 35.0008Z"/>
<path id="path1_stroke_2x" d="M 34.9995 70L 34.9996 66L 34.9993 66L 34.9995 70ZM 70 35.0008L 66 35.0006L 66 35.0008L 70 35.0008ZM -4 35.0008C -4 56.5413 13.4597 74.0006 34.9996 74L 34.9993 66C 17.8779 66.0005 4 52.123 4 35.0008L -4 35.0008ZM 34.9993 74C 56.5402 74.0006 74 56.5415 74 35.0008L 66 35.0008C 66 52.1231 52.1222 66.0005 34.9996 66L 34.9993 74ZM 74 35.001C 74.0012 13.4601 56.5402 -4 34.9993 -4L 34.9993 4C 52.1222 4 66.001 17.8786 66 35.0006L 74 35.001ZM 34.9993 -4C 13.4593 -4 -4 13.4609 -4 35.0008L 4 35.0008C 4 17.8788 17.878 4 34.9993 4L 34.9993 -4Z"/>
<path id="path2_fill" d="M 20.0167 24.965C 19.6069 24.965 19.2753 25.2938 19.2753 25.6993L 19.2753 30.8391L 1.48273 30.8391L 1.48273 1.46855L 19.2753 1.46855L 19.2753 6.60836C 19.2753 7.01382 19.607 7.34263 20.0167 7.34263C 20.4265 7.34263 20.758 7.01382 20.758 6.60836L 20.758 0.734273C 20.758 0.328813 20.4265 -2.09186e-07 20.0167 -2.09186e-07L 0.741366 -2.09186e-07C 0.33157 -2.09186e-07 -1.79206e-07 0.328813 -1.79206e-07 0.734273L -1.79206e-07 31.5735C -1.79206e-07 31.979 0.331675 32.3078 0.741366 32.3078L 20.0168 32.3078C 20.4266 32.3078 20.7581 31.979 20.7581 31.5735L 20.7581 25.6994C 20.758 25.2937 20.4265 24.965 20.0167 24.965Z"/>
<path id="path3_stroke_2x" d="M 19.2753 30.8391L 19.2753 35.8391L 24.2753 35.8391L 24.2753 30.8391L 19.2753 30.8391ZM 1.48273 30.8391L -3.51727 30.8391L -3.51727 35.8391L 1.48273 35.8391L 1.48273 30.8391ZM 1.48273 1.46855L 1.48273 -3.53145L -3.51727 -3.53145L -3.51727 1.46855L 1.48273 1.46855ZM 19.2753 1.46855L 24.2753 1.46855L 24.2753 -3.53145L 19.2753 -3.53145L 19.2753 1.46855ZM 20.7581 25.6994L 25.7581 25.6994L 25.7581 25.6981L 20.7581 25.6994ZM 20.0167 19.965C 16.889 19.965 14.2753 22.489 14.2753 25.6993L 24.2753 25.6993C 24.2753 28.0986 22.3247 29.965 20.0167 29.965L 20.0167 19.965ZM 14.2753 25.6993L 14.2753 30.8391L 24.2753 30.8391L 24.2753 25.6993L 14.2753 25.6993ZM 19.2753 25.8391L 1.48273 25.8391L 1.48273 35.8391L 19.2753 35.8391L 19.2753 25.8391ZM 6.48273 30.8391L 6.48273 1.46855L -3.51727 1.46855L -3.51727 30.8391L 6.48273 30.8391ZM 1.48273 6.46855L 19.2753 6.46855L 19.2753 -3.53145L 1.48273 -3.53145L 1.48273 6.46855ZM 14.2753 1.46855L 14.2753 6.60836L 24.2753 6.60836L 24.2753 1.46855L 14.2753 1.46855ZM 14.2753 6.60836C 14.2753 9.81908 16.8896 12.3426 20.0167 12.3426L 20.0167 2.34263C 22.3244 2.34263 24.2753 4.20855 24.2753 6.60836L 14.2753 6.60836ZM 20.0167 12.3426C 23.1443 12.3426 25.758 9.81862 25.758 6.60836L 15.758 6.60836C 15.758 4.20901 17.7086 2.34263 20.0167 2.34263L 20.0167 12.3426ZM 25.758 6.60836L 25.758 0.734273L 15.758 0.734273L 15.758 6.60836L 25.758 6.60836ZM 25.758 0.734273C 25.758 -2.47599 23.1443 -5 20.0167 -5L 20.0167 5C 17.7086 5 15.758 3.13362 15.758 0.734273L 25.758 0.734273ZM 20.0167 -5L 0.741366 -5L 0.741366 5L 20.0167 5L 20.0167 -5ZM 0.741366 -5C -2.38628 -5 -5 -2.47598 -5 0.734273L 5 0.734273C 5 3.13361 3.04942 5 0.741366 5L 0.741366 -5ZM -5 0.734273L -5 31.5735L 5 31.5735L 5 0.734273L -5 0.734273ZM -5 31.5735C -5 34.7843 -2.38572 37.3078 0.741366 37.3078L 0.741366 27.3078C 3.04907 27.3078 5 29.1738 5 31.5735L -5 31.5735ZM 0.741366 37.3078L 20.0168 37.3078L 20.0168 27.3078L 0.741366 27.3078L 0.741366 37.3078ZM 20.0168 37.3078C 23.1444 37.3078 25.7581 34.7838 25.7581 31.5735L 15.7581 31.5735C 15.7581 29.1742 17.7087 27.3078 20.0168 27.3078L 20.0168 37.3078ZM 25.7581 31.5735L 25.7581 25.6994L 15.7581 25.6994L 15.7581 31.5735L 25.7581 31.5735ZM 25.7581 25.6981C 25.7573 22.4889 23.1446 19.965 20.0167 19.965L 20.0167 29.965C 17.7084 29.965 15.7588 28.0985 15.7581 25.7007L 25.7581 25.6981Z"/>
<path id="path4_fill" d="M 25.7304 7.55787L 18.3168 0.215141C 18.0271 -0.0717135 17.5581 -0.0717135 17.2685 0.215141C 16.9789 0.501996 16.9789 0.96655 17.2685 1.25341L 23.4165 7.34258L 0.741366 7.34258C 0.33157 7.34258 -4.73615e-07 7.67139 -4.73615e-07 8.07685C -4.73615e-07 8.48231 0.331675 8.81112 0.741366 8.81112L 23.4165 8.81112L 17.2685 14.9003C 16.9789 15.1872 16.9789 15.6517 17.2685 15.9386C 17.4133 16.082 17.6029 16.1537 17.7926 16.1537C 17.9823 16.1537 18.172 16.082 18.3167 15.9386L 25.7303 8.59583C 26.0201 8.30928 26.0201 7.84463 25.7304 7.55787Z"/>
<path id="path5_stroke_2x" d="M 25.7304 7.55787L 22.2119 11.1104L 22.2126 11.111L 25.7304 7.55787ZM 18.3168 0.215141L 21.8353 -3.33734L 21.8353 -3.33735L 18.3168 0.215141ZM 17.2685 1.25341L 20.787 -2.29908L 17.2685 1.25341ZM 23.4165 7.34258L 23.4165 12.3426L 35.5701 12.3426L 26.935 3.79009L 23.4165 7.34258ZM 23.4165 8.81112L 26.935 12.3636L 35.5701 3.81112L 23.4165 3.81112L 23.4165 8.81112ZM 17.2685 14.9003L 13.75 11.3478L 17.2685 14.9003ZM 17.2685 15.9386L 13.75 19.491L 17.2685 15.9386ZM 18.3167 15.9386L 14.7982 12.3861L 14.7969 12.3874L 18.3167 15.9386ZM 25.7303 8.59583L 22.2144 5.04079L 22.2118 5.04334L 25.7303 8.59583ZM 29.2489 4.00539L 21.8353 -3.33734L 14.7983 3.76763L 22.2119 11.1104L 29.2489 4.00539ZM 21.8353 -3.33735C 19.597 -5.55422 15.9883 -5.55422 13.75 -3.33735L 20.787 3.76763C 19.1279 5.41079 16.4573 5.41079 14.7983 3.76763L 21.8353 -3.33735ZM 13.75 -3.33735C 11.485 -1.09405 11.485 2.5626 13.75 4.80589L 20.787 -2.29908C 22.4727 -0.6295 22.4727 2.09805 20.787 3.76763L 13.75 -3.33735ZM 13.75 4.80589L 19.898 10.8951L 26.935 3.79009L 20.787 -2.29908L 13.75 4.80589ZM 23.4165 2.34258L 0.741366 2.34258L 0.741366 12.3426L 23.4165 12.3426L 23.4165 2.34258ZM 0.741366 2.34258C -2.38627 2.34258 -5 4.86658 -5 8.07685L 5 8.07685C 5 10.4762 3.04941 12.3426 0.741366 12.3426L 0.741366 2.34258ZM -5 8.07685C -5 11.2876 -2.38571 13.8111 0.741366 13.8111L 0.741366 3.81112C 3.04906 3.81112 5 5.67706 5 8.07685L -5 8.07685ZM 0.741366 13.8111L 23.4165 13.8111L 23.4165 3.81112L 0.741366 3.81112L 0.741366 13.8111ZM 19.898 5.25864L 13.75 11.3478L 20.787 18.4528L 26.935 12.3636L 19.898 5.25864ZM 13.75 11.3478C 11.485 13.5911 11.485 17.2478 13.75 19.491L 20.787 12.3861C 22.4727 14.0557 22.4727 16.7832 20.787 18.4528L 13.75 11.3478ZM 13.75 19.491C 14.8729 20.6032 16.3452 21.1537 17.7926 21.1537L 17.7926 11.1537C 18.8606 11.1537 19.9537 11.5608 20.787 12.3861L 13.75 19.491ZM 17.7926 21.1537C 19.2389 21.1537 20.7124 20.6039 21.8365 19.4898L 14.7969 12.3874C 15.6315 11.5601 16.7257 11.1537 17.7926 11.1537L 17.7926 21.1537ZM 21.8352 19.491L 29.2488 12.1483L 22.2118 5.04334L 14.7982 12.3861L 21.8352 19.491ZM 29.2463 12.1509C 31.5153 9.90673 31.5135 6.24749 29.2483 4.00475L 22.2126 11.111C 20.5266 9.44176 20.5248 6.71184 22.2144 5.04079L 29.2463 12.1509Z"/>
</defs>
</svg>
