<svg width="31" height="42" viewBox="0 0 31 42" version="1.1" xmlns="http://www.w3.org/2000/svg" xmlns:xlink="http://www.w3.org/1999/xlink" xmlns:figma="http://www.figma.com/figma/ns">
<title>play-button</title>
<desc>Created using Figma</desc>
<g id="Canvas" transform="translate(-3999 -1743)" figma:type="canvas">
<g id="play-button" figma:type="frame">
<g id="Vector" figma:type="vector">
<use xlink:href="#path0_fill" transform="translate(3999 1743)" fill="#FFFFFF"/>
</g>
</g>
</g>
<defs>
<path id="path0_fill" d="M 30.568 20.176L 1.568 0.175981C 1.261 -0.035019 0.863 -0.057019 0.535 0.113981C 0.206 0.286981 0 0.626981 0 0.998981L 0 40.999C 0 41.371 0.206 41.712 0.535 41.885C 0.681 41.961 0.841 41.999 1 41.999C 1.199 41.999 1.397 41.939 1.568 41.822L 30.568 21.822C 30.839 21.635 31 21.328 31 20.999C 31 20.67 30.838 20.363 30.568 20.176ZM 2 39.095L 2 2.90398L 28.239 21L 2 39.095Z"/>
</defs>
</svg>
