<svg width="294" height="280" viewBox="0 0 294 280" version="1.1" xmlns="http://www.w3.org/2000/svg" xmlns:xlink="http://www.w3.org/1999/xlink" xmlns:figma="http://www.figma.com/figma/ns">
<title>rating</title>
<desc>Created using Figma</desc>
<g id="Canvas" transform="translate(-3716 -2761)" figma:type="canvas">
<g id="rating" figma:type="frame">
<g id="Vector" figma:type="vector">
<use xlink:href="#path0_fill" transform="translate(3716 2761)" fill="#FFFFFF"/>
</g>
</g>
</g>
<defs>
<path id="path0_fill" d="M 59.3954 279.987C 58.306 279.987 57.2167 279.651 56.301 278.983C 54.6802 277.804 53.8698 275.811 54.2118 273.838L 70.4781 179.066L 1.58722 111.956C 0.155833 110.557 -0.359888 108.469 0.25582 106.57C 0.87679 104.666 2.52394 103.277 4.50789 102.988L 99.7058 89.1598L 142.284 2.935C 143.168 1.13613 145 1.65534e-07 147 1.65534e-07C 149.005 1.65534e-07 150.836 1.13613 151.715 2.935L 194.288 89.1598L 289.491 102.988C 291.475 103.277 293.117 104.661 293.743 106.57C 294.359 108.469 293.849 110.562 292.412 111.956L 223.521 179.077L 239.782 273.844C 240.119 275.816 239.308 277.81 237.693 278.988C 236.072 280.177 233.92 280.329 232.146 279.388L 147 234.647L 61.8424 279.388C 61.0741 279.787 60.2321 279.987 59.3954 279.987ZM 16.5694 111.861L 79.8032 173.47C 81.0399 174.674 81.6082 176.421 81.3135 178.125L 66.3839 265.112L 144.553 224.043C 146.084 223.233 147.91 223.233 149.452 224.043L 227.61 265.112L 212.686 178.125C 212.391 176.421 212.959 174.68 214.196 173.47L 277.43 111.861L 190.046 99.1693C 188.331 98.9221 186.852 97.8438 186.084 96.2921L 147 17.1524L 107.915 96.2974C 107.147 97.8491 105.668 98.9273 103.953 99.1745L 16.5694 111.861Z"/>
</defs>
</svg>
